<?xml version="1.0" standalone="no"?>
<!DOCTYPE svg PUBLIC "-//W3C//DTD SVG 1.1//EN" "http://www.w3.org/Graphics/SVG/1.1/DTD/svg11.dtd" >
<svg xmlns="http://www.w3.org/2000/svg" xmlns:xlink="http://www.w3.org/1999/xlink" version="1.1">
<metadata>
Created by FontForge 20170731 at Fri Oct 18 13:59:45 2002
 By Aleksey,,,
WinGreek Coptic - (c) Copyright Peter J. Gentry, 1992-1993. Revised by Coptic Standard Project at http://www.CopticChurch.net/coptic_fonts.
</metadata>
<defs>
<font id="CSKoptosManuscript" horiz-adv-x="500" >
  <font-face 
    font-family="CS Koptos Manuscript"
    font-weight="400"
    font-stretch="normal"
    units-per-em="1000"
    panose-1="2 0 0 0 0 0 0 0 0 0"
    ascent="800"
    descent="-200"
    x-height="714"
    cap-height="714"
    bbox="-10 -457 1600 1174"
    underline-thickness="22"
    underline-position="-213"
    unicode-range="U+0020-E004"
  />
<missing-glyph horiz-adv-x="750" 
d="M46 0h658v750h-658v-750zM658 46h-566v658h566v-658z" />
    <glyph glyph-name=".notdef" horiz-adv-x="750" 
d="M46 0h658v750h-658v-750zM658 46h-566v658h566v-658z" />
    <glyph glyph-name=".null" horiz-adv-x="0" 
 />
    <glyph glyph-name="nonmarkingreturn" 
 />
    <glyph glyph-name="space" unicode=" " 
 />
    <glyph glyph-name="exclam" unicode="!" horiz-adv-x="278" 
d="M113 178l-27 379v159h109v-159l-26 -379h-56zM90 0v100h101v-100h-101z" />
    <glyph glyph-name="quotedbl" unicode="&#x22;" horiz-adv-x="1066" 
d="M1026 671q0 -110 -97 -247q-104 -147 -219 -164q-66 -10 -93 -52q-23 -36 -23 -103q0 -35 10 -121t10 -133q0 -26 -3 -52q-6 -64 -47 -86q-24 -13 -65 -13q-16 0 -35.5 23t-19.5 44q10 65 17 146.5t7 205.5q0 31 -11 72q-14 53 -36 53q-38 0 -116 37q-107 50 -174 132
q-91 110 -91 258q0 28 15.5 37t44.5 9q13 0 23.5 -0.5t19.5 -0.5q33 0 65 -4q11 -1 29 -5q3 -53 7 -105q14 -122 48 -196q48 -106 129 -106q9 0 24 12q21 16 23 38q6 63 8.5 131.5t2.5 145.5v152q0 39 -8 84t-17 93q0 52 91 52q44 0 60 -12.5t16 -39.5q0 -2 -9 -91
q-12 -118 -18 -213q-10 -158 -10 -287q0 -43 11 -59t47 -16q80 0 124 97q32 70 44 182q3 51 7 102q7 13 68.5 24.5t98.5 11.5q42 0 42 -36z" />
    <glyph glyph-name="FL0023h" unicode="#" horiz-adv-x="556" 
d="M50 -10l43 206h-83v73h97l37 177h-134v73h148l43 209h73l-43 -209h154l43 209h73l-42 -209h84v-73h-99l-36 -177h135v-73h-150l-42 -206h-74l42 206h-153l-42 -206h-74zM181 269h153l37 177h-154z" />
    <glyph glyph-name="FL0024h" unicode="$" horiz-adv-x="556" 
d="M249 -101v88q-66 8 -107 28.5t-71 67.5q-30 45 -35 116l88 16q11 -70 36 -104q37 -47 89 -52v280q-54 10 -111 42q-42 23 -64.5 64t-22.5 95q0 93 66 152q45 39 132 48v42h52v-42q76 -7 121 -45q58 -48 70 -132l-91 -13q-8 52 -32.5 79.5t-67.5 36.5v-254q33 -8 55 -14.5
t33 -11.5q60 -26 90 -72.5t30 -109.5q0 -92 -58 -153q-59 -59 -150 -63v-89h-52zM249 667q-51 -8 -80.5 -41.5t-29.5 -78.5t25 -75.5t85 -48.5v244zM301 59q25 3 47 14.5t37.5 30t24.5 42.5t9 52q0 48 -24 77q-23 29 -94 52v-268z" />
    <glyph glyph-name="percent" unicode="%" horiz-adv-x="889" 
d="M58 544q0 73 42 129q42 55 108 55q33 0 63 -13t48 -34q24 -28 33 -61q12 -36 12 -81t-12 -81q-31 -75 -86 -97q-17 -8 -28.5 -9.5t-16.5 -1.5h-12q-34 0 -61 12q-30 18 -48 35q-18 22 -30 60.5t-12 86.5zM211 667q-11 -2 -20 -5l-15 -5q-11 -5 -21.5 -20t-13.5 -28
l-5 -20v-20l-1 -34q0 -69 22 -97t54 -28q33 0 55 28.5t22 103.5q0 69 -22 97t-55 28zM211 -24l392 752h71l-390 -752h-73zM521 168q0 73 41 129q42 55 110 55q33 0 61.5 -12t49.5 -36t33 -59.5t12 -81.5q0 -40 -13 -79.5t-34 -60.5q-19 -25 -48 -34q-26 -13 -61 -13
q-33 0 -63 13t-46 34q-22 29 -30 56l-9 30l-2 18zM674 292l-31 -7l-24 -23l-15 -28l-5 -21v-20l-1 -34q0 -64 22 -95q24 -30 54 -30q33 0 55 28.5t22 103.5q0 69 -22 97.5t-55 28.5z" />
    <glyph glyph-name="semicolon" unicode="&#x26;" horiz-adv-x="334" 
d="M128 -168q40 15 83 62q52 58 52 113q0 66 -39 96q-23 19 -57 19q-22 0 -41 -10q-30 -17 -30 -59q0 -32 21 -45.5t53 -13.5l18 2l11 3q17 0 17 -17q0 -22 -19 -53q-14 -20 -33.5 -38.5t-45.5 -35.5zM163 418q11 0 23 4.5t21.5 13t16 20t6.5 26.5q0 29 -20.5 49t-46.5 20
q-28 0 -47 -20t-19 -49t24 -50q17 -14 42 -14z" />
    <glyph glyph-name="y" unicode="'" horiz-adv-x="1066" 
d="M1026 671q0 -110 -97 -247q-104 -147 -219 -164q-66 -10 -93 -52q-23 -36 -23 -103q0 -35 10 -121t10 -133q0 -26 -3 -52q-6 -64 -47 -86q-24 -13 -65 -13q-16 0 -35.5 23t-19.5 44q10 65 17 146.5t7 205.5q0 31 -11 72q-14 53 -36 53q-38 0 -116 37q-107 50 -174 132
q-91 110 -91 258q0 28 15.5 37t44.5 9q13 0 23.5 -0.5t19.5 -0.5q33 0 65 -4q11 -1 29 -5q3 -53 7 -105q14 -122 48 -196q48 -106 129 -106q9 0 24 12q21 16 23 38q6 63 8.5 131.5t2.5 145.5v152q0 39 -8 84t-17 93q0 52 91 52q44 0 60 -12.5t16 -39.5q0 -2 -9 -91
q-12 -118 -18 -213q-10 -158 -10 -287q0 -43 11 -59t47 -16q80 0 124 97q32 70 44 182q3 51 7 102q7 13 68.5 24.5t98.5 11.5q42 0 42 -36z" />
    <glyph glyph-name="parenleft" unicode="(" horiz-adv-x="333" 
d="M295 676l9 -16q-52 -41 -77 -71q-43 -50 -65 -118q-28 -85 -28 -202q0 -82 6 -132q11 -91 44 -160q42 -88 120 -138l-12 -16q-40 21 -88 69q-44 44 -74 88q-40 59 -59 116q-23 70 -23 166q0 129 64.5 236.5t182.5 177.5z" />
    <glyph glyph-name="parenright" unicode=")" horiz-adv-x="333" 
d="M38 -177l-9 16q52 41 77 71q43 50 65 118q28 85 28 202q0 82 -6 132q-11 91 -44 160q-42 88 -120 138l12 16q40 -21 88 -69q44 -44 74 -88q40 -59 59 -116q23 -70 23 -166q0 -129 -64.5 -236.5t-182.5 -177.5z" />
    <glyph glyph-name="asterisk" unicode="*" 
d="M69 383q0 35 51 46q79 17 114 42l-11 7q-24 15 -102 34q-52 12 -52 45q0 6 3 13q9 21 30 21t39 -19q62 -66 100 -86v13q0 46 -12.5 84.5t-12.5 53.5q0 25 16 34q9 5 21 5q18 0 26 -12.5t8 -26.5q0 -5 -18 -71q-9 -33 -9 -56v-26l7 4q29 16 59 49q52 56 69 56
q12 0 24 -8.5t12 -27.5q0 -34 -43 -43q-74 -15 -120 -44l8 -5q32 -20 108 -36q48 -10 48 -43q0 -17 -10.5 -26.5t-25.5 -9.5q-23 0 -58 41q-42 50 -71 62l-7 3v-7q0 -50 8 -80l20 -62q0 -16 -10.5 -29t-28.5 -13q-14 0 -24.5 10.5t-10.5 28.5q0 7 18 70q10 35 10 55
q0 13 -1 20l-1 7q-35 -23 -40 -27q-14 -10 -36 -35q-26 -29 -35.5 -36t-25.5 -7q-17 0 -25.5 10.5t-8.5 21.5z" />
    <glyph glyph-name="plus" unicode="+" horiz-adv-x="584" 
d="M250 116v196h-194v82h194v195h83v-195h195v-82h-195v-196h-83z" />
    <glyph glyph-name="FL002Ch" unicode="," horiz-adv-x="882" 
d="M842 66q0 -41 -16.5 -55t-49.5 -14q-15 0 -32 1l-34 2q-9 0 -28.5 -1t-29.5 -1q-31 0 -53.5 6.5t-35.5 26.5q-9 13 -76 157q-44 94 -82 94q-11 0 -56 -73q-54 -88 -96 -135q-66 -74 -126 -74q-31 0 -45 4q-24 7 -24 27q0 41 76 102q70 56 141 113q76 74 76 145
q0 39 -68 133q-14 19 -47 62q-6 8 -15 12q-14 7 -34 7q-16 0 -30 -2q-49 -7 -53 -7q-30 0 -45 16q-19 21 -19 70q0 18 57 32t139 14q67 0 107 -61q2 -3 54 -114q29 -62 67 -62q24 0 69 61q64 87 92 114q65 62 135 62q15 0 32.5 -11t17.5 -24q0 -6 -4 -11q-38 -50 -118 -116
q-60 -49 -117 -98t-57 -77q0 -17 78 -145.5t96 -137.5q3 -1 21 -1h25q51 0 71 -5q37 -9 37 -36z" />
    <glyph glyph-name="hyphen" unicode="-" horiz-adv-x="640" 
d="M580 524l-38 -82h-470l46 82h462z" />
    <glyph glyph-name="period" unicode="." horiz-adv-x="240" 
d="M198 65q0 -27 -19 -46t-46 -19t-46 19t-19 46t19 46t46 19t46 -19t19 -46z" />
    <glyph glyph-name="slash" unicode="/" horiz-adv-x="278" 
d="M0 -10l208 738h70l-207 -738h-71z" />
    <glyph glyph-name="zero" unicode="0" 
d="M250 650q-64 0 -97 -82t-33 -237q0 -118 17 -190q31 -129 113 -129q64 0 97 79.5t33 239.5q0 112 -17 185q-31 134 -113 134zM250 676q122 0 182 -128q44 -94 44 -217q0 -125 -44 -218q-60 -127 -182 -127t-182 127q-44 93 -44 218q0 122 44 216q60 129 182 129z" />
    <glyph glyph-name="one" unicode="1" 
d="M118 0v15q51 0 69 11q26 16 26 67v453q0 22 -4 31q-7 16 -30 16q-11 0 -17 -2q-23 -9 -51 -20v14l180 91l8 -2v-600q0 -35 19 -47t76 -12v-15h-276z" />
    <glyph glyph-name="two" unicode="2" 
d="M475 137l-55 -137h-390v12l178 189q130 139 130 258q0 52 -27 90q-38 53 -116 53q-60 0 -97 -44q-21 -25 -46 -86l-21 5q21 105 84 156q53 43 128 43q72 0 126.5 -49.5t54.5 -130.5q0 -70 -47 -144q-26 -41 -81 -100l-168 -176h239q32 0 47 9q20 12 48 57z" />
    <glyph glyph-name="three" unicode="3" 
d="M153 330l-1 13q78 25 117 60q49 44 49 109q0 42 -27 71q-30 33 -83 33q-46 0 -82 -25.5t-66 -80.5l-15 4q27 89 88 130q47 32 108 32q85 0 126 -52q30 -38 30 -83q0 -42 -21.5 -74.5t-71.5 -65.5q69 -29 98 -74t29 -111q0 -105 -78 -167.5t-199 -62.5q-52 0 -81.5 15
t-29.5 42q0 19 11.5 27t27.5 8q21 0 66 -28t77 -28q65 0 102 49q32 43 32 105q0 30 -14 63q-20 48 -62 69q-26 14 -51 18t-79 4z" />
    <glyph glyph-name="four" unicode="4" 
d="M472 231v-64h-102v-167h-77v167h-281v64l314 445h44v-445h102zM292 231v340l-240 -340h240z" />
    <glyph glyph-name="five" unicode="5" 
d="M181 583l-42 -85q86 -15 124 -29q69 -25 109 -74q33 -39 43.5 -71.5t10.5 -98.5q0 -101 -75 -170t-193 -69q-60 0 -93 16t-33 44q0 19 10 29t30 10q30 0 60 -19q67 -43 85 -43q55 0 94 43q45 49 45 135q0 107 -102 165q-81 46 -183 46q-4 0 -6 4t0 9l109 237h209
q18 0 27 6.5t19 19.5l9 -7l-38 -89q-1 -4 -6 -6.5t-17 -2.5h-196z" />
    <glyph glyph-name="six" unicode="6" 
d="M446 684l2 -16q-126 -20 -208 -107q-72 -77 -88 -178q30 18 51 28q36 17 81 17q82 0 133 -55t51 -155q0 -80 -40 -143q-57 -89 -174 -89q-95 0 -154 73q-66 82 -66 232q0 157 115 273q119 120 297 120zM242 382q-28 0 -52.5 -7.5t-42.5 -24.5q-9 -9 -14.5 -30t-5.5 -64
q0 -119 43 -184q38 -58 99 -58q49 0 79 41.5t30 123.5q0 89 -28 140q-34 63 -108 63z" />
    <glyph glyph-name="seven" unicode="7" 
d="M449 662v-16l-212 -654h-65l198 596h-217q-44 0 -70 -21q-16 -13 -46 -60l-17 8l43 103l16 44h370z" />
    <glyph glyph-name="eight" unicode="8" 
d="M212 312q-37 -30 -52 -53q-28 -43 -28 -103t34 -101t93 -41q49 0 79.5 29.5t30.5 82.5q0 61 -56 110q-24 21 -101 76zM56 146q0 71 49 120q18 18 81 66q-61 54 -76 70q-48 52 -48 119q0 71 61 115q55 40 126 40q82 0 130 -42q45 -39 45 -100t-46 -105q-25 -24 -88 -58
q94 -67 128 -121q27 -43 27 -100t-37 -101q-53 -63 -162 -63q-88 0 -141 50q-49 46 -49 110zM136 547q0 -50 49 -100q25 -26 76 -58q42 28 61 51q33 41 33 99q0 45 -27 75q-30 34 -85 34q-52 0 -79.5 -30.5t-27.5 -70.5z" />
    <glyph glyph-name="nine" unicode="9" 
d="M59 -22l-3 20q119 20 200 103q77 79 103 189l-2 2q-32 -27 -70.5 -41t-76.5 -14q-91 0 -140 68q-40 55 -40 130q0 102 57.5 171.5t152.5 69.5q94 0 156.5 -77.5t62.5 -202.5q0 -169 -104 -288q-114 -130 -296 -130zM362 355v39q0 129 -31 189q-34 65 -102 65
q-58 0 -85 -56q-22 -45 -22 -119q0 -75 24 -125q33 -68 104 -68q24 0 52 11t44 23.5t16 40.5z" />
    <glyph glyph-name="q" unicode=":" horiz-adv-x="952" 
d="M902 408q0 -225 -141 -327q-114 -82 -315 -82q-157 0 -273 96q-123 102 -123 256q0 159 128 264q122 100 291 100q158 0 295.5 -96t137.5 -211zM709 457q0 72 -73.5 121t-166.5 49q-84 0 -161.5 -56.5t-77.5 -112.5q0 -27 18.5 -42.5t43.5 -15.5h354q27 0 45 14t18 43z
M729 288q0 29 -22.5 38t-67.5 9h-323q-37 0 -56 -7q-30 -11 -30 -40q0 -69 84 -129.5t192 -60.5q84 0 153.5 60.5t69.5 129.5z" />
    <glyph glyph-name="FL003Bh" unicode=";" horiz-adv-x="952" 
d="M902 408q0 -225 -141 -327q-114 -82 -315 -82q-157 0 -273 96q-123 102 -123 256q0 159 128 264q122 100 291 100q158 0 295.5 -96t137.5 -211zM709 457q0 72 -73.5 121t-166.5 49q-84 0 -161.5 -56.5t-77.5 -112.5q0 -27 18.5 -42.5t43.5 -15.5h354q27 0 45 14t18 43z
M729 288q0 29 -22.5 38t-67.5 9h-323q-37 0 -56 -7q-30 -11 -30 -40q0 -69 84 -129.5t192 -60.5q84 0 153.5 60.5t69.5 129.5z" />
    <glyph glyph-name="x" unicode="&#x3c;" horiz-adv-x="882" 
d="M842 66q0 -41 -16.5 -55t-49.5 -14q-15 0 -32 1l-34 2q-9 0 -28.5 -1t-29.5 -1q-31 0 -53.5 6.5t-35.5 26.5q-9 13 -76 157q-44 94 -82 94q-11 0 -56 -73q-54 -88 -96 -135q-66 -74 -126 -74q-31 0 -45 4q-24 7 -24 27q0 41 76 102q70 56 141 113q76 74 76 145
q0 39 -68 133q-14 19 -47 62q-6 8 -15 12q-14 7 -34 7q-16 0 -30 -2q-49 -7 -53 -7q-30 0 -45 16q-19 21 -19 70q0 18 57 32t139 14q67 0 107 -61q2 -3 54 -114q29 -62 67 -62q24 0 69 61q64 87 92 114q65 62 135 62q15 0 32.5 -11t17.5 -24q0 -6 -4 -11q-38 -50 -118 -116
q-60 -49 -117 -98t-57 -77q0 -17 78 -145.5t96 -137.5q3 -1 21 -1h25q51 0 71 -5q37 -9 37 -36z" />
    <glyph glyph-name="underscore" unicode="=" horiz-adv-x="0" 
d="M31 849h672q10 0 15.5 11.5t5.5 25.5t-5.5 25.5t-15.5 11.5h-672q-11 0 -16 -11.5t-5 -25.5t5 -25.5t16 -11.5z" />
    <glyph glyph-name="FL003Fh" unicode="&#x3e;" horiz-adv-x="278" 
d="M89 0v100h100v-100q0 -54 -19.5 -87.5t-62.5 -52.5l-24 38q28 12 41 36t15 66h-50z" />
    <glyph glyph-name="FL0040h" unicode="?" horiz-adv-x="556" 
d="M230 176v27q0 47 14 86l17 34l18 26l24 26l39 35q49 43 61 66q13 22 13 51q0 50 -44 89q-43 40 -95 40q-58 0 -94.5 -36.5t-48.5 -108.5l-90 10q12 105 72 156t160 51q105 0 167 -57q63 -57 63 -138q0 -23 -6 -44l-16 -43l-13 -20l-20 -24l-53 -52l-36 -33l-20 -23
q-13 -11 -20 -42q-5 -10 -5 -31l-2 -23v-22h-85zM225 0v100h100v-100h-100z" />
    <glyph glyph-name="FL003Eh" unicode="@" horiz-adv-x="334" 
d="M163 418q11 0 23 4.5t21.5 13t16 20t6.5 26.5q0 29 -20.5 49t-46.5 20q-28 0 -47 -20t-19 -49t24 -50q17 -14 42 -14zM164 7q11 0 23 4.5t21.5 13t16 20t6.5 26.5q0 29 -20.5 49t-46.5 20q-28 0 -47 -20t-19 -49t24 -50q17 -14 42 -14z" />
    <glyph glyph-name="a" unicode="A" horiz-adv-x="890" 
d="M853 42q0 -29 -29 -39.5t-96 -10.5q-121 0 -142 62q-10 30 -50 30q-74 -36 -131 -62q-64 -30 -117 -30q-63 0 -146 34q-102 42 -102 96q0 26 101 77q94 46 189 93q102 54 102 83q0 23 -35 97q-38 81 -70 106q-22 17 -107.5 21.5t-85.5 54.5q0 17 37 38.5t67 21.5
q127 0 182 -30q47 -26 82.5 -107.5t72.5 -170.5q53 -119 107 -238q24 -43 56 -57q21 -9 55 -9t43 -6q17 -11 17 -54zM531 168q0 57 -11 77q-16 29 -66 29q-55 0 -121 -48q-61 -44 -61 -71q1 -6 41.5 -30t47.5 -24q29 0 88.5 25t81.5 42z" />
    <glyph glyph-name="b" unicode="B" horiz-adv-x="682" 
d="M627 257q5 -18 7 -36.5t2 -34.5q0 -76 -50 -121q-42 -38 -115 -55q-31 -8 -108.5 -10t-193.5 -2h-45q-58 0 -70 7t-12 40v24v562q0 61 15 72t91 11h299q66 0 105 -40q36 -37 36 -91q0 -25 -9 -50t-28 -47q-74 -87 -74 -96q0 -14 32 -29q70 -33 90 -52.5t28 -51.5z
M410 527q1 5 1 13q0 46 -46.5 69.5t-119.5 23.5h-23q-11 -2 -15 -2v-217q120 0 168 41q28 24 35 72zM438 191q0 81 -76 107q-44 15 -155 15v-232h36q86 0 128 16q67 25 67 94z" />
    <glyph glyph-name="s" unicode="C" horiz-adv-x="844" 
d="M794 175q0 -63 -121 -127q-90 -48 -207 -48q-153 0 -269 73q-147 92 -147 264q0 50 22 114q36 105 113 166q105 84 277 84q106 0 219 -51t113 -98q0 -27 -26.5 -40t-91.5 -13q-50 0 -78 36q-61 78 -172 78q-119 0 -170 -94q-39 -72 -39 -199q0 -134 85 -195
q64 -46 160 -46q77 0 123.5 65.5t147.5 65.5q2 0 7.5 1t10.5 1q18 0 30.5 -7.5t12.5 -29.5z" />
    <glyph glyph-name="d" unicode="D" horiz-adv-x="1102" 
d="M1068 69q0 -24 -32 -52q-46 -41 -128 -41q-66 0 -108.5 36.5t-67.5 36.5q-28 -22 -101 -39.5t-188 -17.5h-187q-96 0 -150 23q-70 30 -70 97q0 45 24.5 67.5t62.5 22.5q48 0 90.5 -56.5t61.5 -56.5q32 0 65 63q37 78 75 156q46 86 59 110q26 49 38 84q6 20 6 34
q0 49 -98 53t-98 37q0 51 53 73q36 15 91 15q119 0 162 -36q40 -33 81 -154q94 -276 120 -343q23 -58 53 -84q25 -22 56 -22q23 0 51 11t59 24q10 0 15 -9.5t5 -31.5zM694 159q-30 88 -46 131q-51 132 -72 132q-17 0 -64 -80q-33 -55 -80 -149q-20 -41 -40 -81
q0 -43 120 -43q102 0 146 27q36 22 36 63z" />
    <glyph glyph-name="e" unicode="E" horiz-adv-x="846" 
d="M806 195q0 -66 -97 -130q-110 -73 -255 -73q-146 0 -252 71q-79 53 -127 141q-35 64 -35 102q0 3 -1.5 21.5t-1.5 26.5q0 78 21 141q32 95 107 149q98 70 262 70q87 0 183 -32q129 -43 152 -116q2 -10 2 -12q0 -17 -19.5 -26t-57.5 -9q-57 0 -118.5 59.5t-114.5 59.5
q-76 0 -149 -49q-85 -57 -85 -138q0 -32 24.5 -44t67.5 -12q69 9 141 15.5t127 6.5q26 0 36.5 -11.5t10.5 -37.5t-15 -35t-39 -9q-11 0 -20.5 1.5t-15.5 2.5q-57 0 -131 5t-127 5q-18 0 -35.5 -14.5t-17.5 -29.5q0 -107 99 -167q78 -47 168 -47q64 0 117.5 69.5t136.5 69.5
q12 1 21 1q16 0 27 -5t11 -20z" />
    <glyph glyph-name="F" unicode="F" horiz-adv-x="736" 
d="M696 -188q0 -45 -38 -75q-46 -36 -91 -36q-30 0 -45.5 16.5t-15.5 43.5q15 64 22 100q22 110 22 160q-5 20 -10 30q-16 30 -47 30q-25 0 -79 -39t-111 -39q-43 0 -97 29q-70 37 -112 101q-54 82 -54 194q0 80 66 175q56 80 135 143q73 58 109 58q20 0 34 -4q31 -9 31 -32
q0 -15 -12 -34q-28 -46 -133 -125q-74 -56 -74 -142q0 -96 67 -169.5t161 -73.5q84 0 107 52q19 44 19 199q0 86 -7 160q-9 61 -17 122q0 33 32 48.5t90 15.5q34 0 41 -12t7 -52v-411v-433z" />
    <glyph glyph-name="g" unicode="G" horiz-adv-x="660" 
d="M586 588v-29q0 -28 -12.5 -33t-79.5 -5q-39 0 -46 34q-15 74 -110 74q-79 0 -102 -23t-23 -105q0 -37 3 -104q8 -179 8 -279q0 -13 1 -33.5t1 -27.5q0 -32 -17.5 -44.5t-76.5 -12.5q-58 0 -75 13.5t-17 42.5q4 62 6 106q6 133 6 267q-1 26 -1 43q-3 128 -3 188
q0 40 168 51q78 5 165 5q26 0 49 -0.5t44 -0.5q71 0 96 -32q17 -21 17 -68q-1 -18 -1 -27z" />
    <glyph glyph-name="H" unicode="H" horiz-adv-x="800" 
d="M759 -156q0 -48 -98 -94q-106 -50 -234 -50q-27 0 -109 48q-91 54 -154 118q-79 81 -79 150q0 21 107 73q134 65 200 133q108 111 108 275q0 49 -34.5 89t-81.5 40q-126 0 -143 -116.5t-149 -116.5q-24 0 -38 12t-14 40q0 95 111 179q119 90 276 90q80 0 169 -65
q104 -76 104 -177q0 -68 -107 -172q-59 -58 -201 -165q-108 -82 -108 -92q0 -69 87 -154t151 -85q41 0 105.5 43.5t76.5 43.5q23 0 39 -11.5t16 -35.5z" />
    <glyph glyph-name="I" unicode="I" horiz-adv-x="398" 
d="M291 85q-1 25 -2 57t-3 71q-2 40 -3 69t-2 49t-1.5 39t-1.5 38q0 5 1.5 40t5.5 99q1 37 6 111q0 23 -10 36q-14 20 -48 20q-66 0 -105.5 -16t-39.5 -50q3 -18 5 -32t3 -25q4 -30 5.5 -54t1.5 -41q0 -83 -1 -147t-3 -111t-4.5 -85t-6.5 -68q0 -43 24 -65q30 -27 100 -27
q79 0 79 92z" />
    <glyph glyph-name="J" unicode="J" horiz-adv-x="1130" 
d="M1091 -28q0 -31 -27.5 -44t-108.5 -13q-58 0 -63 27q-10 58 -159 58h-514q-24 0 -58 -2.5t-37 -2.5q-45 0 -62 21q-22 27 -22 102q0 38 18 46t81 8q98 0 101 -41.5t65 -41.5q34 0 127 103t93 136q0 28 -26 71q-19 32 -28 52q-41 95 -115 117q-57 5 -110 11t-53 64
q0 39 54 54q39 11 125 11q95 0 151 -63q28 -32 67 -119q28 -64 54 -64q44 0 82 71q61 113 78 133q61 71 158 71q12 0 29.5 -14t10.5 -32q-22 -60 -105 -128q-15 -12 -139 -102q-70 -51 -70 -75q0 -28 84.5 -154.5t103.5 -134.5q8 -3 22 -3t59.5 5.5t57.5 5.5q16 0 27 -3
q37 -11 43 -27.5t6 -102.5zM599 251q-34 -23 -74 -68q-46 -52 -54 -86q24 -7 52.5 -10t55.5 -3q40 0 65.5 3.5t53.5 9.5q-23 54 -49 91q-1 1 -50 63z" />
    <glyph glyph-name="k" unicode="K" horiz-adv-x="823" 
d="M773 93q7 -40 -50 -66q-70 -32 -146 -32q-57 0 -121 82q-13 17 -101 154q-53 83 -81 83q-23 0 -31 -17.5t-8 -43.5q0 -7 1 -17t1 -12q0 -4 2 -42.5t2 -98.5q0 -37 -28 -60q-34 -28 -73 -28q-36 0 -54.5 12.5t-18.5 41.5q10 42 18 90t8 98q0 190 -16 294q-19 63 -37 126
q0 16 46.5 39.5t87.5 23.5q33 0 46 -10t13 -28q0 -13 -12 -47q-6 -17 -6 -23v-167q0 -24 17 -42t42 -18q30 0 71 86q59 124 89 162q69 87 167 87q43 0 43 -43q0 -26 -68 -88l-126 -110q-69 -64 -69 -94q35 -34 65 -69q44 -51 111 -141q38 -50 124.5 -50t91.5 -32z" />
    <glyph glyph-name="l" unicode="L" horiz-adv-x="984" 
d="M943 77q0 -40 -59 -60q-51 -17 -137 -17q-83 0 -145 102q-29 47 -83 191q-39 103 -66 103q-41 0 -100 -102q-102 -178 -112 -191q-75 -103 -155 -103q-23 0 -34.5 12.5t-11.5 26.5q0 26 91 132q84 95 169 191q92 107 92 133q0 57 -17.5 77.5t-51.5 20.5q-14 0 -52 -6
t-59 -6q-14 0 -38 27q-28 31 -28 63q0 13 64 27q75 17 168 17q64 0 125 -82.5t136 -268.5q4 -10 56 -105q47 -87 54 -98q34 -39 114 -39t80 -45z" />
    <glyph glyph-name="m" unicode="M" horiz-adv-x="878" 
d="M837 40q0 -16 -26 -27q-35 -15 -107 -15q-27 0 -34.5 10t-7.5 32q3 55 5.5 144t2.5 154q1 10 1 16q0 26 -5 40q-9 24 -30 24q-35 0 -82 -95t-110 -95q-53 0 -113 95t-84 95q-11 0 -18.5 -11t-7.5 -39v-11.5t1 -8.5q0 -97 3.5 -167.5t8.5 -140.5q0 -24 -24.5 -33t-83.5 -9
q-47 0 -63.5 8t-16.5 38q5 59 8 161.5t3 257.5q0 75 -5 115q-6 35 -12 71q0 35 45 51q34 12 89 12q33 0 81 -94q45 -88 90 -175q58 -95 113 -95q30 0 84 94q96 169 101 176q64 96 117 96q42 0 57 -16t15 -48q0 -19 -1 -29q-5 -52 -5 -56v-287q0 -62 4 -128t7 -110z" />
    <glyph glyph-name="n" unicode="N" horiz-adv-x="758" 
d="M718 663q0 -43 -4 -207t-5.5 -231.5t-3.5 -148.5q0 -48 -30 -66q-21 -13 -66 -13q-10 0 -28 1t-25 1q-28 0 -95 131q-61 121 -121 243q-69 131 -101 131q-21 0 -28 -46q-3 -21 -3 -43v-11.5t1 -7.5l15 -330q0 -35 -34.5 -51t-93.5 -16q-28 0 -42 6.5t-14 26.5
q6 81 10.5 185t4.5 179q-12 226 -12 264q0 13 29 28q38 19 99 19q47 0 113 -100q57 -100 115 -200q68 -117 113 -145q11 -7 19 -7q13 0 19 16t6 38q0 31 -9 136t-18 218q0 23 31.5 37t103.5 14q21 0 37.5 -15.5t16.5 -35.5z" />
    <glyph glyph-name="o" unicode="O" horiz-adv-x="920" 
d="M873 358q0 -57 -11 -100q-27 -106 -107 -173q-111 -93 -309 -93q-171 0 -271 69q-77 53 -109 144q-21 60 -21 126q1 25 1 27q0 155 115.5 255.5t284.5 100.5q171 0 296 -99q131 -104 131 -257zM684 325q0 170 -93 245q-62 50 -145 50q-99 0 -163 -85q-58 -77 -58 -210
q0 -70 48 -144q64 -99 173 -99q131 0 194 98q44 68 44 145z" />
    <glyph glyph-name="p" unicode="P" horiz-adv-x="980" 
d="M939 649q0 -32 -19 -43t-51 -11q-45 0 -57.5 -12.5t-12.5 -53.5v-32t1 -36q6 -76 9 -123q9 -142 9 -237q0 -64 -16 -81q-22 -24 -102 -24q-38 0 -51 32q-7 17 -7 53q6 61 9 98q9 112 9 183q0 140 -16 189.5t-59 49.5h-63t-57 1q-75 0 -103 -14.5t-28 -66.5
q0 -56 8.5 -184t17.5 -256q0 -59 -41 -76q-21 -9 -84 -9q-30 0 -43 28q-9 20 -9 57q6 89 11 200t5 153q0 77 -3 94q-10 59 -86 59q-31 0 -50.5 13.5t-19.5 32.5q0 34 18 57.5t52 23.5h759q27 0 48.5 -17t21.5 -48z" />
    <glyph glyph-name="K" unicode="Q" horiz-adv-x="702" 
d="M662 269q0 -24 -23 -71q-31 -64 -83 -118q-67 -70 -162.5 -114t-185.5 -188q-29 -47 -101 -47q-30 0 -48.5 12t-18.5 38q0 68 119 121q205 92 223 104q120 81 120 214q0 68 -29 113q-33 52 -91 52q-135 0 -162 -89q-7 -84 -13 -167q-12 -90 -113 -90q-12 0 -16 29t-4 187
q0 52 -8 166.5t-17 238.5q0 13 -2 22.5t-3 17.5q0 8 10.5 11.5t39.5 3.5h38t34 1q32 0 41.5 -4t9.5 -20q0 -4 -3 -32t-3 -54v-177v-19v-12q3 -16 6 -31q44 34 101 60q64 29 139 29q87 0 152 -76q53 -62 53 -111z" />
    <glyph glyph-name="r" unicode="R" horiz-adv-x="645" 
d="M615 484q0 -97 -104 -158q-84 -49 -168 -49l-63 16q85 49 117 69q55 35 55 143q0 51 -45 83q-54 38 -117 38q-48 0 -69 -26q-16 -20 -16 -54q0 -14 2 -26t4 -20l-1 -728q0 -21 -27.5 -25t-142.5 -4q4 46 8 91q10 117 17.5 249.5t7.5 244.5v224q0 8 -4 24q-10 39 -10 53
q0 37 28 57q37 26 124 26q222 0 318 -61q86 -54 86 -167z" />
    <glyph glyph-name="S" unicode="S" horiz-adv-x="1308" 
d="M1258 382q0 -187 -108 -351q-99 -151 -259 -243t-316 -92q-72 7 -108 14q-108 21 -108 56q0 15 20.5 29.5t45.5 14.5q44 -18 100 -31t111 -13q36 0 127 39q100 43 169 94q84 62 84 111q0 11 -19 11q-10 0 -94 -17q-45 -9 -65 -9q-21 0 -34 5q-29 11 -85 53q-44 33 -83 33
q-75 -33 -143.5 -59.5t-133.5 -26.5q-113 0 -205 83q-104 94 -104 238q0 121 109 252t214 131q13 0 19 -11q16 -34 33 -68q-85 -44 -153 -124q-73 -86 -73 -154q0 -99 77 -171t182 -72q47 0 93 19q61 25 61 68q0 198 -15 315q-17 72 -33 145q0 20 27 28t73 8q26 0 49.5 -1
t45.5 -2q1 -7 -16 -119t-17 -131q0 -140 6 -188q11 -85 45 -124q39 -44 121 -44q86 0 148.5 78t62.5 191q0 128 -70 204q-59 54 -117 108q20 15 79.5 28t114.5 13q61 0 106 -141q36 -112 36 -177z" />
    <glyph glyph-name="t" unicode="T" horiz-adv-x="895" 
d="M855 605q0 -67 -26 -86q-17 -12 -77 -12q-63 0 -78 64.5t-86 64.5q-40 0 -59.5 -19.5t-19.5 -46.5v-346q0 -68 4.5 -106t10.5 -77q0 -26 -17.5 -34t-52.5 -8q-10 0 -19.5 0.5t-19.5 0.5q-36 0 -50 4q-24 7 -24 28l28 230q3 73 5.5 152t2.5 114q0 56 -14.5 82t-50.5 26
q-85 0 -102.5 -64.5t-94.5 -64.5q-46 0 -63 39q-12 28 -12 90q0 25 11 50q15 35 41 35h711q28 0 40 -23t12 -93z" />
    <glyph glyph-name="ydieresis" unicode="U" horiz-adv-x="860" 
d="M821 681q0 -25 -76 -125q-38 -51 -74.5 -99.5t-73.5 -96.5q-81 -111 -84 -134q-2 -23 -3 -32v-24q0 -57 5 -119t11 -131v-15v-8t1 -8q0 -31 -16 -43q-23 -17 -85 -17q-22 0 -41.5 12.5t-19.5 27.5q8 80 14.5 160t6.5 145q0 44 -32 117q-14 30 -33 64.5t-44 73.5
q-28 46 -92 135q-42 44 -94 54q-51 10 -51 32q0 20 38 40q49 25 136 25q47 0 107 -106q6 -11 29 -59.5t65 -136.5q50 -107 73 -107q24 0 67 106q30 73 52.5 122t38.5 74q65 107 141 107q14 0 24 -10t10 -24z" />
    <glyph glyph-name="f" unicode="V" horiz-adv-x="1045" 
d="M1005 355q0 -104 -50 -186q-41 -67 -106 -111q-53 -36 -96 -42q-116 -13 -151.5 -18t-35.5 -28q0 -8 7 -31q12 -37 25 -74q16 -59 16 -123q0 -22 -26 -33t-62 -11q-29 0 -68 17t-39 36q14 35 27 72q28 77 28 116q0 34 -112 71q-148 49 -209 96q-113 86 -113 239
q0 198 112 273q53 36 209 63q113 20 113 81q0 21 -27 104l-28 84q0 18 36.5 35.5t70.5 17.5q33 0 59.5 -7t39.5 -23q8 -9 -12 -70q-25 -71 -50 -141q0 -40 114 -74q155 -46 213 -88q115 -84 115 -245zM825 346q0 140 -61 214q-51 62 -129 62q-33 0 -44 -35.5t-11 -121.5
q0 -72 1 -130.5t2 -110.5v-17q0 -50 12 -78q21 -48 75 -48q76 0 117 79q38 73 38 186zM463 227q0 293 -9 344t-48 51q-91 0 -141 -71q-54 -77 -54 -206q0 -104 62 -181.5t135 -77.5q33 0 47 35q9 23 9 68q0 11 -0.5 20.5t-0.5 17.5z" />
    <glyph glyph-name="W" unicode="W" horiz-adv-x="1270" 
d="M1231 419q0 53 -45 161q-56 135 -125 135q-16 0 -76 -12q-20 -4 -39 -8l-38 -8q14 -41 65 -86q61 -55 81 -89q39 -65 39 -167q0 -101 -65 -183q-69 -86 -166 -86q-79 0 -125 66q-33 46 -33 83v241q4 25 7.5 50t7.5 50q7 51 10.5 88.5t3.5 60.5q-26 -2 -45.5 -4t-32.5 -4
q-81 -11 -90 -20q-4 -4 -4 -23q0 -1 27 -206q12 -92 12 -157q0 -93 -22 -140q-27 -58 -87 -58q-128 0 -204 67q-84 73 -84 212q0 99 49 157q27 31 89 66q48 25 48 46q0 16 -12 40t-30 24q-33 0 -106 -50q-81 -57 -136 -133q-67 -92 -67 -187q0 -144 75 -240
q84 -107 234 -107q77 0 173 44q16 7 35 18t42 26q19 0 77 -46t174 -46q131 0 253 125q130 133 130 300z" />
    <glyph glyph-name="c" unicode="X" horiz-adv-x="648" 
d="M608 42q0 -31 -23 -55t-49 -24q-55 0 -81 49t-67 49q-91 -26 -176 -47.5t-124 -21.5q-8 0 -25 15q-21 19 -21 39q0 57 76 104q70 40 141 80q76 54 76 128q0 26 -24.5 56.5t-45.5 30.5q-30 0 -101 -51q-35 -25 -58 -25q-21 0 -38.5 11.5t-17.5 26.5q0 44 98 88t98 69
q0 22 -90.5 36t-90.5 70q0 36 22 57q28 27 68 27q23 0 43 -60t64 -60q42 0 133 54q44 26 87 26q33 0 48.5 -9t15.5 -35q0 -56 -116.5 -94.5t-116.5 -62.5q0 -17 87 -56t87 -110q0 -60 -68 -106q-14 -9 -128 -65q-69 -34 -69 -62q0 -15 13.5 -27.5t29.5 -12.5q33 0 80 15
q103 33 152 33q111 0 111 -80z" />
    <glyph glyph-name="h" unicode="Y" horiz-adv-x="738" 
d="M698 84q0 -48 -21.5 -68.5t-61.5 -20.5q-57 0 -75.5 14.5t-18.5 54.5q0 24 4 57q11 90 11 132q0 54 -39 73q-30 15 -100 15q-22 0 -44.5 -0.5t-45.5 -0.5q-46 0 -69 -15q-31 -20 -31 -72l11 -189q0 -38 -36 -55q-26 -12 -68 -12q-34 0 -54 19t-20 48q0 12 10 159t10 155
q0 86 -6 160l-14 116q0 30 49 47q37 13 69 13q35 0 50 -22q12 -18 12 -54q0 -22 -7 -72t-7 -72q0 -36 13.5 -54.5t49.5 -18.5q28 0 64 -1.5t78 -2.5q66 0 92 17q33 21 33 83q-4 40 -5 61q-6 72 -6 76q0 35 19.5 47.5t53.5 12.5q54 0 77 -6.5t23 -21.5q-7 -75 -12.5 -140
t-5.5 -117z" />
    <glyph glyph-name="z" unicode="Z" horiz-adv-x="815" 
d="M758 -4q0 -49 -22 -67q-16 -13 -53 -13q-9 0 -18.5 0.5t-18.5 0.5q-62 0 -71 50.5t-72 50.5q-68 0 -162 -5q-43 -2 -170 -11q-40 -3 -79 -6q-19 0 -34 15q-18 18 -18 45q0 14 116 139q108 116 216 233q116 129 116 152q0 30 -23 40t-71 10q-30 0 -57 -2q-93 -7 -102 -7
q-67 0 -101 19q-42 24 -42 82q0 51 19 68q14 13 49 13q21 -1 33 -1q113 0 113 -50.5t38 -50.5h329q51 0 68 -8.5t17 -37.5q0 -21 -114 -136l-212 -212q-115 -120 -115 -151q0 -35 25.5 -49t73.5 -14q25 0 129 10q52 5 82 5q88 0 114 -32q17 -21 17 -80z" />
    <glyph glyph-name="G" unicode="[" horiz-adv-x="818" 
d="M777 413q0 -174 -109.5 -296.5t-276.5 -122.5q-114 0 -224 115q-127 132 -127 316q0 125 55 222q48 86 145 159q24 19 74 42l142 66q15 9 76 49q86 57 110 57q40 0 56 -14t16 -53q0 -32 -94.5 -71.5t-187.5 -76.5q-107 -45 -123 -77q-4 -8 8.5 -30t29.5 -22q40 13 87 24
t78 11q77 0 160 -71q105 -90 105 -227zM601 359q0 124 -52.5 198.5t-140.5 74.5q-68 0 -126 -73q-61 -77 -61 -176q0 -116 47 -188q58 -89 178 -89q87 0 127 97q28 67 28 156z" />
    <glyph glyph-name="backslash" unicode="\" horiz-adv-x="462" 
d="M440 76l-4 67l-15 54q-19 50 -46.5 77t-60.5 38q-22 11 -36 11q-6 2 -37 2l-47 -5q-10 -2 -19 -5.5t-19 -8.5q-37 -21 -63.5 -54t-37.5 -74q-8 -23 -10.5 -45t-2.5 -57q0 -110 58 -171q58 -62 141 -62l37 5l39 10q20 12 37 25t30 27q28 28 40 68l8 22q5 7 5 22zM238 284
q55 0 78 -61l10 -29l4 -22l6 -45v-51l-1 -39l-5 -50l-11 -45l-11 -24q-11 -24 -29 -31.5t-39 -7.5q-18 0 -34 14t-28 40t-19 62t-7 81q0 102 22 154q34 54 64 54zM74 779q23 32 65 32l30 -12l22 -20l21 -29l17 -29l-35 -68l-13 -28l-6 -19l-11 -38q-2 -8 -2 -32
q0 -15 2.5 -33t7.5 -39l13 -34l11 -21l15 -20l15 -15q12 -7 21 -7q37 0 55 54q13 25 15 42l6 37v44l-4 36l-9 40l-17 47l-22 52q17 31 43 44q29 21 46 21q14 0 24 -18t10 -57v-13l-2 -10q16 0 26.5 5.5t17 14.5t9.5 19.5t3 20.5q0 104 -81 104q-64 0 -120 -104
q-50 100 -121 100q-51 0 -79 -49q-7 -8 -10.5 -18t-5.5 -22l-5 -21v-15q0 -32 21 -52.5t45 -20.5l27 7l17 17l12 24q4 11 4 25q0 9 -5 19t-14.5 18.5t-24.5 14.5t-34 6z" />
    <glyph glyph-name="T" unicode="]" horiz-adv-x="1014" 
d="M974 588q0 -61 -42 -85q-28 -16 -71 -16q-17 1 -20 1q-46 0 -59 59.5t-66 59.5q-4 0 -20.5 1t-27.5 1q-41 0 -62 -10q-29 -14 -29 -51q0 -332 6 -488.5t14 -225t8 -79.5q0 -30 -25 -48t-66 -18q-54 0 -77 12q-29 15 -29 54q0 1 9 67.5t16.5 238t7.5 487.5q0 30 -12 41
q-20 18 -89 18q-97 0 -102 -59.5t-87 -59.5q-70 0 -90.5 17.5t-20.5 65.5q0 62 38 89q31 22 92 22q32 0 78 -6q107 -14 125 -14q34 0 51 10t17 36q0 53 -11 110.5t-22 116.5q0 47 39 63q24 10 77 10q33 0 55.5 -13.5t22.5 -38.5q-9 -61 -17 -123t-8 -81q0 -52 28 -74
q23 -18 71 -18q29 0 73 7q107 17 127 17q47 0 70 -19q28 -23 28 -77z" />
    <glyph glyph-name="j" unicode="^" horiz-adv-x="764" 
d="M691 115q0 90 -112 153l-104 48t-104 49q-111 61 -111 151q0 87 39 125q34 32 96 32q55 0 157 -32t122 -32q49 0 49 58q0 32 -132 52q-131 21 -269 21q-111 0 -196 -73q-86 -74 -86 -169q0 -97 126 -170q58 -26 116 -53t117 -53q125 -59 125 -124q0 -66 -31.5 -103.5
t-95.5 -37.5h-22q-67 0 -91 -16.5t-24 -48.5q0 -21 26 -36q21 -12 45 -12q17 0 94 23q106 33 173 83q93 69 93 165zM25 833h710q10 0 15.5 11.5t5.5 25.5t-5.5 25.5t-15.5 11.5h-710q-11 0 -16 -11.5t-5 -25.5t5 -25.5t16 -11.5z" />
    <glyph glyph-name="FL005Fh" unicode="_" horiz-adv-x="584" 
d="M528 422h-472v82h472v-82zM528 204h-472v82h472v-82z" />
    <glyph glyph-name="grave" unicode="`" horiz-adv-x="314" 
d="M294 600h-24l-240 300h152z" />
    <glyph glyph-name="FL0061h" unicode="a" horiz-adv-x="890" 
d="M853 42q0 -29 -29 -39.5t-96 -10.5q-121 0 -142 62q-10 30 -50 30q-74 -36 -131 -62q-64 -30 -117 -30q-63 0 -146 34q-102 42 -102 96q0 26 101 77q94 46 189 93q102 54 102 83q0 23 -35 97q-38 81 -70 106q-22 17 -107.5 21.5t-85.5 54.5q0 17 37 38.5t67 21.5
q127 0 182 -30q47 -26 82.5 -107.5t72.5 -170.5q53 -119 107 -238q24 -43 56 -57q21 -9 55 -9t43 -6q17 -11 17 -54zM531 168q0 57 -11 77q-16 29 -66 29q-55 0 -121 -48q-61 -44 -61 -71q1 -6 41.5 -30t47.5 -24q29 0 88.5 25t81.5 42z" />
    <glyph glyph-name="FL0062h" unicode="b" horiz-adv-x="682" 
d="M627 257q5 -18 7 -36.5t2 -34.5q0 -76 -50 -121q-42 -38 -115 -55q-31 -8 -108.5 -10t-193.5 -2h-45q-58 0 -70 7t-12 40v24v562q0 61 15 72t91 11h299q66 0 105 -40q36 -37 36 -91q0 -25 -9 -50t-28 -47q-74 -87 -74 -96q0 -14 32 -29q70 -33 90 -52.5t28 -51.5z
M410 527q1 5 1 13q0 46 -46.5 69.5t-119.5 23.5h-23q-11 -2 -15 -2v-217q120 0 168 41q28 24 35 72zM438 191q0 81 -76 107q-44 15 -155 15v-232h36q86 0 128 16q67 25 67 94z" />
    <glyph glyph-name="FL0063h" unicode="c" horiz-adv-x="844" 
d="M794 175q0 -63 -121 -127q-90 -48 -207 -48q-153 0 -269 73q-147 92 -147 264q0 50 22 114q36 105 113 166q105 84 277 84q106 0 219 -51t113 -98q0 -27 -26.5 -40t-91.5 -13q-50 0 -78 36q-61 78 -172 78q-119 0 -170 -94q-39 -72 -39 -199q0 -134 85 -195
q64 -46 160 -46q77 0 123.5 65.5t147.5 65.5q2 0 7.5 1t10.5 1q18 0 30.5 -7.5t12.5 -29.5z" />
    <glyph glyph-name="FL0064h" unicode="d" horiz-adv-x="1102" 
d="M1068 69q0 -24 -32 -52q-46 -41 -128 -41q-66 0 -108.5 36.5t-67.5 36.5q-28 -22 -101 -39.5t-188 -17.5h-187q-96 0 -150 23q-70 30 -70 97q0 45 24.5 67.5t62.5 22.5q48 0 90.5 -56.5t61.5 -56.5q32 0 65 63q37 78 75 156q46 86 59 110q26 49 38 84q6 20 6 34
q0 49 -98 53t-98 37q0 51 53 73q36 15 91 15q119 0 162 -36q40 -33 81 -154q94 -276 120 -343q23 -58 53 -84q25 -22 56 -22q23 0 51 11t59 24q10 0 15 -9.5t5 -31.5zM694 159q-30 88 -46 131q-51 132 -72 132q-17 0 -64 -80q-33 -55 -80 -149q-20 -41 -40 -81
q0 -43 120 -43q102 0 146 27q36 22 36 63z" />
    <glyph glyph-name="FL0065h" unicode="e" horiz-adv-x="846" 
d="M806 195q0 -66 -97 -130q-110 -73 -255 -73q-146 0 -252 71q-79 53 -127 141q-35 64 -35 102q0 3 -1.5 21.5t-1.5 26.5q0 78 21 141q32 95 107 149q98 70 262 70q87 0 183 -32q129 -43 152 -116q2 -10 2 -12q0 -17 -19.5 -26t-57.5 -9q-57 0 -118.5 59.5t-114.5 59.5
q-76 0 -149 -49q-85 -57 -85 -138q0 -32 24.5 -44t67.5 -12q69 9 141 15.5t127 6.5q26 0 36.5 -11.5t10.5 -37.5t-15 -35t-39 -9q-11 0 -20.5 1.5t-15.5 2.5q-57 0 -131 5t-127 5q-18 0 -35.5 -14.5t-17.5 -29.5q0 -107 99 -167q78 -47 168 -47q64 0 117.5 69.5t136.5 69.5
q12 1 21 1q16 0 27 -5t11 -20z" />
    <glyph glyph-name="FL0066h" unicode="f" horiz-adv-x="736" 
d="M696 -188q0 -45 -38 -75q-46 -36 -91 -36q-30 0 -45.5 16.5t-15.5 43.5q15 64 22 100q22 110 22 160q-5 20 -10 30q-16 30 -47 30q-25 0 -79 -39t-111 -39q-43 0 -97 29q-70 37 -112 101q-54 82 -54 194q0 80 66 175q56 80 135 143q73 58 109 58q20 0 34 -4q31 -9 31 -32
q0 -15 -12 -34q-28 -46 -133 -125q-74 -56 -74 -142q0 -96 67 -169.5t161 -73.5q84 0 107 52q19 44 19 199q0 86 -7 160q-9 61 -17 122q0 33 32 48.5t90 15.5q34 0 41 -12t7 -52v-411v-433z" />
    <glyph glyph-name="FL0067h" unicode="g" horiz-adv-x="660" 
d="M586 588v-29q0 -28 -12.5 -33t-79.5 -5q-39 0 -46 34q-15 74 -110 74q-79 0 -102 -23t-23 -105q0 -37 3 -104q8 -179 8 -279q0 -13 1 -33.5t1 -27.5q0 -32 -17.5 -44.5t-76.5 -12.5q-58 0 -75 13.5t-17 42.5q4 62 6 106q6 133 6 267q-1 26 -1 43q-3 128 -3 188
q0 40 168 51q78 5 165 5q26 0 49 -0.5t44 -0.5q71 0 96 -32q17 -21 17 -68q-1 -18 -1 -27z" />
    <glyph glyph-name="FL0068h" unicode="h" horiz-adv-x="800" 
d="M759 -156q0 -48 -98 -94q-106 -50 -234 -50q-27 0 -109 48q-91 54 -154 118q-79 81 -79 150q0 21 107 73q134 65 200 133q108 111 108 275q0 49 -34.5 89t-81.5 40q-126 0 -143 -116.5t-149 -116.5q-24 0 -38 12t-14 40q0 95 111 179q119 90 276 90q80 0 169 -65
q104 -76 104 -177q0 -68 -107 -172q-59 -58 -201 -165q-108 -82 -108 -92q0 -69 87 -154t151 -85q41 0 105.5 43.5t76.5 43.5q23 0 39 -11.5t16 -35.5z" />
    <glyph glyph-name="FL0069h" unicode="i" horiz-adv-x="398" 
d="M291 85q-1 25 -2 57t-3 71q-2 40 -3 69t-2 49t-1.5 39t-1.5 38q0 5 1.5 40t5.5 99q1 37 6 111q0 23 -10 36q-14 20 -48 20q-66 0 -105.5 -16t-39.5 -50q3 -18 5 -32t3 -25q4 -30 5.5 -54t1.5 -41q0 -83 -1 -147t-3 -111t-4.5 -85t-6.5 -68q0 -43 24 -65q30 -27 100 -27
q79 0 79 92z" />
    <glyph glyph-name="FL006Ah" unicode="j" horiz-adv-x="1130" 
d="M1091 -28q0 -31 -27.5 -44t-108.5 -13q-58 0 -63 27q-10 58 -159 58h-514q-24 0 -58 -2.5t-37 -2.5q-45 0 -62 21q-22 27 -22 102q0 38 18 46t81 8q98 0 101 -41.5t65 -41.5q34 0 127 103t93 136q0 28 -26 71q-19 32 -28 52q-41 95 -115 117q-57 5 -110 11t-53 64
q0 39 54 54q39 11 125 11q95 0 151 -63q28 -32 67 -119q28 -64 54 -64q44 0 82 71q61 113 78 133q61 71 158 71q12 0 29.5 -14t10.5 -32q-22 -60 -105 -128q-15 -12 -139 -102q-70 -51 -70 -75q0 -28 84.5 -154.5t103.5 -134.5q8 -3 22 -3t59.5 5.5t57.5 5.5q16 0 27 -3
q37 -11 43 -27.5t6 -102.5zM599 251q-34 -23 -74 -68q-46 -52 -54 -86q24 -7 52.5 -10t55.5 -3q40 0 65.5 3.5t53.5 9.5q-23 54 -49 91q-1 1 -50 63z" />
    <glyph glyph-name="FL006Bh" unicode="k" horiz-adv-x="823" 
d="M773 93q7 -40 -50 -66q-70 -32 -146 -32q-57 0 -121 82q-13 17 -101 154q-53 83 -81 83q-23 0 -31 -17.5t-8 -43.5q0 -7 1 -17t1 -12q0 -4 2 -42.5t2 -98.5q0 -37 -28 -60q-34 -28 -73 -28q-36 0 -54.5 12.5t-18.5 41.5q10 42 18 90t8 98q0 190 -16 294q-19 63 -37 126
q0 16 46.5 39.5t87.5 23.5q33 0 46 -10t13 -28q0 -13 -12 -47q-6 -17 -6 -23v-167q0 -24 17 -42t42 -18q30 0 71 86q59 124 89 162q69 87 167 87q43 0 43 -43q0 -26 -68 -88l-126 -110q-69 -64 -69 -94q35 -34 65 -69q44 -51 111 -141q38 -50 124.5 -50t91.5 -32z" />
    <glyph glyph-name="FL006Ch" unicode="l" horiz-adv-x="984" 
d="M943 77q0 -40 -59 -60q-51 -17 -137 -17q-83 0 -145 102q-29 47 -83 191q-39 103 -66 103q-41 0 -100 -102q-102 -178 -112 -191q-75 -103 -155 -103q-23 0 -34.5 12.5t-11.5 26.5q0 26 91 132q84 95 169 191q92 107 92 133q0 57 -17.5 77.5t-51.5 20.5q-14 0 -52 -6
t-59 -6q-14 0 -38 27q-28 31 -28 63q0 13 64 27q75 17 168 17q64 0 125 -82.5t136 -268.5q4 -10 56 -105q47 -87 54 -98q34 -39 114 -39t80 -45z" />
    <glyph glyph-name="FL006Dh" unicode="m" horiz-adv-x="878" 
d="M837 40q0 -16 -26 -27q-35 -15 -107 -15q-27 0 -34.5 10t-7.5 32q3 55 5.5 144t2.5 154q1 10 1 16q0 26 -5 40q-9 24 -30 24q-35 0 -82 -95t-110 -95q-53 0 -113 95t-84 95q-11 0 -18.5 -11t-7.5 -39v-11.5t1 -8.5q0 -97 3.5 -167.5t8.5 -140.5q0 -24 -24.5 -33t-83.5 -9
q-47 0 -63.5 8t-16.5 38q5 59 8 161.5t3 257.5q0 75 -5 115q-6 35 -12 71q0 35 45 51q34 12 89 12q33 0 81 -94q45 -88 90 -175q58 -95 113 -95q30 0 84 94q96 169 101 176q64 96 117 96q42 0 57 -16t15 -48q0 -19 -1 -29q-5 -52 -5 -56v-287q0 -62 4 -128t7 -110z" />
    <glyph glyph-name="FL006Eh" unicode="n" horiz-adv-x="758" 
d="M718 663q0 -43 -4 -207t-5.5 -231.5t-3.5 -148.5q0 -48 -30 -66q-21 -13 -66 -13q-10 0 -28 1t-25 1q-28 0 -95 131q-61 121 -121 243q-69 131 -101 131q-21 0 -28 -46q-3 -21 -3 -43v-11.5t1 -7.5l15 -330q0 -35 -34.5 -51t-93.5 -16q-28 0 -42 6.5t-14 26.5
q6 81 10.5 185t4.5 179q-12 226 -12 264q0 13 29 28q38 19 99 19q47 0 113 -100q57 -100 115 -200q68 -117 113 -145q11 -7 19 -7q13 0 19 16t6 38q0 31 -9 136t-18 218q0 23 31.5 37t103.5 14q21 0 37.5 -15.5t16.5 -35.5z" />
    <glyph glyph-name="FL006Fh" unicode="o" horiz-adv-x="920" 
d="M873 358q0 -57 -11 -100q-27 -106 -107 -173q-111 -93 -309 -93q-171 0 -271 69q-77 53 -109 144q-21 60 -21 126q1 25 1 27q0 155 115.5 255.5t284.5 100.5q171 0 296 -99q131 -104 131 -257zM684 325q0 170 -93 245q-62 50 -145 50q-99 0 -163 -85q-58 -77 -58 -210
q0 -70 48 -144q64 -99 173 -99q131 0 194 98q44 68 44 145z" />
    <glyph glyph-name="FL0070h" unicode="p" horiz-adv-x="980" 
d="M939 649q0 -32 -19 -43t-51 -11q-45 0 -57.5 -12.5t-12.5 -53.5v-32t1 -36q6 -76 9 -123q9 -142 9 -237q0 -64 -16 -81q-22 -24 -102 -24q-38 0 -51 32q-7 17 -7 53q6 61 9 98q9 112 9 183q0 140 -16 189.5t-59 49.5h-63t-57 1q-75 0 -103 -14.5t-28 -66.5
q0 -56 8.5 -184t17.5 -256q0 -59 -41 -76q-21 -9 -84 -9q-30 0 -43 28q-9 20 -9 57q6 89 11 200t5 153q0 77 -3 94q-10 59 -86 59q-31 0 -50.5 13.5t-19.5 32.5q0 34 18 57.5t52 23.5h759q27 0 48.5 -17t21.5 -48z" />
    <glyph glyph-name="FL0071h" unicode="q" horiz-adv-x="702" 
d="M662 269q0 -24 -23 -71q-31 -64 -83 -118q-67 -70 -162.5 -114t-185.5 -188q-29 -47 -101 -47q-30 0 -48.5 12t-18.5 38q0 68 119 121q205 92 223 104q120 81 120 214q0 68 -29 113q-33 52 -91 52q-135 0 -162 -89q-7 -84 -13 -167q-12 -90 -113 -90q-12 0 -16 29t-4 187
q0 52 -8 166.5t-17 238.5q0 13 -2 22.5t-3 17.5q0 8 10.5 11.5t39.5 3.5h38t34 1q32 0 41.5 -4t9.5 -20q0 -4 -3 -32t-3 -54v-177v-19v-12q3 -16 6 -31q44 34 101 60q64 29 139 29q87 0 152 -76q53 -62 53 -111z" />
    <glyph glyph-name="FL0072h" unicode="r" horiz-adv-x="645" 
d="M615 484q0 -97 -104 -158q-84 -49 -168 -49l-63 16q85 49 117 69q55 35 55 143q0 51 -45 83q-54 38 -117 38q-48 0 -69 -26q-16 -20 -16 -54q0 -14 2 -26t4 -20l-1 -728q0 -21 -27.5 -25t-142.5 -4q4 46 8 91q10 117 17.5 249.5t7.5 244.5v224q0 8 -4 24q-10 39 -10 53
q0 37 28 57q37 26 124 26q222 0 318 -61q86 -54 86 -167z" />
    <glyph glyph-name="FL0073h" unicode="s" horiz-adv-x="1308" 
d="M1258 382q0 -187 -108 -351q-99 -151 -259 -243t-316 -92q-72 7 -108 14q-108 21 -108 56q0 15 20.5 29.5t45.5 14.5q44 -18 100 -31t111 -13q36 0 127 39q100 43 169 94q84 62 84 111q0 11 -19 11q-10 0 -94 -17q-45 -9 -65 -9q-21 0 -34 5q-29 11 -85 53q-44 33 -83 33
q-75 -33 -143.5 -59.5t-133.5 -26.5q-113 0 -205 83q-104 94 -104 238q0 121 109 252t214 131q13 0 19 -11q16 -34 33 -68q-85 -44 -153 -124q-73 -86 -73 -154q0 -99 77 -171t182 -72q47 0 93 19q61 25 61 68q0 198 -15 315q-17 72 -33 145q0 20 27 28t73 8q26 0 49.5 -1
t45.5 -2q1 -7 -16 -119t-17 -131q0 -140 6 -188q11 -85 45 -124q39 -44 121 -44q86 0 148.5 78t62.5 191q0 128 -70 204q-59 54 -117 108q20 15 79.5 28t114.5 13q61 0 106 -141q36 -112 36 -177z" />
    <glyph glyph-name="FL0074h" unicode="t" horiz-adv-x="895" 
d="M855 605q0 -67 -26 -86q-17 -12 -77 -12q-63 0 -78 64.5t-86 64.5q-40 0 -59.5 -19.5t-19.5 -46.5v-346q0 -68 4.5 -106t10.5 -77q0 -26 -17.5 -34t-52.5 -8q-10 0 -19.5 0.5t-19.5 0.5q-36 0 -50 4q-24 7 -24 28l28 230q3 73 5.5 152t2.5 114q0 56 -14.5 82t-50.5 26
q-85 0 -102.5 -64.5t-94.5 -64.5q-46 0 -63 39q-12 28 -12 90q0 25 11 50q15 35 41 35h711q28 0 40 -23t12 -93z" />
    <glyph glyph-name="FL0075h" unicode="u" horiz-adv-x="860" 
d="M821 681q0 -25 -76 -125q-38 -51 -74.5 -99.5t-73.5 -96.5q-81 -111 -84 -134q-2 -23 -3 -32v-24q0 -57 5 -119t11 -131v-15v-8t1 -8q0 -31 -16 -43q-23 -17 -85 -17q-22 0 -41.5 12.5t-19.5 27.5q8 80 14.5 160t6.5 145q0 44 -32 117q-14 30 -33 64.5t-44 73.5
q-28 46 -92 135q-42 44 -94 54q-51 10 -51 32q0 20 38 40q49 25 136 25q47 0 107 -106q6 -11 29 -59.5t65 -136.5q50 -107 73 -107q24 0 67 106q30 73 52.5 122t38.5 74q65 107 141 107q14 0 24 -10t10 -24z" />
    <glyph glyph-name="FL0076h" unicode="v" horiz-adv-x="1045" 
d="M1005 355q0 -104 -50 -186q-41 -67 -106 -111q-53 -36 -96 -42q-116 -13 -151.5 -18t-35.5 -28q0 -8 7 -31q12 -37 25 -74q16 -59 16 -123q0 -22 -26 -33t-62 -11q-29 0 -68 17t-39 36q14 35 27 72q28 77 28 116q0 34 -112 71q-148 49 -209 96q-113 86 -113 239
q0 198 112 273q53 36 209 63q113 20 113 81q0 21 -27 104l-28 84q0 18 36.5 35.5t70.5 17.5q33 0 59.5 -7t39.5 -23q8 -9 -12 -70q-25 -71 -50 -141q0 -40 114 -74q155 -46 213 -88q115 -84 115 -245zM825 346q0 140 -61 214q-51 62 -129 62q-33 0 -44 -35.5t-11 -121.5
q0 -72 1 -130.5t2 -110.5v-17q0 -50 12 -78q21 -48 75 -48q76 0 117 79q38 73 38 186zM463 227q0 293 -9 344t-48 51q-91 0 -141 -71q-54 -77 -54 -206q0 -104 62 -181.5t135 -77.5q33 0 47 35q9 23 9 68q0 11 -0.5 20.5t-0.5 17.5z" />
    <glyph glyph-name="FL0077h" unicode="w" horiz-adv-x="1270" 
d="M1231 419q0 53 -45 161q-56 135 -125 135q-16 0 -76 -12q-20 -4 -39 -8l-38 -8q14 -41 65 -86q61 -55 81 -89q39 -65 39 -167q0 -101 -65 -183q-69 -86 -166 -86q-79 0 -125 66q-33 46 -33 83v241q4 25 7.5 50t7.5 50q7 51 10.5 88.5t3.5 60.5q-26 -2 -45.5 -4t-32.5 -4
q-81 -11 -90 -20q-4 -4 -4 -23q0 -1 27 -206q12 -92 12 -157q0 -93 -22 -140q-27 -58 -87 -58q-128 0 -204 67q-84 73 -84 212q0 99 49 157q27 31 89 66q48 25 48 46q0 16 -12 40t-30 24q-33 0 -106 -50q-81 -57 -136 -133q-67 -92 -67 -187q0 -144 75 -240
q84 -107 234 -107q77 0 173 44q16 7 35 18t42 26q19 0 77 -46t174 -46q131 0 253 125q130 133 130 300z" />
    <glyph glyph-name="FL0078h" unicode="x" horiz-adv-x="648" 
d="M608 42q0 -31 -23 -55t-49 -24q-55 0 -81 49t-67 49q-91 -26 -176 -47.5t-124 -21.5q-8 0 -25 15q-21 19 -21 39q0 57 76 104q70 40 141 80q76 54 76 128q0 26 -24.5 56.5t-45.5 30.5q-30 0 -101 -51q-35 -25 -58 -25q-21 0 -38.5 11.5t-17.5 26.5q0 44 98 88t98 69
q0 22 -90.5 36t-90.5 70q0 36 22 57q28 27 68 27q23 0 43 -60t64 -60q42 0 133 54q44 26 87 26q33 0 48.5 -9t15.5 -35q0 -56 -116.5 -94.5t-116.5 -62.5q0 -17 87 -56t87 -110q0 -60 -68 -106q-14 -9 -128 -65q-69 -34 -69 -62q0 -15 13.5 -27.5t29.5 -12.5q33 0 80 15
q103 33 152 33q111 0 111 -80z" />
    <glyph glyph-name="FL0079h" unicode="y" horiz-adv-x="738" 
d="M698 84q0 -48 -21.5 -68.5t-61.5 -20.5q-57 0 -75.5 14.5t-18.5 54.5q0 24 4 57q11 90 11 132q0 54 -39 73q-30 15 -100 15q-22 0 -44.5 -0.5t-45.5 -0.5q-46 0 -69 -15q-31 -20 -31 -72l11 -189q0 -38 -36 -55q-26 -12 -68 -12q-34 0 -54 19t-20 48q0 12 10 159t10 155
q0 86 -6 160l-14 116q0 30 49 47q37 13 69 13q35 0 50 -22q12 -18 12 -54q0 -22 -7 -72t-7 -72q0 -36 13.5 -54.5t49.5 -18.5q28 0 64 -1.5t78 -2.5q66 0 92 17q33 21 33 83q-4 40 -5 61q-6 72 -6 76q0 35 19.5 47.5t53.5 12.5q54 0 77 -6.5t23 -21.5q-7 -75 -12.5 -140
t-5.5 -117z" />
    <glyph glyph-name="FL007Ah" unicode="z" horiz-adv-x="815" 
d="M758 -4q0 -49 -22 -67q-16 -13 -53 -13q-9 0 -18.5 0.5t-18.5 0.5q-62 0 -71 50.5t-72 50.5q-68 0 -162 -5q-43 -2 -170 -11q-40 -3 -79 -6q-19 0 -34 15q-18 18 -18 45q0 14 116 139q108 116 216 233q116 129 116 152q0 30 -23 40t-71 10q-30 0 -57 -2q-93 -7 -102 -7
q-67 0 -101 19q-42 24 -42 82q0 51 19 68q14 13 49 13q21 -1 33 -1q113 0 113 -50.5t38 -50.5h329q51 0 68 -8.5t17 -37.5q0 -21 -114 -136l-212 -212q-115 -120 -115 -151q0 -35 25.5 -49t73.5 -14q25 0 129 10q52 5 82 5q88 0 114 -32q17 -21 17 -80z" />
    <glyph glyph-name="C" unicode="{" horiz-adv-x="818" 
d="M777 413q0 -174 -109.5 -296.5t-276.5 -122.5q-114 0 -224 115q-127 132 -127 316q0 125 55 222q48 86 145 159q24 19 74 42l142 66q15 9 76 49q86 57 110 57q40 0 56 -14t16 -53q0 -32 -94.5 -71.5t-187.5 -76.5q-107 -45 -123 -77q-4 -8 8.5 -30t29.5 -22q40 13 87 24
t78 11q77 0 160 -71q105 -90 105 -227zM601 359q0 124 -52.5 198.5t-140.5 74.5q-68 0 -126 -73q-61 -77 -61 -176q0 -116 47 -188q58 -89 178 -89q87 0 127 97q28 67 28 156z" />
    <glyph glyph-name="FL007Ch" unicode="|" horiz-adv-x="832" 
d="M793 337q0 17 -33 21t-111 4q24 30 37.5 58t13.5 52q0 100 -104 177q-89 65 -169 65q-158 0 -276 -90q-111 -84 -111 -179q0 -28 14 -40t38 -12q132 0 149 116q16 117 143 117q47 0 81 -40q35 -41 35 -89q0 -81 -24 -142h-15t-22 -1q-12 -1 -21 -1h-14q-3 0 -13.5 0.5
t-27.5 1.5q-35 3 -54 3q-33 0 -51 -9t-18 -32q0 -16 40 -20t128 -4h39q-48 -82 -144 -143q-44 -28 -149 -80q-69 -35 -69 -54q0 -69 79 -149q63 -64 154 -118q82 -48 109 -48q126 0 234 50q98 47 98 94q0 24 -16 35.5t-39 11.5q-13 0 -77 -43q-65 -44 -105 -44
q-65 0 -151 85q-87 85 -87 153q0 9 53 50q30 23 60 46.5t61 46.5q89 69 134 114l57 2q30 0 54.5 -2t56.5 -5q19 0 26 8.5t7 33.5z" />
    <glyph glyph-name="FL007Dh" unicode="}" horiz-adv-x="1014" 
d="M974 588q0 -61 -42 -85q-28 -16 -71 -16q-17 1 -20 1q-46 0 -59 59.5t-66 59.5q-4 0 -20.5 1t-27.5 1q-41 0 -62 -10q-29 -14 -29 -51q0 -332 6 -488.5t14 -225t8 -79.5q0 -30 -25 -48t-66 -18q-54 0 -77 12q-29 15 -29 54q0 1 9 67.5t16.5 238t7.5 487.5q0 30 -12 41
q-20 18 -89 18q-97 0 -102 -59.5t-87 -59.5q-70 0 -90.5 17.5t-20.5 65.5q0 62 38 89q31 22 92 22q32 0 78 -6q107 -14 125 -14q34 0 51 10t17 36q0 53 -11 110.5t-22 116.5q0 47 39 63q24 10 77 10q33 0 55.5 -13.5t22.5 -38.5q-9 -61 -17 -123t-8 -81q0 -52 28 -74
q23 -18 71 -18q29 0 73 7q107 17 127 17q47 0 70 -19q28 -23 28 -77z" />
    <glyph glyph-name="question" unicode="~" horiz-adv-x="0" 
d="M471 -150q0 27 -19 46t-46 19q-28 0 -46.5 -19.5t-18.5 -45.5q0 -27 19 -46t46 -19q28 0 46.5 19.5t18.5 45.5z" />
    <glyph glyph-name="nonbreakingspace" unicode="&#xa0;" horiz-adv-x="278" 
 />
    <glyph glyph-name="exclamdown" unicode="&#xa1;" horiz-adv-x="960" 
d="M244 481q-45 0 -69 -56.5t-24 -168.5l2 -46l5 -41q7 -38 18 -68q31 -60 70 -60q47 0 75 46t28 169l-2 51l-5 45q-7 43 -18 70q-30 59 -80 59zM0 750v50h960v-50h-960zM607 479h-224q38 -33 59 -87.5t21 -135.5q0 -28 -5 -55.5t-14 -52t-21 -45t-25 -35.5q-31 -31 -70 -49
t-81 -18l-45 4l-42 12q-66 29 -96.5 90t-32.5 149q0 51 14.5 103.5t41.5 88.5q31 40 70 58q35 20 90 20l487 -1q116 0 183 -118l-86 -59q-28 139 -97 139q-30 -3 -49.5 -15t-31.5 -39q-9 -15 -11 -29l-6 -30l-4 -14v-18l-1 -27l-1 -55l2 -62l5 -49l11 -39l9 -27
q14 -23 33 -31.5t44 -8.5l30 4l19 9q19 16 25 40l9 36l14 58l86 -54q-4 -7 -7 -13t-7 -12q-11 -20 -18 -30q-13 -14 -23 -24.5t-18 -17.5q-19 -17 -47 -28q-8 -4 -15.5 -6.5t-14.5 -3.5l-18 -1h-13q-103 0 -162.5 68t-59.5 192q0 86 24 137.5t69 81.5z" />
    <glyph glyph-name="cent" unicode="&#xa2;" horiz-adv-x="856" 
d="M455 288q51 0 86 51q21 33 27 55q7 18 7 34l1 26q0 66 -40 118q-39 52 -96 52q-29 0 -51 -16q-21 -18 -39 -45q-14 20 -32 26l-32 13q-15 5 -23 5q-16 0 -19 -17q7 -15 13 -21q17 -14 20 -23q7 -8 8 -24l3 -30v-591l-11 7l-7 1h-6q-13 -7 -16 -13l-3 -15
q0 -25 20.5 -42.5t47.5 -17.5q14 0 25 6l21 16q19 22 19 52v424l32 -19q24 -12 45 -12zM375 404v105q0 21 14 41q16 19 34 19q25 0 42.5 -18t17.5 -39v-104q0 -23 -18 -41t-38 -18q-25 0 -38.5 15.5t-13.5 39.5zM389 31l-52 4l-51 12l-49 18l-40 18l-15 10l-15 10
q19 16 31 54q15 39 15 78l-4 56l-6 23l-8 22q-11 23 -27 32q-14 11 -35 11q-43 0 -67 -44t-24 -90v-8q0 -24 20 -72q21 -46 36 -61l-11 -12l-12 -10q-6 -6 -12 -11t-13 -9l-23 -12q-4 -2 -10.5 -5t-16.5 -5l13 -40q40 9 62 21l40 25l13 10l9 7l46 -30l36 -19l48 -17
q48 -19 108 -19q41 0 120 17l61 16l49 17l38 15l30 13l8 -7l16 -13l19 -15l21 -11l23 -9l10 -3l16 -1l7 40l-12 4l-10 5l-19 10l-24 17l-13 9l-7 7q11 16 21 32.5t18 35.5l18 47q5 12 5 33q0 55 -17 100q-18 41 -57 41q-48 0 -74 -47q-25 -46 -25 -106q0 -36 14 -78
q14 -25 22 -38.5t10 -15.5l-60 -21l-19 -8l-22 -6l-25 -8l-28 -6l-53 -10z" />
    <glyph glyph-name="sterling" unicode="&#xa3;" horiz-adv-x="1100" 
d="M182 86q-78 -69 -163 -85l-11 11q-3 9 -3 27l16 4l38 12q20 7 47 24q24 13 44 39l-33 66l-14 35l-12 36l-6 17l-3 17l-1 38l1 23l4 23l8 31l15 38l14 26l14 20l18 23q16 16 27 16q14 0 31 -20l17 -23l15 -26l15 -31q6 -14 12 -42q7 -18 7 -29l1 -29q0 -89 -63 -203
q48 -30 117 -48l77 -16l25 -3l26 -2h20l83 2l70 10q75 18 129 54q-54 99 -54 204l2 30l6 35l6 25l13 38q19 42 26 50l28 24q11 -3 29 -24q22 -22 37 -52l16 -32l13 -32q12 -36 12 -63q0 -83 -60 -209l30 -26l27 -20l33 -18l18 -8l22 -6l-7 -14l-10 -22l-39 8l-18 6
q-11 5 -20.5 10.5t-17.5 11.5l-21 18l-28 29q-29 -23 -77 -40.5t-106 -26.5l-26 -4l-37 -4l-61 -3q-65 0 -125 6l-60 11l-51 15q-52 18 -82 48zM705 527l-46 -46l-21 25l-15 16q-4 7 -12 10l-14 7q-24 6 -44 6q-41 0 -70.5 -35t-29.5 -114h196v-82h-196q0 -72 26 -113
t78 -41q27 0 49 11.5t49 53.5l44 -51l-31 -34l-18 -15l-15 -10q-13 -10 -30 -13q-15 -5 -26 -5l-22 -1l-44 4l-42 12q-55 31 -78 50q-38 40 -57.5 84t-19.5 108q0 51 22 105q23 55 53.5 88t72.5 51q45 20 92 20q18 0 39 -6l44 -16q45 -23 66 -69z" />
    <glyph glyph-name="FL00A4h" unicode="&#xa4;" 
d="M30 524q28 0 46 -6l16 -8q21 -11 52 -54q22 29 55.5 47.5t69.5 18.5q42 0 79.5 -13.5t61.5 -43.5q26 -31 38 -73q8 -16 11 -48l3 -60q0 -147 -39 -215.5t-108 -68.5l-39 3l-35 14l-16 11l-16 14l-18 20l-18 27v-417l-4 -27l-12 -28q-17 -28 -39 -41l-65 77q30 34 30 59
v717l-3 22l-8 20l-17 23zM268 470q-48 0 -71.5 -20.5t-23.5 -54.5v-229l4 -14l7 -13l24 -31q14 -14 32.5 -25.5t37.5 -11.5q28 0 51.5 25.5t32.5 86.5q7 32 7 101q0 52 -7 86t-21 56q-29 44 -73 44zM3 -141v40h500v-40h-500z" />
    <glyph glyph-name="X" unicode="&#xa5;" horiz-adv-x="775" 
d="M735 519q0 -48 -8 -60.5t-35 -12.5h-24q-38 0 -43 31q-11 68 -115 68q-33 0 -49.5 -16.5t-16.5 -39.5v-623q0 -30 -11 -38t-46 -8q-38 0 -49 13q-7 8 -7 33v623q0 23 -14.5 39.5t-38.5 16.5q-112 0 -118 -49.5t-57 -49.5q-40 0 -51.5 24.5t-11.5 74.5q0 22 9 42
q13 29 35 29h247q0 41 -0.5 79.5t-0.5 73.5q0 152 26 188.5t142 36.5q115 0 160.5 -31t45.5 -115q0 -87 -56 -114q-39 -19 -145 -19h-60v-99h248q23 0 33.5 -19.5t10.5 -77.5zM575 856q0 31 -30 71h-80v-146h80q30 40 30 75z" />
    <glyph glyph-name="brokenbar" unicode="&#xa6;" horiz-adv-x="1701" 
d="M0 600v45h585l8 39l15 46q21 42 45 69q28 28 63.5 43t80.5 15l16 -1l19 -4l35 -10q45 -19 64 -38q27 -21 50 -63q22 -32 29 -96h590v-45h-587v-13q0 -62 -18 -105q-14 -27 -25 -43.5t-22 -25.5q-29 -29 -71 -41t-80 -12q-37 0 -88 13q-41 15 -69 39q-59 53 -59 175v13
h-581zM1103 524q28 0 46 -6l16 -8q21 -11 52 -54q22 29 55.5 47.5t69.5 18.5q42 0 79.5 -13.5t61.5 -43.5q26 -31 38 -73q8 -16 11 -48l3 -60q0 -147 -39 -215.5t-108 -68.5l-39 3l-35 14l-16 11l-16 14l-18 20l-18 27v-417l-4 -27l-12 -28q-17 -28 -39 -41l-65 77
q30 34 30 59v717l-3 22l-8 20l-17 23zM610 300h238l12 -30h-84q27 -22 31 -29q12 -14 21 -36l166 -337q20 -32 53 -32q23 0 43 12q-6 -21 -30 -48t-54 -27q-33 0 -58 22q-24 18 -59 75l-53 -43l-24 -17q-12 -9 -21 -12q-40 -25 -92 -25q-48 0 -80 41t-32 92l3 20l8 29
q19 42 50 73l43 40l37 29l30 22l11 8l-27 67q-20 45 -57 76h-64zM12 520h507v-51h-77v-351q0 -27 38 -53l-78 -66q-34 25 -47 45q-13 22 -13 53v373h-152v-373l-3 -27l-7 -24q-17 -33 -44 -46l-77 54q17 8 23.5 21t6.5 37v358h-77v50zM1341 470q-48 0 -71.5 -20.5
t-23.5 -54.5v-229l4 -14l7 -13l24 -31q14 -14 32.5 -25.5t37.5 -11.5q28 0 51.5 25.5t32.5 86.5q7 32 7 101q0 52 -7 86t-21 56q-29 44 -73 44zM900 587v13h-199v-13l2 -49l5 -39q9 -35 21 -57q34 -42 67 -42q43 0 73.5 48t30.5 139zM725 -181q26 0 56 14l8 4l5 3l26 20
l24 21l28 21l-66 145q-49 -33 -91 -75q-39 -41 -39 -77q0 -28 12 -52q19 -24 37 -24zM794 812q-75 0 -90 -167h193l-5 34l-6 24l-13 37l-11 23q-18 26 -36.5 37.5t-31.5 11.5z" />
    <glyph glyph-name="section" unicode="&#xa7;" horiz-adv-x="556" 
d="M70 -32l88 13q18 -67 45 -91q33 -24 80 -24q25 0 45 7.5t33.5 20t20.5 27.5t7 30q0 25 -17.5 44.5t-56.5 46.5l-48 33l-62 39l-62 40l-39 30q-32 29 -48 59q-16 33 -16 71q0 48 29 86t80 53q-17 19 -29.5 34t-19.5 27q-14 25 -14 60q0 62 49 108t130 46q91 0 143 -44
t61 -125l-92 -10q-18 67 -38 84q-23 23 -67 23l-22 -2l-19 -5l-37 -22q-11 -10 -16.5 -23t-5.5 -26q0 -26 18 -47q29 -35 149 -107l62 -39l42 -30q37 -34 52 -64t15 -64q0 -54 -35 -95q-27 -23 -76 -45q78 -68 78 -135q0 -19 -4 -33t-12 -31q-17 -33 -40 -50
q-26 -23 -62 -35q-14 -8 -24 -8l-13 -1l-24 -2h-15q-94 0 -148 45.5t-65 130.5zM355 119q40 21 55 45q17 25 17 46q0 28 -25 59l-23 22l-19 15l-30 22l-38 24l-59 37l-41 30q-39 -23 -56 -45.5t-17 -49.5q0 -31 24 -62q27 -31 100 -71l60 -37z" />
    <glyph glyph-name="dieresis" unicode="&#xa8;" horiz-adv-x="1200" 
d="M326 357q-17 -64 -28 -81q-12 -18 -36 -18q-29 0 -51 31q-10 16 -13 37q-5 10 -5 19v21l-1 38q0 70 19 115q20 38 51 38q46 0 64 -94l58 40q-49 79 -122 79q-16 0 -57 -10q-45 -16 -67.5 -59t-24.5 -109q0 -83 41 -130q43 -45 110 -45q44 0 75 28q32 35 45 64zM476 512
q11 17 20 20q8 5 27 5l20 -8l18 -16l15 -20l12 -20l-24 -52l-14 -35l-9 -26l-2 -23l2 -27l5 -26l9 -23l8 -16l20 -24q11 -8 19 -8q27 10 40 38q7 18 10 41l6 49q0 18 -11 57l-27 72q12 22 32 33q22 14 33 14q11 -3 17 -15t6 -39v-18q23 0 31 18q9 19 9 28q0 75 -58 75
q-49 0 -88 -75q-38 72 -88 72q-18 0 -33.5 -10.5t-24.5 -24.5l-7 -14q-4 -7 -4 -14l-3 -27q0 -23 14 -40q16 -14 32 -14q21 0 33.5 17t12.5 37q0 11 -14.5 25t-43.5 14zM880 506q19 -4 32 -23l17 -25l21 -38l17 -29l24 -37q19 -22 37 -22v-119h76v272q18 30 18 38l-44 43
q-32 0 -41 -11t-9 -18v-157q-15 0 -30 21l-45 68l-26 37l-27 36q-24 24 -42 24q-26 0 -40 -11q-10 -13 -10 -38v-238q-21 -21 -21 -32l54 -34q23 0 29 8q10 7 10 25v260zM466 757l2 -36l6 -28q8 -27 27 -50q34 -43 99 -43q28 0 49 8t36.5 21.5t25 30.5t13.5 36q7 18 7 29
l1 32h29v44h-25l-4 33l-8 28q-12 28 -30.5 49.5t-43.5 31.5q-26 12 -57 12q-30 0 -54 -12t-40 -33t-24.5 -49t-8.5 -60h-33v-44h33zM542 801q0 68 12 95q19 28 41 28q22 -3 31 -9q11 -5 17 -21q8 -16 8 -34l3 -59h-112zM542 757h112l-4 -66l-10 -39q-11 -17 -19 -20l-22 -3
q-27 0 -42 29.5t-15 98.5zM600 -134l36 -24l16 -8q21 -10 56 -10q29 0 50.5 14.5t36.5 39.5q18 24 24 57q8 24 8 67l-2 29l-5 26q-6 27 -15 43q-14 23 -29.5 42t-31.5 33l-43 -49l9 -9l21 -21l6 -8l10 -13l8 -10q7 -10 7 -26l2 -10v-11v-16q0 -28 -6 -53q-19 -58 -46 -74
q-26 -12 -44 -12l-25 8l-21 22l18 38l13 29l6 28l2 11v11v15v7l-2 25l-5 27l-17 49l-10 21l-10 15q-11 14 -18 14q-13 -7 -15 -14l-12 -23l-9 -22q-10 -18 -16 -54l-6 -49l2 -32l7 -29l12 -31l19 -36q-11 -17 -26 -23.5t-35 -6.5q-20 5 -31.5 13.5t-22.5 26.5
q-14 18 -20 42.5t-6 56.5l1 29l4 23l9 18l9 14l15 18l21 22l-39 50q-27 -24 -42 -48l-15 -24l-10 -21q-10 -18 -13 -42l-3 -39q0 -42 9 -75q8 -22 15.5 -36.5t13.5 -22.5q19 -24 39 -33q20 -11 38 -11l32 3l26 7q30 15 50 32z" />
    <glyph glyph-name="copyright" unicode="&#xa9;" horiz-adv-x="737" 
d="M370 728q90 0 182 -51q93 -50 139 -137q47 -86 47 -181q0 -88 -50 -180q-49 -91 -136 -139q-86 -47 -182 -47q-98 0 -187 50q-89 49 -135 135q-47 86 -47 181t50 187q51 91 138 136q88 46 181 46zM370 667l-38 -3q-22 -3 -41 -9l-39 -12l-33 -15q-32 -19 -64 -48
q-17 -17 -30 -34t-21 -33q-41 -73 -41 -154l3 -41l7 -37q10 -32 30 -74q40 -76 115 -116q75 -39 152 -39l41 3l37 7q32 10 74 30q78 45 116.5 115.5t38.5 151.5q0 42 -11 79.5t-32 74.5q-43 75 -114 114.5t-150 39.5zM488 300l60 -18q-21 -66 -66 -100t-111 -34
q-42 0 -81 15q-39 16 -60 40q-26 30 -39 66q-8 18 -11 41l-3 48q0 100 54 154t144 54q66 0 108.5 -30.5t57.5 -84.5l-58 -14q-23 45 -44 55q-26 20 -66 20q-29 0 -52.5 -11.5t-40.5 -31.5t-26.5 -49t-9.5 -63q0 -71 35 -112q37 -39 88 -39q45 0 78.5 24.5t42.5 69.5z" />
    <glyph glyph-name="FL00ABh" unicode="&#xab;" horiz-adv-x="564" 
d="M536 60v-67l-508 229v62l508 230v-68l-425 -193z" />
    <glyph glyph-name="bracketleft" unicode="&#xac;" horiz-adv-x="333" 
d="M299 693h-90q-23 0 -34 -10t-11 -34v-736q0 -26 12 -39t37 -13h86v-25h-211v882h211v-25z" />
    <glyph glyph-name="bracketright" unicode="&#xad;" horiz-adv-x="333" 
d="M34 -139h90q23 0 34 10t11 34v736q0 26 -12 39t-37 13h-86v25h211v-882h-211v25z" />
    <glyph glyph-name="paragraph" unicode="&#xb6;" horiz-adv-x="453" 
d="M455 635h-65v-851h-36v851h-91v-851h-35v510q-87 0 -136.5 23t-74 64.5t-24.5 97.5q0 53 21 88q31 49 77 72t122 23h242v-27z" />
    <glyph glyph-name="periodcentered" unicode="&#xb7;" horiz-adv-x="278" 
d="M90 302v100h100v-100h-100z" />
    <glyph glyph-name="onesuperior" unicode="&#xb9;" horiz-adv-x="611" 
d="M0 317l26 -28l373 373l-28 28zM110 205l29 -28l372 372l-28 29z" />
    <glyph glyph-name="greater" unicode="&#xbb;" horiz-adv-x="564" 
d="M28 60l425 193l-425 193v68l508 -230v-62l-508 -230v68z" />
    <glyph glyph-name="onequarter" unicode="&#xbc;" horiz-adv-x="530" 
d="M157 593h146v-126h124v-136h-124v-331h-146v331h-124v136h124v126zM175 575v-126h-124v-100h124v-331h110v331h124v100h-124v126h-110zM197 552h66v-126h123v-54h-123v-332h-66v332h-124v54h124v126z" />
    <glyph glyph-name="onehalf" unicode="&#xbd;" horiz-adv-x="985" 
d="M308 286l-21 -14l-18 -9l-30 -11l-27 64q-13 22 -48 22q-38 0 -53 -26q-2 -5 -4 -9t-3 -9q-2 -10 -2 -44v-118q0 -38 10 -59q14 -23 52 -23t46 41l2 13v12l4 22h77v-52q-30 -45 -57 -62q-41 -24 -79 -24q-70 0 -115 69q-41 62 -41 125v14l5 29l8 28q14 36 40 65
q47 57 99 61h226v44h-379v35h379v296h-60v30h344q38 0 74 -46q37 -44 37 -105q0 -58 -26 -90q-24 -27 -72 -36q-36 -6 -80 -6h-105v-43h399v-34h-400v-45l249 -1l28 -6l25 -8q29 -20 42 -37l45 -53l-22 -14l-18 -9l-29 -11l-27 64q-13 22 -49 22q-37 0 -52 -26l-6 -20
q-4 -9 -4 -27l-2 -22v-18l1 -40l1 -53q0 -43 12 -62q14 -20 50 -20q39 0 47 41l2 13v12l4 22h77v-52q-30 -45 -57 -62q-42 -24 -79 -24q-71 0 -116 69q-40 61 -40 125v14l5 29l8 28q14 34 39 65l17 19l18 16h-168v-441h81v-30h-273v30h81v441h-142l23 -23zM501 554h122v5
q17 10 28.5 36.5t11.5 59.5q0 15 -3.5 30t-9.5 28t-13 23t-14 15v5h-122v-202z" />
    <glyph glyph-name="threequarters" unicode="&#xbe;" horiz-adv-x="720" 
d="M409 806q-62 0 -62 -55v-164l6 -17l13 -17q8 -8 24 -14t26 -6q30 0 49 31t19 108l-1 28l-4 39l-16 40q-13 19 -25 22q-15 5 -29 5zM347 376h133h27l24 1l17 1h9q83 0 132 -85l-62 -43q-20 101 -70 101q-19 -3 -34 -9q-9 -7 -15 -13.5t-10.5 -14t-7 -18t-5.5 -25.5l-4 -20
v-25v-39v-33l6 -48l14 -46q11 -17 28 -23t28 -6q47 0 53 38l7 26l10 42l62 -39q-22 -45 -52 -71.5t-78 -26.5q-76 0 -118 50t-42 137q0 104 55 153h-107v-397q0 -15 -3 -24l-7 -19q-26 -26 -35 -30l-44 53q21 22 21 49v368h-140l-17 -22q-11 -14 -12.5 -29t-1.5 -35l6 -10
l17 -23l24 -25l27 -28q30 -28 48.5 -53.5t18.5 -42.5q0 -33 -25 -52.5t-82 -19.5q-40 0 -62 28l29 3l30 10q32 15 32 36q-7 15 -35 47l-31 39l-25 33q-22 31 -22 47q0 42 49 97h-78v36h250v34h-254v36h254v331l-7 30l-13 15l-18 22q29 0 42 -10l14 -14l20 -23q21 31 35 36
q21 10 57 10l31 -3l28 -7q35 -15 45 -28q15 -13 20 -25q7 -14 12 -30q11 -30 11 -73t-9 -81.5t-22 -61.5q-32 -53 -82 -53q-26 0 -47 9q-19 14 -29.5 23t-19.5 18v-85h344v-36h-344v-34z" />
    <glyph glyph-name="P" unicode="&#xbf;" horiz-adv-x="1008" 
d="M585 780l-81 81l-81 -81l81 -81zM692 716l-30 30l-151 -153h-13l-153 153l-30 -30l189 -189zM538 780l-34 -34l-34 34l34 34zM423 8l81 -80l81 80l-81 81zM316 72l30 -30l151 153h13l153 -153l30 30l-189 189zM470 8l34 34l34 -34l-34 -33zM119 467l-81 -81l81 -81l81 81
zM183 574l-30 -30l153 -151v-13l-153 -153l30 -30l189 189zM119 420l34 -34l-34 -34l-34 34zM891 305l81 81l-81 81l-81 -81zM827 198l30 30l-153 151v13l153 153l-30 30l-189 -189zM891 352l-34 34l34 34l34 -34z" />
    <glyph glyph-name="quotedblbase" unicode="&#xc7;" horiz-adv-x="398" 
d="M398 890q0 -25 -16.5 -43.5t-41.5 -18.5t-43.5 17.5t-18.5 41.5q0 26 16.5 43.5t41.5 17.5t43.5 -16.5t18.5 -41.5zM120 890q0 -25 -16.5 -43.5t-41.5 -18.5t-43.5 17.5t-18.5 41.5q0 26 16.5 43.5t41.5 17.5t43.5 -16.5t18.5 -41.5z" />
    <glyph glyph-name="Egrave" unicode="&#xc8;" horiz-adv-x="314" 
d="M30 600l112 300h152l-240 -300h-24z" />
    <glyph glyph-name="currency" unicode="&#xc9;" horiz-adv-x="0" 
d="M364 894q-27 0 -46 -19t-19 -46t19 -46t46 -19t46 19t19 46t-19 46t-46 19z" />
    <glyph glyph-name="numbersign" unicode="&#xca;" horiz-adv-x="388" 
d="M348 -256v48l-308 -201v-48zM347 -97l1 48l-309 -201v-48z" />
    <glyph glyph-name="FL00CBh" unicode="&#xcb;" horiz-adv-x="0" 
d="M31 849h943q10 0 15.5 11.5t5.5 25.5t-5.5 25.5t-15.5 11.5h-943q-11 0 -16 -11.5t-5 -25.5t5 -25.5t16 -11.5zM30 976h943q10 0 15.5 11.5t5.5 25.5t-5.5 25.5t-15.5 11.5h-943q-11 0 -16 -11.5t-5 -25.5t5 -25.5t16 -11.5z" />
    <glyph glyph-name="FL00CCh" unicode="&#xcc;" horiz-adv-x="0" 
d="M31 849h943q10 0 15.5 11.5t5.5 25.5t-5.5 25.5t-15.5 11.5h-943q-11 0 -16 -11.5t-5 -25.5t5 -25.5t16 -11.5zM30 976h943q10 0 15.5 11.5t5.5 25.5t-5.5 25.5t-15.5 11.5h-943q-11 0 -16 -11.5t-5 -25.5t5 -25.5t16 -11.5zM31 1100h943q10 0 15.5 11.5t5.5 25.5
t-5.5 25.5t-15.5 11.5h-943q-11 0 -16 -11.5t-5 -25.5t5 -25.5t16 -11.5z" />
    <glyph glyph-name="FL00CDh" unicode="&#xcd;" horiz-adv-x="0" 
d="M31 -314h943q10 0 15.5 11.5t5.5 25.5t-5.5 25.5t-15.5 11.5h-943q-11 0 -16 -11.5t-5 -25.5t5 -25.5t16 -11.5z" />
    <glyph glyph-name="Icircumflex" unicode="&#xce;" horiz-adv-x="1015" 
d="M567 80q-15 -18 -33.5 -33t-38.5 -25.5t-40 -16t-38 -5.5q-43 0 -84 24t-67 78l-13 28q-4 6 -7 26q-5 18 -5 34l-1 28l3 41l7 37q10 35 30 77q46 81 103 118.5t111 37.5q42 0 81 -24q42 -24 66 -66l17 76h87l-70 -327l-15 -76q4 -10 6.5 -15.5t4.5 -7.5q16 -9 23 -9
q24 0 68 29q35 26 51 46q23 26 38 59l15 32l8 28q7 25 7 38q2 8 2 21v17q0 42 -13 82.5t-30 69.5q-22 36 -54 64.5t-71.5 49t-85 31.5t-95.5 11q-46 0 -112 -17q-64 -17 -101 -39q-51 -32 -81 -64q-21 -21 -36 -42q-9 -11 -14 -21l-12 -24q-52 -100 -52 -214
q0 -64 13 -114.5t39 -93.5q52 -83 152 -124q102 -41 217 -41q55 0 116 13q63 13 99 30q60 34 75 47q22 20 35.5 34t18.5 21h88l-23 -33l-12 -18q-21 -27 -51 -51q-32 -27 -67 -48.5t-76.5 -36t-91.5 -22.5t-110 -8q-89 0 -153 15l-73 23q-33 12 -60 27q-58 29 -100.5 74
t-66.5 99q-41 87 -41 199q0 42 13 110q15 66 36 117q63 135 170 204t265 69q120 0 216.5 -49t153.5 -148q27 -45 36 -90q3 -10 5 -16t2.5 -10t1 -7.5t0.5 -9.5q0 -2 0.5 -5.5t1.5 -8.5v-16v-21q0 -142 -100 -251q-88 -97 -194 -97q-65 0 -85 38q-6 12 -9 42zM331 212
q0 -23 8 -60q10 -26 24 -46q12 -15 33 -26q21 -9 39 -9q21 0 57 16q33 20 61 51t43 79q10 27 12 42l5 34v24q0 34 -8.5 58.5t-24.5 43.5q-13 19 -36 28q-19 10 -44 10q-27 0 -57.5 -16.5t-54.5 -51.5l-24 -40l-18 -46q-4 -10 -6.5 -19.5t-3.5 -17.5l-5 -28v-26z" />
    <glyph glyph-name="Eth" unicode="&#xd0;" horiz-adv-x="469" 
d="M117 337h-91l173 391h71l173 -391h-89l-120 291z" />
    <glyph glyph-name="ampersand" unicode="&#xd1;" horiz-adv-x="667" 
d="M475 84q-85 -94 -205 -94q-111 0 -175 72q-52 61 -52 135q0 134 170 214l-40 50l-24 40q-10 18 -13 35l-3 32q0 65 53 112q54 48 125 48q72 0 119 -45q47 -44 47 -108q0 -102 -135 -174l128 -164q22 41 34 100l92 -20q-16 -51 -32 -89.5t-32 -64.5q49 -66 112 -110
l-59 -68l-54 40zM296 458q28 16 46 30.5t28 28t13.5 27.5t3.5 29q0 36 -24 59.5t-57 23.5q-35 0 -59 -27q-24 -26 -24 -52q0 -34 34 -74zM420 154l-161 200q-73 -46 -97 -82t-24 -69q0 -43 34 -92q36 -46 99 -46l20 2l21 5q16 7 26.5 11.5t15.5 7.5l37 28q17 17 29 35z" />
    <glyph glyph-name="Udieresis" unicode="&#xdc;" horiz-adv-x="956" 
d="M303 825q-121 -31 -187 -124q-72 -99 -72 -192l4 -49l9 -47q18 -49 45 -82q29 -33 76.5 -48t113.5 -15l-34 -185l-8 -41l-3 -22q12 -9 41 -15l27 -3l8 2l9 3l18 118l18 120l23 132l-58 -10l-45 -3q-63 0 -98 29q-46 43 -46 105l1 18q9 73 63 142q59 74 125 74q5 2 5 10
q0 11 -9 38l-19 34zM483 750q-6 -11 -6 -55l6 -37q4 -9 10 -6q44 22 83 22q21 0 39 -6q54 -27 63 -77l2 -25q0 -52 -36 -122q-26 -48 -69 -96.5t-104 -97.5q43 -55 106 -82l66 -24l33 -10l32 -7q66 -15 114 -15l53 2q24 15 24 48q0 17 -6 38q-9 3 -95 3q-91 0 -192 56
q138 99 168 204q15 58 15 97q0 49 -18 91q-36 81 -117 114q-30 13 -69 13q-47 0 -102 -28z" />
    <glyph glyph-name="Yacute" unicode="&#xdd;" horiz-adv-x="692" 
d="M211 819l-9 -37l-17 -93l-23 -130l-24 -142l-24 -142l-21 -129q-21 -123 -17 -127q6 -11 45 -11q40 0 46 11l10 54l24 132l77 26l62 24q55 23 98 78l25 34l22 35q24 39 45 90l55 126l69 170q0 18 -35 26l-20 4h-10q-14 0 -15 -6l-66 -157l-56 -117l-25 -46l-23 -39
l-20 -31l-21 -25q-35 -47 -72 -59l-35 -12l-19 -6q-6 -2 -17 -2l28 171l27 160l10 52l9 68l8 50q-8 9 -43 9q-45 0 -48 -9z" />
    <glyph glyph-name="Thorn" unicode="&#xde;" horiz-adv-x="560" 
d="M173 0l45 71q23 35 55 77l58 79l56 72l28 35l22 31l39 56q36 51 28 63q-17 20 -55 20l-22 1l-21 1h-22l-22 -1l-21 -1h-20h-19l-17 -1q-18 0 -24 3l-3 8l16 15l28 21l42 31l46 36q66 58 90 88q44 47 53 102l-7 2q-12 5 -39 5l-103 6l-55 1h-51q-47 0 -55 -5
q-12 -9 -18 -33l-2 -13l4 -10l4 -4q18 -7 69 -7h13h40h37q48 0 48 -6l-13 -24l-32 -35l-46 -42l-53 -40l-53 -34l-14 -9l-13 -5l-21 -8q-20 -11 -20 -44l-2 -30l2 -12q30 -12 46 -15l54 -3l30 2h28l66 -1v-6l-1 -9q-4 -8 -8 -15.5t-8 -12.5l-32 -45l-39 -54l-42 -59l-43 -60
q-22 -29 -37 -54.5t-24 -45.5l-3 -20l2 -20l6 -17l13 -24q5 -3 12 -1z" />
    <glyph glyph-name="germandbls" unicode="&#xdf;" horiz-adv-x="813" 
d="M349 232q14 10 27.5 21t25.5 25l49 62l15 21l14 22l14 24l35 65l24 54q12 24 12 36q-6 11 -20 14q-21 6 -57 6l-98 10q-8 2 -36 2h-41h-176l-60 -4l-16 -6l-4 -3q0 -60 56 -161q38 -66 58 -94l37 -50l20 -24q-58 -35 -91 -48l-97 -43q-21 -9 -21 -48l1 -20l4 -11
q3 -4 12 -1l66 25l62 26l119 59q20 -22 42 -48t47 -58q50 -62 70 -62q8 0 53 18q45 19 100 62q53 42 106 111q52 67 70 160q-4 16 -32 25q-9 4 -24 4q-13 -1 -16 -7q-70 -171 -153 -223q-85 -53 -100 -53q-11 0 -38 39l-29 38zM291 295q-27 30 -46.5 53.5t-31.5 40.5
q-35 55 -51 109q6 7 41 7q6 2 21 2h19h56l96 -5q42 0 42 -9q-16 -38 -31.5 -66t-33.5 -51q-36 -48 -81 -81z" />
    <glyph glyph-name="agrave" unicode="&#xe0;" horiz-adv-x="428" 
d="M325 822q-113 -30 -176 -117q-35 -52 -52 -93q-16 -36 -16 -89q0 -48 12 -90q15 -45 42 -78q30 -33 68 -45q5 -2 11 -4t13 -3l25 -4l63 -3l-19 -108l-16 -91l-12 -88q3 -8 36 -8q34 0 39 8l6 34q7 18 16 99l21 129l22 129l-55 -10l-42 -3l-31 2l-24 5q-22 7 -37 21
q-43 42 -43 99l1 19q0 28 17 67q14 30 42 65q30 36 60 52.5t58 16.5q5 5 5 10q0 11 -9 35q-19 43 -25 43z" />
    <glyph glyph-name="aacute" unicode="&#xe1;" horiz-adv-x="866" 
d="M628 329q9 0 19.5 -5t19.5 -12.5t14.5 -16.5t5.5 -18q-4 -9 -42 -50q-36 -39 -90 -84l-57 -45l-60 -41q-64 -40 -107 -40q-11 0 -56 54l-49 65l-50 72l-50 83l-25 44l-22 44q-45 97 -54 158l29 8q11 2 33.5 3t54.5 1l50 2l76 3l139 3l140 1l130 -2q122 0 134 -9
q13 -9 13 -42q0 -35 -9 -44t-108 -9h-104l-111 1h-211l-72 -2l-21 -4l21 -56l33 -64l38 -64l37 -55l32 -39l13 -12l7 -3q15 0 53 26l78 60l40 32l38 29q34 28 50 28z" />
    <glyph glyph-name="acircumflex" unicode="&#xe2;" horiz-adv-x="711" 
d="M427 408l45 273l21 130q0 9 -42 9q-45 0 -48 -9l-9 -36l-17 -93l-23 -128l-23 -140l-146 9l-64 7q-9 13 -9 20q0 11 9 26q15 28 15 41l-2 13q-7 9 -20 12l-19 6q-18 -5 -38 -53q-21 -50 -21 -66q0 -59 61 -68q7 -4 23 -4l13 -2h14h20l70 -5l81 -7l-20 -120l-17 -105
q-15 -93 -13 -102q8 -11 44 -11q41 0 47 11l18 99l18 103l21 118l91 -7l82 -6l79 -4q7 1 7 37t-6 36l-20 1l-56 3l-77 5z" />
    <glyph glyph-name="atilde" unicode="&#xe3;" horiz-adv-x="595" 
d="M349 232q85 63 141 138q55 76 75 192q-2 8 -13 8l-23 5h-16h-30q-4 1 -9 1.5t-12 2.5h-25h-40l-95 3l-48 1h-46l-44 -1l-42 -1l-60 -4l-18 -9l37 -98q26 -52 43 -79q33 -48 59 -82t45 -57q-58 -35 -91 -48l-97 -43q-21 -9 -21 -48l1 -20l4 -11q3 -4 12 -1l66 25l62 26
l119 59l85 -89l85 -92q7 -6 10 0q6 13 6 25l-1 32l-4 22q-27 41 -55 73l-32 38zM291 295q-27 30 -46.5 53.5t-31.5 40.5q-35 55 -51 109q6 7 41 7q6 2 21 2h19h56l96 -5q42 0 42 -9q-16 -38 -31.5 -66t-33.5 -51q-36 -48 -81 -81z" />
    <glyph glyph-name="adieresis" unicode="&#xe4;" horiz-adv-x="838" 
d="M223 133q-11 3 -17 35l-2 23q0 19 7 23q27 19 56 48t53 59l24 30l13 15l10 16q24 30 36 54q15 24 18 39l1 11l-4 4l-83 1l-66 1l-49 3l-48 9q-38 12 -48 21q-10 10 -10 20l2 11q21 40 98 84l96 52q19 11 48 25.5t71 33.5l3 5h-21l-22 -2h-13l-42 -2l-93 -3h-39l-25 4
q-10 4 -7 28q7 17 9 21t5 7l29 4l50 4l125 3l119 -3q50 0 57 -7q17 -20 11 -31l-5 -13l-7 -19q-9 -25 -87 -46q-19 -8 -32.5 -13.5t-24 -10t-19.5 -8.5t-19 -9l-63 -38l-68 -45l3 -6l27 -1h43l50 -1l51 -4l49 -7q48 -9 54 -36l2 -16q0 -47 -61 -144q-79 -117 -161 -163
l131 -34l100 -25l42 -10l35 -7l62 -14l55 -15l57 -17q7 -7 7 -20l-1 -17q-5 -29 -16 -26q-30 12 -120 30l-92 21l-44 10l-50 10l-91 18l-54 12l-27 4z" />
    <glyph glyph-name="aring" unicode="&#xe5;" horiz-adv-x="461" 
d="M125 14q8 11 54 29l48 22l51 28q28 17 55.5 40t46.5 43q45 52 57 116q0 22 -38 28l-42 6q-9 4 -24 4l-22 1l-87 6l-26 5l-7 8l4 8l7 7l26 28l35 37l39 42l39 46l36 46q36 48 43 82q0 18 -56 30q-31 7 -51 10t-35 3l-15 -1q-22 -13 -33 -38q-8 -11 -8 -27q2 -15 10 -23
q16 -9 34 -9l13 -1v-5q-8 -8 -26 -35l-45 -59l-54 -68l-52 -60l-13 -19l-18 -32l-14 -31l-1 -10q13 -8 37 -11q12 -4 26 -4l23 -1l17 -2h16h19l47 -3l36 -6l9 -5l6 -5q0 -31 -59 -55q-59 -23 -101 -87l-7 -27l-6 -29l-1 -12l2 -10h5z" />
    <glyph glyph-name="ae" unicode="&#xe6;" horiz-adv-x="526" 
d="M152 0q-11 1 -12 3l-6 18l-2 15v12l3 28q58 13 135 84t92 140l2 13v11q0 39 -24 62q-34 34 -76 50q-52 23 -79 30q-35 17 -32 29l3 15l7 32q9 44 27 47l64 19l70 23q75 30 75 45l3 23q0 36 -24 36q-14 0 -33 6l-36 13l-11 10l-4 6l5 15q19 28 25 31l18 3l38 -4l48 -16
q24 -10 39.5 -24t21.5 -36q2 -2 2 -18l-1 -18l-4 -16q-33 -83 -116 -116l-112 -39v-6q7 -6 25 -11q45 -19 85.5 -47t66.5 -77q13 -22 13 -54q0 -33 -14 -72q-19 -42 -41 -79t-48 -72q-56 -74 -193 -114z" />
    <glyph glyph-name="ccedilla" unicode="&#xe7;" horiz-adv-x="1034" 
d="M940 6q7 -3 25 30q11 17 11 30q0 8 -6 11q-121 60 -217 75q-20 7 -31 7l-23 1l-42 3q-8 2 -38 2h-45l-68 -4l-50 -7l-27 -3l-8 1l1 4l69 82l53 56l39 37l26 26l16 23q7 12 8 26q-7 8 -37 21q-13 7 -21 7l-18 4q-15 7 -25 7l-17 4q-15 7 -25 7l-17 4l-37 10l-25 9l-5 4
l24 22l44 43l44 50q21 27 22 42q0 48 -10 86.5t-25 50.5q-28 25 -68 25l-32 -4q-66 -21 -125 -68t-92 -110l-26 -47l-21 -44q-23 -47 -33 -82q-27 -84 -27 -148l-8 -126l-8 -91q2 -11 46 -20l10 -1l12 -1q29 0 29 23q0 85 18 177l33 135l32 101q8 22 16.5 40.5t16.5 32.5
q50 70 68 81l33 20l32 18l10 2q7 0 16 -6l10 -11l3 -4l-19 -33l-22 -27l-54 -56q-26 -27 -39 -51q-5 -10 -5 -19q3 -16 10 -24q17 -19 37 -23l37 -8l31 -4l49 -8l7 -3l6 -3q3 -5 0 -8q-84 -120 -135 -174q-40 -43 -40 -91l2 -24q12 -23 56 -23h60l120 -3l68 -4l90 -10
l61 -13l53 -13l57 -19z" />
    <glyph glyph-name="egrave" unicode="&#xe8;" horiz-adv-x="797" 
d="M93 544q6 6 15 9l19 3l20 -1l16 -5q4 -7 4 -32l-4 -63l1 -95l9 -71q17 -16 59 -32q45 -17 96 -30l52 -13l27 -7l24 -3q51 -9 78 -9q30 10 83 57q52 46 52 61q-9 17 -28 30l-60 42l-36 22l-33 19l-53 28l-32 -2l-29 -7l-32 -9l-37 -9q-19 6 -19 18l3 11l39 18l44 25
q54 29 67 33l20 -6l16 -5q21 -8 42 -21q54 -30 108 -66l50 -35l44 -34q40 -33 40 -42l-13 -27l-31 -36l-46 -47l-53 -46l-53 -40q-11 -8 -22.5 -14.5t-22.5 -10.5q-26 0 -89 12l-65 15l-68 19l-67 19l-61 20l-47 17l-24 12q-7 10 -10 45l-3 89v105zM501 99q41 0 41 -38
t-41 -38q-42 0 -42 38t42 38z" />
    <glyph glyph-name="eacute" unicode="&#xe9;" horiz-adv-x="757" 
d="M679 0q-235 99 -392 126q-155 27 -166 71l-2 16q0 48 66 104q68 59 153 178q6 12 -23 23l-69 24l-38 12l-17 6l-16 8q-26 11 -26 31q17 52 24 62q8 11 19 9q9 -12 34 -25l51 -21l57 -17l29 -7q7 -1 13 -3l12 -4q29 -6 39 -13q10 -3 14 -13q-5 -44 -65 -116l-71 -90
l-97 -121l3 -8l26 -7l106 -18l76 -16l31 -7l56 -18q93 -27 201 -84l7 -12l-2 -13l-9 -21q-18 -38 -24 -36z" />
    <glyph glyph-name="ecircumflex" unicode="&#xea;" horiz-adv-x="846" 
d="M234 809q-2 -2 -8 -34l-17 -95l-23 -128l-24 -140q-14 -64 -25 -128t-21 -130q-18 -131 -15 -134q13 -12 44 -12q40 0 46 12q2 2 20 115l9 43l11 74l21 127l55 -35l58 -39l62 -43l63 -44l56 -41l40 -34l11 -13q-11 -29 -45 -56l-5 -10q8 -18 14 -24q23 -23 32 -14
q19 20 33.5 37t24.5 29q13 16 25.5 32t23.5 33q14 20 23.5 36t17.5 32q18 31 30 66l10 22l4 16l8 32q7 18 7 30l1 31l-4 66q-5 33 -15 60q-26 68 -74.5 121t-134.5 102l-13 -11l-25 -25q-3 -7 0 -10q6 -6 18 -10q32 -17 49 -44q0 -5 -51 -38l-56 -36l-61 -39l-61 -40
l-55 -35l-40 -24l-13 -6q15 147 36 249l24 107q-8 9 -43 9q-42 0 -48 -9zM658 613l30 -49l12 -25l8 -26q16 -47 16 -97q0 -11 -2 -22t-5 -26l-18 -55q-14 -32 -30.5 -65t-36.5 -65l-304 229z" />
    <glyph glyph-name="edieresis" unicode="&#xeb;" horiz-adv-x="889" 
d="M43 483l2 10q7 5 16 5l21 3h13l30 -3l3 -38l-1 -57v-68l7 -69q14 -77 41 -127t90 -50q42 0 62 39l18 41q7 14 7 25l4 22l9 48l7 47q6 48 21 60q7 7 55 7q54 0 57 -12l49 -173q30 -95 87 -95q24 0 43.5 19.5t31.5 54.5q7 16 12 33.5t8 37.5l7 35q4 11 4 25l1 23l4 18v25
l1 40l2 71q0 16 39 16q42 0 47 -6q5 -5 5 -51v-14v-18l-5 -81l-12 -83q-23 -94 -63 -164t-119 -70q-36 0 -66 15q-16 10 -28 19.5t-22 18.5q-22 25 -34 50l-26 53l-16 45l-7 27l-3 2l-5 -20l-10 -42l-13 -39q-20 -48 -52 -83q-32 -38 -93 -38q-52 0 -90 20q-36 21 -65 57
q-27 36 -42 80.5t-21 95.5q-7 22 -7 32l-1 24l-2 25v25z" />
    <glyph glyph-name="igrave" unicode="&#xec;" horiz-adv-x="969" 
d="M386 809q-4 -4 -17 -76l-15 -78l-17 -93l-18 -103l-19 -106l-18 -101l-13 -85l-39 87l-31 72l-24 63l-20 61l-17 64l-10 41l-4 28l-10 47l-4 35l-15 104q-4 4 -13 4l-26 -5q-32 -17 -32 -23l3 -74l9 -74l28 -134q36 -132 78 -228l40 -87l36 -66l26 -42l9 -14
q8 -11 44 -11q39 0 45 11l24 125l16 93l10 58l7 44l17 106l18 104l11 65l10 62l8 53l7 39l3 24l2 10q0 9 -42 9q-44 0 -47 -9zM610 809q-2 -2 -8 -34l-17 -93l-23 -127l-24 -139l-23 -138l-21 -127q-19 -120 -16 -125q5 -11 43 -11q39 0 45 11l24 125l16 93l10 58l7 44
l17 106l18 104l11 65l10 62l8 53l7 39l3 24l2 10q0 9 -42 9q-44 0 -47 -9zM834 809q-2 -2 -8 -34l-17 -93l-23 -127l-24 -139l-23 -138l-21 -127q-19 -120 -16 -125q5 -11 43 -11q40 0 46 11l6 33l17 92l22 127l23 139l23 139l21 127l15 92l5 34q0 9 -42 9q-44 0 -47 -9z
" />
    <glyph glyph-name="iacute" unicode="&#xed;" horiz-adv-x="523" 
d="M96 9l-6 1l6 22l12 31l10 31q15 20 27.5 34.5t22.5 24.5l57 53l57 54l52 62q13 17 22.5 37t17.5 42q12 27 15 48q5 15 5 23l3 34q-7 7 -41 7l-44 1l-52 1l-29 2h-25l-54 3l-46 6l-32 11l1 7l3 7l18 30q28 43 45 52q20 14 36 14q18 -7 18 -23l-5 -28q4 -15 44 -15l50 -1
h56h56l52 -1q50 0 50 -11l-4 -57l-10 -55l-11 -44l-21 -65l-23 -52q-26 -51 -61 -89t-77 -71l-47 -33l-44 -29zM138 366q37 0 37 -40q0 -39 -37 -39q-38 0 -38 39q0 40 38 40z" />
    <glyph glyph-name="icircumflex" unicode="&#xee;" horiz-adv-x="341" 
d="M234 809q-2 -2 -8 -34l-17 -95l-23 -128l-24 -140q-14 -64 -25 -128t-21 -130q-18 -131 -15 -134q10 -12 43 -12q41 0 47 12l6 33l17 93l22 128l23 140l24 140l21 128l21 127q-8 9 -43 9q-42 0 -48 -9z" />
    <glyph glyph-name="idieresis" unicode="&#xef;" horiz-adv-x="988" 
d="M234 809q-2 -2 -8 -34l-17 -95l-23 -128l-24 -140q-14 -64 -25 -128t-21 -130q-18 -131 -15 -134q10 -12 43 -12q41 0 47 12l6 33l17 93l22 128l23 140l24 140l21 128l21 127q-8 9 -43 9q-42 0 -48 -9zM678 812q-108 -76 -199 -194l-92 -119l-82 -111q-10 -11 -14 -36
q0 -26 11 -26q51 -6 86 -6l86 4q9 4 24 4l23 1l37 2l31 4h45q-15 -57 -27 -80q-6 -17 -6 -25l7 -40q9 -18 27 -18l17 2l18 2q24 0 34 -13q4 -4 4 -13q0 -12 -13 -28l-8 -12l-2 -6l9 -3q50 15 65 30q16 16 28 84q-4 16 -20 16l-29 -4l-26 -3q-21 0 -21 16q9 37 15 44
q6 9 12 36h75l21 -2h20h24h23q4 2 25 2q19 0 26 31l3 19q-6 15 -10 18q-24 11 -66 11l-43 -3l-39 -5l-28 -2l-15 2q2 2 8 24l18 57l21 78l10 43l10 44l9 50l4 22v18l3 61v18q-9 15 -64 15q-63 0 -75 -9zM696 750l4 -2q2 -4 2 -11l-1 -15l-3 -22q-6 -53 -18 -119l-11 -64
l-12 -60q-12 -57 -15 -60q-4 -4 -14 -5l-17 -2h-12l-13 -2h-13h-16l-44 -1h-87l-30 2l-14 5q1 10 40 59l48 57l55 62l57 62l54 57l41 42z" />
    <glyph glyph-name="eth" unicode="&#xf0;" horiz-adv-x="609" 
d="M171 21q-11 -14 -51 -14q-41 0 -44 11l8 75l11 74l7 35l7 46l14 82l14 74l16 77q5 8 44 8q41 0 41 -10l-18 -99l-21 -110l-25 -149q54 14 110 94q34 46 69 112t72 153l3 2l-3 -2l-4 -1l-57 2l-66 3q-55 6 -89 15q-68 21 -59 57q18 72 279 195l3 5h-21l-22 -2h-13l-42 -2
l-93 -3h-39l-25 4q-10 4 -7 28q7 17 9 21t5 7l29 4l50 4l125 3l118 -3q28 0 42 -3l16 -4q15 -19 12 -31l-6 -13l-7 -19q-10 -28 -97 -61q-86 -33 -221 -141q1 -5 8 -8t29 -3l107 -6l110 -6l36 -7l11 -8q-81 -234 -159 -339t-216 -147z" />
    <glyph glyph-name="ntilde" unicode="&#xf1;" horiz-adv-x="756" 
d="M174 809l-9 -36l-17 -93l-23 -129l-24 -141l-27 -135l-19 -128q-18 -131 -15 -134q8 -11 44 -11q40 0 46 11l6 35l17 93l46 270l45 270l21 128q-8 9 -43 9q-45 0 -48 -9zM402 809l-9 -36l-17 -93l-23 -129l-24 -141q-27 -147 -45 -270l-9 -50l-5 -42l-3 -35q8 -11 44 -11
q41 0 47 11l6 35l17 93l46 270l45 270l21 128q-8 9 -43 9q-45 0 -48 -9zM629 809q-2 -2 -8 -34l-17 -95l-23 -129l-24 -141q-27 -147 -45 -270l-9 -50l-5 -42l-3 -35q8 -11 44 -11q40 0 46 11l24 128l22 129l24 141l45 270l15 94l5 34q-8 9 -43 9q-42 0 -48 -9z" />
    <glyph glyph-name="ograve" unicode="&#xf2;" horiz-adv-x="644" 
d="M152 0l61 9l40 5l70 9l35 1l98 9l82 7l54 6l10 4l8 4l-82 141l-67 102q-39 49 -64 79t-36 41q-48 42 -59 45q-18 9 -21 21q-3 11 30 38l36 30l41 36q24 23 45 45t39 44q41 49 50 99q-5 7 -44 13l-47 9q-15 5 -23 5l-29 3l-37 7l-35 3q-6 2 -31 2h-22l-17 1l-14 -2
q-12 -9 -18 -33l-2 -13l4 -10l4 -4q42 -12 102 -21q61 -9 61 -21q-2 -15 -10 -23l-27 -37l-39 -43q-22 -25 -46 -43l-26 -21l-26 -18q-8 -5 -14.5 -8t-13.5 -6l-18 -7q-13 -4 -13 -34q0 -31 5 -34l21 -10l22 -9q31 -15 56 -35l39 -37l49 -53l63 -75l80 -104q-2 -6 -5 -10
l-30 -6l-101 -9l-59 -4l-59 -3l-50 -3l-37 -6l-4 -26l3 -29l8 -20q4 -3 10 -1z" />
    <glyph glyph-name="oacute" unicode="&#xf3;" horiz-adv-x="560" 
d="M136 575h395v93h-490l-2 -668l94 -4l3 130l256 114v112l-256 -133v356z" />
    <glyph glyph-name="ocircumflex" unicode="&#xf4;" horiz-adv-x="520" 
d="M442 668h-268l-58 -6q-56 -12 -60 -16q-16 -16 -16 -57q0 -27 25 -49l50 -43l37 -36l27 -35l16 -8l-19 -2l-23 -8q-10 -5 -16 -8.5t-8 -5.5l-45 -51q-45 -60 -45 -133q0 -50 16 -89t45.5 -66t70 -41t90.5 -14q108 0 174 74q50 56 50 141q0 95 -72 151l-13 11l-12 9
l-23 15q-36 23 -63.5 43.5t-44.5 36.5q-59 56 -59 85q0 19 29 19l34 1l58 -3l9 1l-2 5l123 -6zM261 325q121 0 121 -132q0 -95 -119 -95q-47 0 -84 31q-36 33 -36 81q0 54 33.5 84.5t84.5 30.5z" />
    <glyph glyph-name="otilde" unicode="&#xf5;" horiz-adv-x="647" 
d="M373 11q115 37 175 136q54 93 54 219q0 96 -40 183q-63 111 -166 111q-82 0 -104 -61q-12 -38 -12 -112v-374q-74 24 -110 96q-31 61 -31 146l2 108l5 75q18 93 49 93v10l-104 5l-3 4q-13 0 -28 -108l-10 -65l-3 -47l-4 -35v-44q0 -116 51 -207q65 -119 186 -134l1 -224
h94zM489 486q18 -65 18 -113q0 -21 -2 -39t-5 -37q-7 -35 -21 -73q-43 -87 -106 -108v355q0 95 43 95q49 0 73 -80z" />
    <glyph glyph-name="odieresis" unicode="&#xf6;" horiz-adv-x="661" 
d="M362 23q58 0 102.5 29t73.5 81q46 82 46 212q0 296 -216 325v119h-104v-121l-33 -2l-28 -5q-28 -7 -52 -21q-49 -28 -73 -76q-39 -72 -39 -219q0 -57 13 -110.5t39 -101.5q62 -110 177 -110v-241h94v241zM371 567q79 0 108 -78q18 -54 18 -145q0 -94 -17 -139
q-36 -72 -107 -72zM272 572v-433q-90 16 -117 68t-27 137q0 228 144 228z" />
    <glyph glyph-name="divide" unicode="&#xf7;" horiz-adv-x="566" 
d="M487 573l3 -2l1 9l12 109q-17 -32 -23 -32l-16 -3q-16 -8 -67 -8h-92q-113 0 -174 -34q-65 -41 -83 -152q-9 -59 -9 -178q0 -104 24 -158q62 -125 220 -125q105 0 176 62q70 61 70 167q0 107 -68 170q-80 74 -172 74q-57 0 -86 -17l-67 -57l-30 -36q15 109 19 119
q41 71 146 71h79q62 0 92 9l26 3q10 1 19 9zM283 380q67 0 97 -45q31 -43 31 -106q0 -66 -30 -108q-42 -48 -98 -48q-124 0 -124 151q0 63 29 107q40 49 95 49z" />
    <glyph glyph-name="oslash" unicode="&#xf8;" 
d="M8 447v-18l26 -5l7 -3q19 -12 25 -20q11 -11 20 -37l160 -377h20l159 383q13 34 31 49q10 10 35 10v18h-146v-18q35 0 43 -6.5t8 -17.5t-11 -41l-105 -257l-104 247q-10 23 -10 41q6 21 13 27.5t26 6.5h14v18h-211z" />
    <glyph glyph-name="scaron" unicode="&#x161;" horiz-adv-x="765" 
d="M728 356q0 144 -101 245t-245 101q-143 0 -244 -101t-101 -245q0 -143 100 -244q101 -101 245 -101q147 0 246 102q100 101 100 243zM702 355q0 -130 -95 -225q-94 -94 -225 -94t-226 95q-93 94 -93 224q0 132 94 226t225 94q80 0 157 -44q78 -43 120.5 -117t42.5 -159z
M581 148v18q-33 0 -62 26l-17 20l-28 36l-80 109q49 6 76 30q32 29 32 74q0 40 -24 67q-34 31 -71 37q-38 6 -94 6h-125v-16q37 0 48.5 -15t11.5 -49v-257q0 -42 -10 -55q-12 -13 -50 -13v-18h179v18l-25 1l-14 3q-23 14 -23 65v111h34l103 -142l12 -17l27 -39h100zM439 467
q0 -101 -120 -101l-14 1v174q16 8 42 8q92 0 92 -82z" />
    <glyph glyph-name="florin" unicode="&#x192;" horiz-adv-x="260" 
d="M92 -209h76v937h-76v-937z" />
    <glyph glyph-name="tilde" unicode="&#x2dc;" horiz-adv-x="583" 
d="M584 210l-21 8q-40 -91 -88 -91q-9 1 -40.5 10.5t-86.5 26.5q-81 28 -114 28l-31 -4l60 82q37 55 37 92l-7 28h141v34h-71q-62 0 -106 32q-47 35 -47 96q0 54 34 88t88 34q60 0 98 -45q38 -44 44 -105h35v147q-92 31 -148 31q-77 0 -150 -46q-77 -50 -77 -129
q0 -31 15 -67l3 -11l2 -8q0 -17 -27 -17h-52v-34h118q31 -37 31 -82q0 -38 -31 -93l-27 -43l-28 -40l-63 -94h29q44 74 105 74q33 0 121 -32q87 -31 127 -31q45 0 82 61q12 18 27 54z" />
    <glyph glyph-name="endash" unicode="&#x2013;" horiz-adv-x="906" 
d="M895 292v16q-38 0 -47 14q-9 18 -9 55v231q0 37 10 50t46 13v17h-111l-140 -311l-144 311h-116v-17q18 0 32 -6q6 -3 10.5 -6t7.5 -9.5t4.5 -17.5t1.5 -30v-225q0 -45 -6 -54q-14 -15 -50 -15v-16h140v16q-40 0 -49 11q-8 11 -8 55v248l157 -330h9l151 336v-251
q0 -39 -10 -55q-11 -14 -47 -14v-16h168zM350 595v93h-330v-93h13q9 42 20 52q10 10 24 13l33 3h45v-276q0 -44 -7 -59q-11 -20 -50 -20v-16h174v16q-42 0 -50 17q-7 15 -7 62v276h45q39 0 56 -14q21 -15 21 -54h13z" />
    <glyph glyph-name="emdash" unicode="&#x2014;" horiz-adv-x="448" 
d="M411 271v38q-92 -104 -159 -104v378q49 -4 79 -42q15 -18 23.5 -41.5t8.5 -44.5h34v128q-68 31 -145 31v74h-35v-78q-88 -21 -142 -99q-53 -77 -53 -164q0 -70 33 -121q55 -88 162 -88v-75h35v82q78 24 159 126zM217 207q-62 15 -94 69q-31 55 -31 120t31 118
q37 60 94 69v-376z" />
    <glyph glyph-name="quotesinglbase" unicode="&#x201a;" horiz-adv-x="278" 
 />
    <glyph glyph-name="FL201Eh" unicode="&#x201e;" horiz-adv-x="480" 
d="M215 540q0 83 44 115q35 25 121 25v-11q-52 -12 -73 -42q-18 -26 -18 -81v-168q0 -58 -17 -87q-18 -28 -74 -42q28 -6 46 -16t28 -25.5t13.5 -36.5t3.5 -50v-167q0 -55 19.5 -83t71.5 -40v-11q-86 0 -121 25q-44 32 -44 114v177q0 50 -18 75t-67 39q25 6 41.5 15
t26.5 22.5t13.5 31.5t3.5 44v177z" />
    <glyph glyph-name="dagger" unicode="&#x2020;" horiz-adv-x="480" 
d="M256 -127h-32v137q0 79 -9 136.5t-26 115.5q22 27 28.5 64t6.5 111q-35 0 -76 -15.5t-51 -15.5q-23 0 -35 12t-12 32q0 43 47 43q11 0 52 -15t76 -15q0 67 -15.5 114.5t-15.5 50.5q0 18 11.5 33t34.5 15q24 0 35 -14.5t11 -33.5q-13 -35 -22 -73.5t-9 -91.5
q31 0 62.5 9.5t66.5 20.5q22 0 34 -12t12 -31q0 -44 -46 -44q-12 0 -53.5 15.5t-75.5 15.5q0 -74 6.5 -110.5t29.5 -64.5q-17 -57 -26 -113.5t-9 -138.5v-137z" />
    <glyph glyph-name="bullet" unicode="&#x2022;" horiz-adv-x="350" 
d="M310 331q0 -56 -39.5 -95.5t-95.5 -39.5q-57 0 -96 39t-39 96q0 56 38.5 95.5t96.5 39.5q57 0 96 -39t39 -96z" />
    <glyph glyph-name="braceright" unicode="&#x2026;" horiz-adv-x="480" 
d="M295 540v-177q0 -51 17 -75.5t68 -37.5q-49 -14 -67 -39t-18 -75v-178q0 -83 -44 -114q-36 -25 -121 -25v11q52 12 71.5 40t19.5 83v168q0 58 17.5 86.5t73.5 41.5q-56 14 -73.5 42.5t-17.5 86.5v168q0 55 -18 81q-21 30 -73 42v11q85 0 121 -25q44 -31 44 -115z" />
    <glyph glyph-name="perthousand" unicode="&#x2030;" horiz-adv-x="1000" 
d="M156 -24l294 752h64l-293 -752h-65zM18 537q0 97 38 141t102 44q63 0 101.5 -44.5t38.5 -138.5q0 -97 -33.5 -145t-105.5 -48q-63 0 -102 47t-39 144zM90 533l1 -36l4 -27l6 -23l8 -15q11 -14 23.5 -19.5t28.5 -5.5q28 0 44 22q21 30 21 105q0 73 -21 105q-17 23 -46 23
q-30 0 -47 -23q-22 -31 -22 -106zM373 164q0 48 11 83t30 58t44 34t54 11q62 0 101.5 -44.5t39.5 -139.5q0 -190 -140 -190q-63 0 -101.5 47.5t-38.5 140.5zM445 160l1 -36l5 -32q7 -20 15 -35q9 -10 24 -16.5t25 -6.5q29 0 45 22q21 30 21 105q0 74 -22 105q-17 23 -46 23
q-30 0 -46 -22q-22 -31 -22 -107zM702 164q0 48 11 83t30 58t44 34t54 11q63 0 102 -46.5t39 -137.5q0 -190 -140 -190q-63 0 -101.5 47.5t-38.5 140.5zM774 160l1 -36l5 -32l14 -33q13 -13 27 -19t23 -6q29 0 45 22q21 30 21 105q0 74 -22 105q-17 23 -46 23q-30 0 -46 -22
q-22 -31 -22 -107z" />
    <glyph glyph-name="guilsinglright" unicode="&#x203a;" horiz-adv-x="396" 
d="M348 552q0 62 -44 106t-106 44q-40 0 -75 -20q-75 -48 -75 -130q0 -58 44 -105q45 -45 106 -45q41 0 76 20q74 44 74 130zM307 552q0 -30 -15 -54q-31 -55 -94 -55q-43 0 -77 31q-32 32 -32 78q0 22 8.5 42t23.5 35t34.5 23.5t42.5 8.5q29 0 55 -15q54 -35 54 -94z" />
    <glyph glyph-name="Euro" unicode="&#x20ac;" horiz-adv-x="490" 
d="M415 355h-276v-16v-25h266l-14 -47h-251q2 -50 12 -85.5t27 -67.5q43 -76 111 -76q63 0 104 33q14 10 30.5 29.5t37.5 48.5l22 -16q-21 -34 -41 -58.5t-37 -39.5q-57 -45 -136 -45q-110 0 -173 93q-26 38 -40.5 81t-19.5 103h-47l11 47h34v29q0 2 -0.5 5t0.5 7h-45l11 47
h39q9 57 28 102.5t51 83.5q72 88 184 88q83 0 167 -45v-151h-28q-14 155 -139 155q-73 0 -116 -78q-32 -59 -44 -155h285z" />
    <glyph glyph-name="Z" unicode="&#x2122;" horiz-adv-x="583" 
d="M604 664v24h-234v-24q39 0 56 -9q24 -17 24 -47q0 -83 -119 -271l-153 305q-2 2 -2 9q0 13 18 13v24h-177v-24q36 0 67 -43q23 -29 42 -73l105 -211h-178v-35h196v-71h-196v-35h196v-32q0 -45 -16.5 -61.5t-58.5 -16.5v-23h239v23q-74 0 -74 78v32h224v35h-224v71h224v35
h-204l128 218q66 109 117 109z" />
    <glyph glyph-name="bar" unicode="&#xe004;" horiz-adv-x="182" 
d="M132 -190h-82v1030h82v-1030z" />
  </font>
</defs>
</svg>
