<svg xmlns="http://www.w3.org/2000/svg" width="40" height="40" fill-rule="evenodd" clip-rule="evenodd" image-rendering="optimizeQuality" shape-rendering="geometricPrecision" text-rendering="geometricPrecision" viewBox="0 0 2.508 2.508">
  <path fill="#5fa05f" d="M1.254 0c.693 0 1.254.561 1.254 1.254s-.561 1.254-1.254 1.254S0 1.947 0 1.254.561 0 1.254 0zm-.126 1.419L1.59.803a.1254.1254 0 0 1 .175-.025c.055.041.066.12.025.175l-.561.747a.1175.1175 0 0 1-.031.032.126.126 0 0 1-.175-.029L.71 1.264a.1251.1251 0 1 1 .204-.145l.214.3z"/>
</svg>
