<?xml version="1.0" encoding="UTF-8"?>
<!DOCTYPE svg PUBLIC "-//W3C//DTD SVG 1.0//EN" "http://www.w3.org/TR/2001/REC-SVG-20010904/DTD/svg10.dtd">
<!-- Creator: CorelDRAW 2017 -->
<svg xmlns="http://www.w3.org/2000/svg" xml:space="preserve" width="60px" height="11px" version="1.0" style="shape-rendering:geometricPrecision; text-rendering:geometricPrecision; image-rendering:optimizeQuality; fill-rule:evenodd; clip-rule:evenodd"
viewBox="0 0 56.464 10.864"
 xmlns:xlink="http://www.w3.org/1999/xlink">
 <defs>
  <style type="text/css">
   <![CDATA[
    .str3 {stroke:#A38F75;stroke-width:1.417}
    .str1 {stroke:#B3B3B3;stroke-width:1.417}
    .str2 {stroke:#A38F75;stroke-width:1.417;stroke-linecap:round;stroke-linejoin:round}
    .str0 {stroke:#B3B3B3;stroke-width:1.417;stroke-linecap:round;stroke-linejoin:round}
    .fil0 {fill:none}
   ]]>
  </style>
 </defs>
 <g id="Layer_x0020_1">
  <metadata id="CorelCorpID_0Corel-Layer"/>
  <g id="_1938436406256">
   <path class="fil0 str0" d="M0.818 8.656c0.203,-0.242 0.706,-0.666 1.283,-1.18 0.577,-0.513 1.229,-1.115 1.772,-1.663 0.543,-0.548 0.977,-1.041 1.466,-1.441 0.488,-0.4 1.031,-0.706 1.747,-0.957 0.715,-0.252 1.603,-0.449 2.645,-0.488 1.041,-0.04 2.235,0.078 3.282,0.266 1.046,0.187 1.944,0.444 3.119,0.893 1.174,0.449 2.626,1.091 3.978,1.673 1.352,0.583 2.605,1.105 3.577,1.455 0.972,0.351 1.662,0.528 2.119,0.652 0.457,0.125 0.681,0.196 0.662,0.279 -0.019,0.084 -0.281,0.179 -1.133,0.257 -0.852,0.077 -2.294,0.139 -3.836,0.304 -1.544,0.165 -3.188,0.435 -4.693,0.692 -1.506,0.256 -2.871,0.5 -4.038,0.639 -1.167,0.139 -2.134,0.173 -3.157,0.007 -1.023,-0.166 -2.101,-0.534 -3.394,-0.749 -1.293,-0.215 -2.801,-0.276 -3.737,-0.297 -0.937,-0.021 -1.302,-0.002 -1.533,-0.021 -0.233,-0.02 -0.331,-0.08 -0.129,-0.321z"/>
   <circle class="fil0 str1" cx="10.727" cy="6.379" r="3.322"/>
   <path class="fil0 str0" d="M0.713 5.814c0.291,-0.247 0.582,-0.493 0.82,-0.696 0.239,-0.204 0.425,-0.364 0.827,-0.795 0.402,-0.433 1.02,-1.137 1.641,-1.673 0.62,-0.537 1.243,-0.907 1.95,-1.197 0.708,-0.29 1.5,-0.499 2.381,-0.62 0.881,-0.123 1.851,-0.158 2.837,-0.092 0.986,0.067 1.988,0.235 2.98,0.473 0.992,0.238 1.973,0.546 2.907,0.903 0.935,0.356 1.822,0.76 2.683,1.134 0.86,0.375 1.694,0.72 2.493,1.038 0.8,0.318 1.565,0.609 2.248,0.834 0.683,0.224 1.285,0.383 1.888,0.541"/>
  </g>
  <g id="_1938436407408">
   <path class="fil0 str2" d="M30.105 8.656c0.203,-0.242 0.706,-0.666 1.283,-1.18 0.578,-0.513 1.23,-1.115 1.772,-1.663 0.543,-0.548 0.977,-1.041 1.466,-1.441 0.489,-0.4 1.031,-0.706 1.747,-0.957 0.716,-0.252 1.604,-0.449 2.646,-0.488 1.041,-0.04 2.234,0.078 3.281,0.266 1.046,0.187 1.944,0.444 3.119,0.893 1.174,0.449 2.626,1.091 3.978,1.673 1.352,0.583 2.605,1.105 3.577,1.455 0.972,0.351 1.662,0.528 2.119,0.652 0.458,0.125 0.682,0.196 0.663,0.279 -0.02,0.084 -0.282,0.179 -1.134,0.257 -0.852,0.077 -2.294,0.139 -3.836,0.304 -1.543,0.165 -3.188,0.435 -4.693,0.692 -1.505,0.256 -2.871,0.5 -4.038,0.639 -1.167,0.139 -2.134,0.173 -3.156,0.007 -1.023,-0.166 -2.102,-0.534 -3.395,-0.749 -1.293,-0.215 -2.801,-0.276 -3.737,-0.297 -0.936,-0.021 -1.301,-0.002 -1.533,-0.021 -0.233,-0.02 -0.331,-0.08 -0.129,-0.321z"/>
   <circle class="fil0 str3" cx="40.014" cy="6.379" r="3.322"/>
   <path class="fil0 str2" d="M30 5.814c0.291,-0.247 0.582,-0.493 0.821,-0.696 0.238,-0.204 0.424,-0.364 0.826,-0.795 0.402,-0.433 1.02,-1.137 1.641,-1.673 0.62,-0.537 1.243,-0.907 1.951,-1.197 0.707,-0.29 1.499,-0.499 2.381,-0.62 0.88,-0.123 1.85,-0.158 2.836,-0.092 0.986,0.067 1.988,0.235 2.98,0.473 0.992,0.238 1.973,0.546 2.907,0.903 0.935,0.356 1.822,0.76 2.683,1.134 0.861,0.375 1.694,0.72 2.494,1.038 0.799,0.318 1.564,0.609 2.247,0.834 0.683,0.224 1.285,0.383 1.888,0.541"/>
  </g>
 </g>
</svg>
