<?xml version="1.0" encoding="UTF-8"?>
<!DOCTYPE svg PUBLIC "-//W3C//DTD SVG 1.0//EN" "http://www.w3.org/TR/2001/REC-SVG-20010904/DTD/svg10.dtd">
<!-- Creator: CorelDRAW 2017 -->
<svg xmlns="http://www.w3.org/2000/svg" xml:space="preserve" width="29px" height="11px" version="1.0" style="shape-rendering:geometricPrecision; text-rendering:geometricPrecision; image-rendering:optimizeQuality; fill-rule:evenodd; clip-rule:evenodd"
viewBox="0 0 58.615 23.431"
 xmlns:xlink="http://www.w3.org/1999/xlink">
 <defs>
  <style type="text/css">
   <![CDATA[
    .str1 {stroke:#A38F75;stroke-width:3.056}
    .str0 {stroke:#A38F75;stroke-width:3.056;stroke-linecap:round;stroke-linejoin:round}
    .fil0 {fill:none}
   ]]>
  </style>
 </defs>
 <g id="Layer_x0020_1">
  <metadata id="CorelCorpID_0Corel-Layer"/>
  <g id="_1938385444448">
   <path class="fil0 str0" d="M1.764 18.669c0.437,-0.522 1.522,-1.437 2.767,-2.544 1.246,-1.107 2.652,-2.405 3.823,-3.587 1.17,-1.182 2.107,-2.246 3.161,-3.108 1.054,-0.862 2.223,-1.522 3.767,-2.065 1.544,-0.542 3.459,-0.968 5.706,-1.053 2.246,-0.086 4.821,0.169 7.078,0.574 2.256,0.405 4.193,0.958 6.727,1.927 2.533,0.968 5.663,2.352 8.58,3.608 2.916,1.257 5.619,2.384 7.715,3.139 2.096,0.755 3.584,1.137 4.571,1.406 0.986,0.268 1.469,0.423 1.428,0.602 -0.042,0.181 -0.607,0.384 -2.445,0.552 -1.838,0.168 -4.947,0.301 -8.274,0.657 -3.329,0.356 -6.875,0.938 -10.121,1.492 -3.247,0.553 -6.193,1.079 -8.709,1.379 -2.517,0.3 -4.603,0.374 -6.808,0.015 -2.207,-0.359 -4.533,-1.153 -7.321,-1.617 -2.789,-0.462 -6.041,-0.594 -8.06,-0.64 -2.02,-0.045 -2.808,-0.003 -3.307,-0.045 -0.502,-0.042 -0.714,-0.171 -0.278,-0.692z"/>
   <circle class="fil0 str1" cx="23.136" cy="13.758" r="7.165"/>
   <path class="fil0 str0" d="M1.537 12.54c0.628,-0.532 1.256,-1.064 1.77,-1.502 0.514,-0.439 0.916,-0.784 1.783,-1.715 0.867,-0.932 2.2,-2.45 3.539,-3.608 1.338,-1.158 2.681,-1.957 4.207,-2.581 1.526,-0.625 3.234,-1.075 5.135,-1.338 1.9,-0.264 3.992,-0.34 6.118,-0.197 2.126,0.143 4.288,0.505 6.427,1.019 2.14,0.513 4.256,1.179 6.271,1.947 2.015,0.768 3.929,1.641 5.785,2.448 1.857,0.808 3.655,1.552 5.379,2.237 1.724,0.685 3.374,1.313 4.847,1.798 1.474,0.484 2.772,0.827 4.071,1.169"/>
  </g>
 </g>
</svg>
