<svg xmlns="http://www.w3.org/2000/svg" fill-rule="evenodd" clip-rule="evenodd" image-rendering="optimizeQuality" shape-rendering="geometricPrecision" text-rendering="geometricPrecision" viewBox="0 0 356 356">
  <path fill="#a38f75" d="M178 0c98 0 178 80 178 178s-80 178-178 178S0 276 0 178 80 0 178 0zm-52 98c17-10 34-14 51-14s30 4 39 13 14 20 14 34c0 22-12 40-35 52l-17 9-2 24c-4 1-8 2-13 2s-9-1-13-2l-2-40 3-3 14-6c20-10 29-21 29-32 0-7-2-12-6-16s-11-6-20-6-19 3-31 10c-3-2-6-6-8-11s-4-9-4-13zm21 143c4-2 10-4 17-4s13 1 17 4c2 3 3 8 3 14s-1 11-3 14c-5 2-10 4-17 4-6 0-12-1-17-4-2-3-2-8-2-14s1-11 2-13z"/>
</svg>
