<svg xmlns="http://www.w3.org/2000/svg" width="336.7393" height="96" fill-rule="evenodd" clip-rule="evenodd" image-rendering="optimizeQuality" shape-rendering="geometricPrecision" text-rendering="geometricPrecision" version="1" viewBox="0 0 9029 2574">
  <defs>
    <style>
      .str2{stroke:#1a1a1a;stroke-width:13.397}.fil0{fill:none}.fil1,.fil2{fill:#1a1a1a;fill-rule:nonzero}.fil1{fill:#8c6946}
    </style>
  </defs>
  <g id="Layer_x0020_1">
    <path d="M0 0h9029v2574H0V0z" class="fil0"/>
    <path d="M166 1667c-52 0-77 45-77 136s26 136 77 136c52 0 77-45 77-136s-26-136-77-136zm-90 293c-36-32-54-85-54-157s18-124 54-157c25-22 55-32 90-32 36 0 66 11 91 32 36 32 53 85 53 157s-18 124-53 157c-25 22-56 32-91 32-36 0-66-11-90-32zm420-246c27 0 48 12 64 37 15 25 23 58 23 101s-10 77-29 101-42 37-70 37c-17 0-35-5-53-15v84c0 15-3 25-8 32-5 6-14 9-27 9h-24l-4-4v-375l4-3h18c17 0 29 9 36 26 19-21 43-31 70-31zm-18 54c-18 0-34 10-48 29v126c16 11 31 16 44 16s24-8 32-23 12-37 12-65-4-49-11-63c-7-13-17-20-29-20zm348 106H685c1 21 5 37 13 49s22 17 42 17 42-6 66-19c9 10 15 23 18 40-27 20-59 30-97 30s-65-13-81-39-25-59-25-101c0-41 9-75 27-101s44-39 78-39 60 11 78 32 27 49 27 81c0 16-2 32-5 47zm-97-113c-28 0-42 22-44 66h88v-6c0-18-4-32-11-43s-18-17-33-17zm365 45v118c0 22 3 38 10 50-11 9-23 14-37 14s-23-3-28-10-8-17-8-31v-127c0-16-2-27-6-34s-11-10-22-10c-19 0-37 9-53 27v183c-9 2-20 3-31 3s-22-1-32-3v-263l4-3h23c19 0 31 11 34 32 25-23 49-34 73-34s42 8 54 25 17 39 17 65zm360 95l-26 1h-70l-26-1-25 84c-7 2-16 3-29 3-12 0-22-2-30-5l-3-3 113-359c11-2 24-3 38-3s26 1 35 3l111 359c-10 6-21 9-34 9s-22-3-27-8c-6-5-10-15-14-28l-15-52zm-106-54l24-1h67l-17-60c-9-32-18-65-27-102h-3c-4 22-11 50-22 86l-22 75zm446-40v118c0 22 3 38 10 50-11 9-23 14-37 14s-23-3-28-10-8-17-8-31v-127c0-16-2-27-6-34s-11-10-22-10c-19 0-37 9-53 27v183c-9 2-20 3-31 3s-22-1-32-3v-263l4-3h23c19 0 31 11 34 32 25-23 49-34 73-34s42 8 54 25 17 39 17 65zm199 22v-6c0-18-3-32-8-43s-15-16-30-16c-29 0-43 29-43 88s17 88 52 88c17 0 37-9 59-26 5 4 10 9 15 17 5 7 8 15 10 22-25 27-56 40-92 40s-63-13-81-38c-18-26-27-60-27-104s11-78 32-101 46-35 76-35c29 0 52 8 69 25 17 16 25 36 25 59s-10 34-31 34c-8 0-16-1-26-3zm185-56v212c-9 2-20 3-31 3s-22-1-32-3v-188c0-19-8-29-23-29h-6c-2-6-3-14-3-23s1-17 3-24c12-1 24-2 37-2h8c14 0 26 5 34 14 8 10 12 23 12 39zm-73-100c-3-8-5-17-5-26s2-18 5-26c9-5 20-7 33-7s23 2 31 7c3 8 5 17 5 26s-2 18-5 26c-8 5-19 7-33 7s-24-2-31-7zm333 201h-141c1 21 5 37 13 49s22 17 42 17 42-6 66-19c9 10 15 23 18 40-27 20-59 30-97 30s-65-13-81-39-25-59-25-101c0-41 9-75 27-101s44-39 78-39 60 11 78 32 27 49 27 81c0 16-2 32-5 47zm-97-113c-28 0-42 22-44 66h88v-6c0-18-4-32-11-43s-18-17-33-17zm365 45v118c0 22 3 38 10 50-11 9-23 14-37 14s-23-3-28-10-8-17-8-31v-127c0-16-2-27-6-34s-11-10-22-10c-19 0-37 9-53 27v183c-9 2-20 3-31 3s-22-1-32-3v-263l4-3h23c19 0 31 11 34 32 25-23 49-34 73-34s42 8 54 25 17 39 17 65zm202-86c2 7 3 15 3 24s-1 17-3 24l-62-1v145c0 16 7 24 22 24h32c3 11 5 20 5 28s-1 14-2 19c-21 3-41 5-60 5-39 0-58-21-58-62v-158l-38 1c-2-7-3-15-3-24s1-17 3-24l38 1v-40c0-15 3-25 8-32 5-6 14-9 26-9h24l3 4v78l62-1zm230 178l-1 31c14-1 26-1 35-1h125c0 11 0 19-1 25-4 22-17 32-41 32h-144c-11 0-20-4-27-11s-10-17-10-30v-320l4-4h208c2 9 3 17 3 26s-2 19-5 31h-146l1 36v60c8 0 19-1 32-1h88c2 9 4 18 4 28s-1 19-4 28h-88c-13 0-24 0-32-1v69zm290 92c-29 0-51-12-67-37-15-24-23-58-23-101s10-77 29-101 42-37 69-37 50 9 68 27c10-13 23-21 40-23 5 3 9 8 13 15s7 13 8 19c-9 9-14 24-14 46v151c0 56-9 96-26 120-17 23-46 35-86 35-31 0-61-6-90-18 0-20 5-36 16-48 23 11 46 16 68 16s37-6 46-18c8-12 13-28 13-49v-21c-19 17-40 25-63 25zm63-80v-123c-15-15-29-22-43-22s-25 8-33 23-12 37-12 65 4 49 11 63c7 13 17 20 28 20 18 0 34-9 49-26zm333-183l-65 250c-11 43-25 74-42 94s-42 30-75 30c-18 0-36-3-53-10v-9c0-4 1-10 3-19 2-8 5-15 10-20 14 5 28 7 42 7 26 0 44-19 54-57l2-7c-12 0-22-3-29-7-7-5-12-12-15-23l-63-231c13-6 26-10 38-10 16 0 26 10 31 29l30 115c1 3 6 28 16 75 0 2 2 4 5 4l51-218c8-2 17-3 28-3s21 2 30 5l2 4zm167-14c27 0 48 12 64 37 15 25 23 58 23 101s-10 77-29 101-42 37-70 37c-17 0-35-5-53-15v84c0 15-3 25-8 32-5 6-14 9-27 9h-24l-4-4v-375l4-3h18c17 0 29 9 36 26 19-21 43-31 70-31zm-18 54c-18 0-34 10-48 29v126c16 11 31 16 44 16s24-8 32-23 12-37 12-65-4-49-11-63c-7-13-17-20-29-20zm291-47c2 7 3 15 3 24s-1 17-3 24l-61-1v145c0 16 7 24 22 24h32c3 11 5 20 5 28s-1 14-2 19c-21 3-41 5-60 5-39 0-58-21-58-62v-158l-38 1c-2-7-3-15-3-24s1-17 3-24l38 1v-40c0-15 3-25 8-32 5-6 14-9 26-9h24l3 4v78l61-1zm129 52v212c-9 2-20 3-31 3s-22-1-32-3v-188c0-19-8-29-23-29h-6c-2-6-3-14-3-23s1-17 3-24c12-1 24-2 37-2h8c14 0 26 5 34 14 8 10 12 23 12 39zm-73-100c-3-8-5-17-5-26s2-18 5-26c9-5 20-7 33-7s23 2 31 7c3 8 5 17 5 26s-2 18-5 26c-8 5-19 7-33 7s-24-2-31-7zm345 282c-2 6-5 12-9 19s-8 12-13 15c-21-2-36-13-46-31-22 23-46 34-72 34s-45-8-58-24-20-34-20-55c0-30 9-52 27-67s42-23 70-23c15 0 30 1 44 2v-16c0-28-13-42-38-42-18 0-44 6-77 19-10-11-15-27-17-47 36-16 73-24 109-24 25 0 46 7 62 22s24 37 24 68v109c0 20 5 33 14 42zm-127-13c17 0 34-9 50-26v-47c-12-1-25-2-38-2-14 0-24 4-31 11s-11 17-11 28 3 20 8 26 13 9 22 9zm388-135v118c0 22 3 38 10 50-11 9-23 14-37 14s-23-3-28-10-8-17-8-31v-127c0-16-2-27-6-34s-11-10-22-10c-19 0-37 9-53 27v183c-9 2-20 3-31 3s-22-1-32-3v-263l4-3h23c19 0 31 11 34 32 25-23 49-34 73-34s42 8 54 25 17 39 17 65zm398-161c21 18 36 40 43 65 8 26 11 56 11 92s-4 66-11 92c-8 26-22 48-43 66-10 9-24 16-41 20s-34 7-52 7c-17 0-55-1-114-2l-4-3v-358l4-3c39-1 78-2 117-2 15 0 32 2 49 7s31 11 41 20zm-25 245c5-14 9-27 11-41s3-29 3-46-1-33-3-46c-2-14-5-27-11-41-5-14-13-24-24-32s-27-11-46-11c-20 0-37 0-50-1v262h56c16 0 30-4 41-11 11-8 19-18 24-32zm209-118v212c-9 2-20 3-31 3s-22-1-32-3v-188c0-19-8-29-23-29h-6c-2-6-3-14-3-23s1-17 3-24c12-1 24-2 37-2h8c14 0 26 5 34 14 8 10 12 23 12 39zm-73-100c-3-8-5-17-5-26s2-18 5-26c9-5 20-7 33-7s23 2 31 7c3 8 5 17 5 26s-2 18-5 26c-8 5-19 7-33 7s-24-2-31-7zm273 156v-6c0-18-3-32-8-43s-15-16-31-16c-29 0-43 29-43 88s17 88 52 88c17 0 37-9 59-26 5 4 10 9 15 17 5 7 8 15 10 22-25 27-56 40-92 40s-63-13-81-38c-18-26-27-60-27-104s11-78 32-101 46-35 76-35c29 0 52 8 69 25 17 16 25 36 25 59s-10 34-31 34c-8 0-16-1-26-3zm241-109c2 7 3 15 3 24s-1 17-3 24l-62-1v145c0 16 7 24 22 24h32c3 11 5 20 5 28s-1 14-2 19c-21 3-41 5-60 5-39 0-58-21-58-62v-158l-38 1c-2-7-3-15-3-24s1-17 3-24l38 1v-40c0-15 3-25 8-32 5-6 14-9 26-9h24l3 4v78l62-1zm129 52v212c-9 2-20 3-31 3s-22-1-32-3v-188c0-19-8-29-23-29h-6c-2-6-3-14-3-23s1-17 3-24c12-1 24-2 37-2h8c14 0 26 5 34 14 8 10 12 23 12 39zm-73-100c-3-8-5-17-5-26s2-18 5-26c9-5 20-7 33-7s23 2 31 7c3 8 5 17 5 26s-2 18-5 26c-8 5-19 7-33 7s-24-2-31-7zm316 71c24 25 36 62 36 109 0 48-12 84-36 109-19 20-44 30-76 30-31 0-57-10-76-30-24-25-36-62-36-109 0-48 12-84 36-109 19-20 44-30 76-30 31 0 57 10 76 30zm-76 20c-32 0-48 30-48 89 0 60 16 89 48 89s48-30 48-89c0-60-16-89-48-89zm373 43v118c0 22 3 38 10 50-11 9-23 14-37 14s-23-3-28-10-8-17-8-31v-127c0-16-2-27-6-34s-11-10-22-10c-19 0-37 9-53 27v183c-9 2-20 3-31 3s-22-1-32-3v-263l4-3h23c19 0 31 11 34 32 25-23 49-34 73-34s42 8 54 25 17 39 17 65zm271 149c-2 6-5 12-9 19s-8 12-13 15c-21-2-36-13-46-31-22 23-46 34-72 34s-45-8-58-24-20-34-20-55c0-30 9-52 27-67s42-23 70-23c15 0 30 1 44 2v-16c0-28-13-42-38-42-18 0-44 6-77 19-10-11-15-27-17-47 36-16 73-24 109-24 25 0 46 7 61 22 16 15 24 37 24 68v109c0 20 5 33 14 42zm-127-13c17 0 34-9 50-26v-47c-12-1-25-2-38-2-14 0-24 4-31 11s-11 17-11 28 3 20 8 26 13 9 22 9zm167-190c1-6 4-13 8-19 4-7 8-12 13-15 26 4 44 20 53 47 13-32 35-47 65-47 8 0 17 1 29 4 0 23-5 44-15 62-5-1-13-2-23-3-21 0-37 12-49 35v171c-9 2-20 3-31 3s-22-1-32-3v-178c0-26-6-44-19-55zm421-24l-65 250c-11 43-25 74-42 94s-42 30-75 30c-18 0-36-3-53-10v-9c0-4 1-10 3-19 2-8 5-15 10-20 14 5 28 7 42 7 26 0 44-19 54-57l2-7c-12 0-22-3-29-7-7-5-12-12-15-23l-63-231c13-6 26-10 38-10 16 0 26 10 31 29l30 115c1 3 6 28 16 75 0 2 2 4 5 4l51-218c8-2 17-3 28-3s21 2 30 5l2 4zm271-109c36 0 64 10 86 31s33 51 33 90-11 69-33 90-50 32-86 32h-48v123c-8 2-19 3-32 3s-24-1-32-3v-361l4-3c53-1 89-2 109-2zm-48 53v139c23-1 38-1 44-1 21 0 35-7 44-20 8-14 13-30 13-48 0-19-4-35-13-48-8-13-23-20-43-20s-35 0-46-1zm197 80c1-6 4-13 8-19 4-7 8-12 13-15 26 4 44 20 53 47 13-32 35-47 65-47 8 0 17 1 29 4 0 23-5 44-15 62-5-1-13-2-23-3-21 0-37 12-49 35v171c-9 2-20 3-31 3s-22-1-32-3v-178c0-26-6-44-19-55zm377-8c24 25 36 62 36 109 0 48-12 84-36 109-19 20-44 30-76 30-31 0-57-10-76-30-24-25-36-62-36-109 0-48 12-84 36-109 19-20 44-30 76-30 31 0 57 10 76 30zm-76 20c-32 0-48 30-48 89 0 60 16 89 48 89s48-30 48-89c0-60-16-89-48-89zm242 9v201c0 31-2 53-6 67-4 13-9 24-15 30-12 15-33 25-60 32-10-10-16-23-18-40 14-7 24-16 30-24 5-9 8-23 8-41v-199c0-19-8-29-23-29h-11c-2-6-3-14-3-23s1-17 3-24c13-1 27-2 41-2h9c14 0 25 5 33 14s12 22 12 39zm-74-100c-3-8-5-17-5-26s2-18 5-26c9-5 20-7 33-7s23 2 31 7c3 8 5 17 5 26s-2 18-5 26c-8 5-19 7-33 7s-24-2-31-7zM8573 1875h-141c1 21 5 37 13 49s22 17 42 17 42-6 66-19c9 10 15 23 18 40-27 20-59 30-97 30s-65-13-81-39-25-59-25-101c0-41 9-75 27-101s44-39 78-39 60 11 78 32 27 49 27 81c0 16-2 32-5 47zm-97-113c-28 0-42 22-44 66h88v-6c0-18-4-32-11-43s-18-17-33-17zm289 68v-6c0-18-3-32-8-43s-15-16-30-16c-29 0-43 29-43 88s17 88 52 88c17 0 37-9 59-26 5 4 10 9 15 17 5 7 8 15 10 22-25 27-56 40-92 40s-63-13-81-38c-18-26-27-60-27-104s11-78 32-101 46-35 76-35c29 0 52 8 69 25 17 16 25 36 25 59s-10 34-31 34c-8 0-16-1-26-3zm241-109c2 7 3 15 3 24s-1 17-3 24l-62-1v145c0 16 7 24 22 24h32c3 11 5 20 5 28s-1 14-2 19c-21 3-41 5-60 5-39 0-58-21-58-62v-158l-38 1c-2-7-3-15-3-24s1-17 3-24l38 1v-40c0-15 3-25 8-32 5-6 14-9 26-9h24l3 4v78l62-1z" class="fil1"/>
    <path stroke="#1a1a1a" stroke-width="53.6186" d="M2930 815c58 0 105 47 105 105s-47 105-105 105-105-47-105-105 47-105 105-105z" class="fil0"/>
    <path stroke="#1a1a1a" stroke-width="93.8401" d="M2930 471c248 0 449 201 449 449s-201 449-449 449-449-201-449-449 201-449 449-449z" class="fil0"/>
    <path d="M47 613c0-5 2-9 7-12 5-2 9-4 14-4 20 0 41 1 61 3 21 2 41 3 62 3 18 0 37-1 55-3s37-3 55-3c11 0 17 5 17 16 0 3-1 6-3 9s-5 5-8 7-6 4-10 5c-3 2-6 3-8 4-14 8-23 18-27 31-4 12-6 27-6 42l1 117v26c0 7 2 12 4 16s7 6 12 7c6 1 14 1 25 1h229c11 0 19-3 22-9s5-15 5-26V739c0-16-1-30-2-42s-5-23-10-32-12-16-22-22c-9-6-22-10-37-14-2-1-5-1-8-2s-6-2-10-3c-3-1-6-3-8-5s-3-5-3-8c0-7 2-12 7-13 5-2 10-2 15-2 21 0 42 1 62 3s41 3 62 3c18 0 35-1 53-3s35-3 53-3c4 0 9 1 12 3 4 2 6 6 6 12 0 7-4 13-12 16l-18 9c-14 7-23 17-27 31-4 13-6 27-6 42l1 389c0 15 1 29 2 42 2 12 5 23 10 32s12 17 21 23 21 11 37 13c2 1 5 1 9 1s7 1 10 2 5 2 7 4 3 5 3 9c0 7-2 11-7 13-4 2-9 3-14 3-23 0-45-1-68-3-22-2-45-3-68-3-16 0-32 1-48 3s-32 3-48 3c-4 0-8-1-12-3s-5-6-5-12c0-8 3-13 10-16 6-2 13-6 21-10 8-5 15-12 21-22s10-26 10-49v-82-82c0-9-1-18-4-27-2-10-9-15-19-15H279c-10 0-16 3-19 8s-4 13-4 23v21c0 10-1 23-1 37v46c0 16 0 32 1 47s2 29 4 41 4 21 7 26c6 11 14 19 24 24s20 8 29 10c10 2 18 4 25 6s10 6 10 12c0 7-2 11-7 13-4 2-9 3-14 3-22 0-44-1-66-3s-44-3-66-3c-18 0-35 1-52 3s-34 3-52 3c-9 0-14-5-14-16 0-6 2-11 7-14s10-6 16-9 12-7 18-11 11-11 13-20c3-9 4-19 5-30 1-12 1-22 1-32V735c0-16-1-30-2-42-2-12-5-23-10-31-5-9-12-16-21-22s-21-11-37-14c-4-1-10-2-18-4-7-2-11-6-11-14zm764 0c0-8 4-12 11-14 7-1 13-2 18-2 19 0 39 1 58 3s39 3 58 3c18 0 36-1 54-3s36-3 54-3c4 0 8 1 12 3s5 6 5 12c0 4-2 7-5 10s-7 6-11 9c-4 2-9 5-13 7s-8 4-10 6c-11 9-17 20-19 33-2 14-3 27-3 40v382c0 10 1 23 2 38s5 27 10 36c6 11 14 19 24 24s20 8 29 10c10 2 18 4 25 6s10 6 10 12c0 7-2 11-7 13-4 2-9 3-14 3-22 0-43-1-65-3s-43-3-65-3c-17 0-34 1-52 3-17 2-34 3-52 3-4 0-8-1-12-4-4-2-5-6-5-12 0-4 1-7 3-9s5-5 8-7 7-4 10-5c3-2 6-3 8-4 14-8 23-19 27-32 3-14 5-28 5-44V738c0-12-1-24-2-37s-4-25-10-36-14-19-24-24-20-9-29-11-18-5-24-7c-7-2-10-6-10-12zm351-1c0-6 2-10 5-12 4-2 8-3 12-3 37 0 73 1 108 3 36 2 72 3 108 3 35 0 69-1 104-3 34-2 69-3 104-3 8 0 14 2 18 7s6 11 8 18c1 7 2 15 2 23v21c0 10 0 19 1 29 1 9 1 19 1 29 0 5-2 10-5 14-4 4-8 6-13 6-6 0-10-3-13-9s-6-13-8-21-5-17-8-25c-3-9-7-15-12-20-5-4-11-8-17-10-7-3-14-5-21-6-7-2-15-2-23-3h-108c-13 0-22 3-27 10-4 6-7 17-7 31v166c0 11 4 18 12 20s16 4 24 4h51c10-1 19-2 27-3 9-2 15-4 20-7s10-8 15-16 10-15 15-23 10-15 15-21 9-9 12-9c6 0 10 3 12 10 2 6 2 12 2 17 0 13-1 27-3 40s-3 27-3 41c0 15 1 30 3 45s3 30 3 45c0 7-1 12-3 15s-6 5-12 5c-8 0-13-3-15-9s-5-14-7-22c-2-9-5-18-9-27s-10-16-19-22c-6-3-12-5-20-7s-16-3-25-4-17-1-26-1h-22c-5 0-10 0-16 1s-11 2-16 4-9 5-12 10c-3 4-5 10-5 17v165c0 22 4 39 11 52s22 19 45 19c33 0 66-4 100-13 33-9 63-26 88-51 2-2 6-7 10-12l15-18c6-6 11-12 15-17 5-5 8-7 10-7 6 0 10 2 12 7s2 10 2 16c0 9-1 18-4 26-2 9-5 17-9 26-13 32-29 56-49 72s-47 23-79 23c-25 0-51-1-76-3s-51-3-76-3c-27 0-54 1-81 3s-54 3-81 3c-4 0-9-1-14-2-5-2-7-6-7-12s2-10 7-13c5-2 11-5 17-9 7-3 13-8 19-15s11-17 14-32c2-9 3-18 3-27V742c0-10-1-23-2-38s-4-27-10-36c-6-10-14-17-24-21s-20-7-29-10c-9-2-18-4-24-7-7-2-10-7-10-14zm574-1c0-7 3-11 8-12s10-2 15-2c22 0 43 1 64 3s43 3 64 3c28 0 56-1 83-3s55-3 83-3c23 0 46 4 68 11s41 18 58 32 31 32 41 53 16 46 16 74c0 26-6 50-17 73s-27 41-48 53c-2 1-4 3-8 5s-7 4-11 6-7 5-10 7-5 5-5 6c0 2 2 9 7 18 5 10 11 21 17 35 7 14 15 29 23 45 9 16 17 31 24 46 8 14 15 27 21 38s10 19 12 23c3 5 7 12 11 20s9 15 15 22 11 13 18 18c6 5 13 7 19 7 4 0 9-1 12-3 4-2 8-3 12-3 8 0 12 5 12 15 0 9-4 16-11 22s-16 11-26 15-20 7-30 9-18 3-24 3c-21 0-40-7-56-20-17-13-32-31-46-52s-26-44-38-68c-11-25-22-48-33-70s-21-42-31-59-20-28-31-33c-8-4-16-6-26-6h-27c-7 0-14 1-21 3s-11 8-11 17v142c0 14 1 27 2 38s4 21 7 30c4 9 10 16 17 23 8 6 18 12 32 16 2 1 5 1 9 2s7 2 10 4 6 3 9 5c2 2 4 5 4 8 0 6-2 10-7 11-5 2-10 2-14 2-20 0-41-1-62-3-20-2-41-3-62-3-16 0-33 1-49 3-17 2-33 3-49 3-4 0-8-1-12-3s-5-6-5-12c0-4 1-7 3-10s5-5 8-7 7-3 10-5 6-3 8-4c14-8 23-19 27-34 3-15 5-30 5-46V735c0-14-1-27-2-38-1-12-4-22-8-31s-10-17-19-24c-8-7-19-12-33-16-4-1-10-3-17-5s-11-7-11-14zm199 244c0 14 1 24 4 31s11 10 25 10h56c19 0 37-3 53-9 16-5 29-15 39-29s15-34 15-62c0-22-3-42-9-61s-15-35-26-49-25-25-41-33-35-12-55-12c-12 0-21 1-29 2-8 2-15 5-19 9-5 5-8 11-10 19s-3 19-3 32v149zm1672 96c0-49 7-96 22-140s36-82 63-115 60-58 98-77 80-28 127-28c30 0 59 4 88 11s57 18 84 32c4 2 10 6 17 10s13 6 17 6 7-1 9-4 4-6 6-10 4-7 6-10 5-4 9-4c7 0 11 3 13 9s3 12 3 18c0 15-1 29-2 43s-2 29-2 43c0 12 1 24 2 37 2 12 2 25 2 37 0 5-1 11-3 16s-6 8-12 8-10-2-13-7-5-9-7-14c-4-12-9-23-13-34s-9-22-15-32c-21-35-49-62-83-81s-70-29-108-29c-36 0-67 7-92 22s-46 35-62 60-28 54-35 87-11 66-11 102c0 34 4 69 11 104s19 67 36 96c16 29 37 52 63 70 25 18 56 27 93 27 12 0 24-1 36-4 12-2 23-6 34-10 15-5 27-11 37-17 9-6 17-13 22-22 6-9 9-19 11-31s3-26 3-43c0-18-1-33-2-46-1-12-4-22-9-30s-12-14-22-18-24-8-41-11c-5-1-10-3-16-4-6-2-9-6-9-13s3-11 8-13 10-3 15-3c21 0 42 1 62 3s41 3 62 3c17 0 34-1 51-3s33-3 51-3c4 0 9 1 15 2 5 2 8 6 8 13 0 6-2 10-6 12s-8 4-12 5c-17 7-28 16-34 28s-9 28-9 47l1 89c0 7-2 13-5 18-4 5-8 9-14 12-14 9-29 16-44 23s-30 13-45 19c-29 12-58 21-88 29-29 8-59 11-91 11-40 0-78-8-114-25-56-26-98-61-124-107s-39-102-39-168zm776-211c0-10-1-23-2-37-1-15-4-26-9-36-6-10-14-18-24-23s-20-9-29-11c-9-3-18-5-25-8-7-2-11-6-11-12s2-10 7-12 9-3 14-3c20 0 41 1 61 3s41 3 61 3c18 0 36-1 54-3s36-3 54-3c4 0 8 1 12 3s5 6 5 12c0 7-4 13-11 16-7 4-14 7-19 10-14 9-23 21-26 36-3 16-5 31-5 47v409c0 24 4 40 11 48 7 9 22 13 44 13 29 0 59-3 90-10 31-6 58-19 83-39 11-9 21-18 29-30 9-11 17-23 26-34l5-5c1-1 3-2 6-2 5 0 9 2 11 6s3 9 3 14c0 21-4 40-11 57s-17 33-29 49c-13 17-27 28-44 34s-35 9-54 9c-26 0-52-1-78-3s-52-3-78-3c-28 0-56 1-84 3s-56 3-84 3c-4 0-9-1-12-3-4-2-6-6-6-11s2-9 7-12c4-2 10-5 15-9 6-3 12-7 18-12s11-12 15-23c2-4 3-10 3-18 1-8 1-17 2-26s1-17 1-26V737zm446-128c0-10 4-15 13-15 18 0 35 1 53 3 17 2 35 3 53 3 20 0 40-1 59-3 20-2 39-3 59-3 4 0 8 1 12 4 3 3 5 7 5 11 0 7-3 12-8 16-5 3-11 6-18 8s-13 5-18 8-8 8-8 16c0 5 3 14 8 27s12 28 20 45 17 35 26 54 18 36 26 52 15 29 21 40 9 17 9 18c1 2 3 3 5 4s4 1 5 1c4 0 8-2 11-6s5-8 7-12l77-151c3-7 7-14 10-23 4-9 5-17 5-25 0-12-4-22-13-29s-18-12-28-16-20-7-28-10c-9-3-13-7-13-12 0-12 6-18 18-18 14 0 28 1 42 3s28 3 42 3c15 0 30-1 45-3s30-3 45-3c4 0 8 1 12 3 3 2 5 6 5 11s-2 9-5 11c-3 3-6 5-10 7-15 9-27 18-37 29s-19 24-28 40l-63 120c-21 40-42 81-63 121-4 9-7 16-8 21s-2 12-2 23v122c0 19 3 38 8 55s17 29 35 37c3 1 8 3 14 4 6 2 12 4 19 6 6 2 12 5 17 9s7 8 7 12c0 10-4 15-12 15-24 0-49-1-73-3s-48-3-73-3c-23 0-45 1-68 3-22 2-45 3-68 3-11 0-16-5-16-16 0-4 4-8 11-12s16-7 25-11c10-4 19-7 28-11s15-8 19-12c4-5 7-12 10-21s4-19 5-29 1-21 2-31V987c0-2-3-10-10-24l-26-52c-11-21-22-43-34-67s-24-46-34-66-20-38-27-52c-8-14-12-22-12-24-8-15-17-27-27-36s-19-17-28-23-17-11-23-14c-7-3-10-6-12-8-1-1-1-3-1-6zM5436 610c0-5 3-9 8-10 6-2 10-2 14-2 19 0 39 1 58 3 20 2 39 3 58 3 27 0 54-1 81-3s54-3 81-3c25 0 50 4 74 11 24 8 45 19 63 35s33 35 44 57c11 23 16 50 16 81 0 29-5 55-16 77s-25 41-42 56c-18 15-38 26-61 34s-46 11-71 11h-22c-9 0-18-2-27-4s-17-6-24-10c-7-5-10-12-10-20 0-10 5-16 16-16 7 0 13 1 20 2 7 2 14 2 20 2 35 0 61-12 79-36s27-54 27-91c0-21-3-40-9-57-6-18-15-33-26-46s-25-23-41-30-33-11-52-11c-14 0-26 2-34 5-8 4-15 9-19 16s-7 16-8 26c-1 11-2 23-2 36v370c0 10 0 19 1 29s2 19 5 28c2 9 6 17 12 24 5 7 13 13 22 17 3 1 7 3 13 5s11 4 17 6 10 5 15 9c4 3 6 7 6 11 0 7-2 11-7 13s-10 3-14 3c-20 0-41-1-61-3s-41-3-61-3c-16 0-33 1-49 3-17 2-33 3-49 3-5 0-9-1-13-3s-5-6-5-13c0-4 1-7 3-10s5-5 8-7 7-3 10-5 6-3 8-4c14-8 23-19 27-32 3-14 5-28 5-44V741c0-11 0-23-1-36s-3-24-7-34c-5-12-12-20-21-25s-18-9-27-12-17-6-23-10c-7-3-10-9-10-18zm543 3c0-5 2-9 7-12 5-2 9-4 14-4 20 0 41 1 61 3 21 2 41 3 62 3 18 0 37-1 55-3s37-3 55-3c11 0 17 5 17 16 0 3-1 6-3 9s-5 5-8 7-6 4-10 5c-3 2-6 3-8 4-14 8-23 18-27 31-4 12-6 27-6 42l1 117v26c0 7 2 12 4 16s7 6 12 7c6 1 14 1 25 1h229c11 0 19-3 22-9s5-15 5-26V739c0-16-1-30-2-42s-5-23-10-32-12-16-22-22c-9-6-22-10-37-14-2-1-5-1-8-2s-6-2-10-3c-3-1-6-3-8-5s-3-5-3-8c0-7 2-12 7-13 5-2 10-2 15-2 21 0 42 1 62 3s41 3 62 3c18 0 35-1 53-3s35-3 53-3c4 0 9 1 12 3 4 2 6 6 6 12 0 7-4 13-12 16l-18 9c-14 7-23 17-27 31-4 13-6 27-6 42l1 389c0 15 1 29 2 42 2 12 5 23 10 32s12 17 21 23 21 11 37 13c2 1 5 1 9 1s7 1 10 2 5 2 7 4 3 5 3 9c0 7-2 11-7 13-4 2-9 3-14 3-23 0-45-1-68-3-22-2-45-3-68-3-16 0-32 1-48 3s-32 3-48 3c-4 0-8-1-12-3s-5-6-5-12c0-8 3-13 10-16 6-2 13-6 21-10 8-5 15-12 21-22s10-26 10-49v-82-82c0-9-1-18-4-27-2-10-9-15-19-15h-251c-10 0-16 3-19 8s-4 13-4 23v21c0 10-1 23-1 37v46c0 16 0 32 1 47s2 29 4 41 4 21 7 26c6 11 14 19 24 24s20 8 29 10c10 2 18 4 25 6s10 6 10 12c0 7-2 11-7 13-4 2-9 3-14 3-22 0-44-1-66-3s-44-3-66-3c-18 0-35 1-52 3s-34 3-52 3c-9 0-14-5-14-16 0-6 2-11 7-14s10-6 16-9 12-7 18-11 11-11 13-20c3-9 4-19 5-30 1-12 1-22 1-32V735c0-16-1-30-2-42-2-12-5-23-10-31-5-9-12-16-21-22s-21-11-37-14c-4-1-10-2-18-4-7-2-11-6-11-14zm764 0c0-8 4-12 11-14 7-1 13-2 18-2 19 0 39 1 58 3s39 3 58 3c18 0 36-1 54-3s36-3 54-3c4 0 8 1 12 3s5 6 5 12c0 4-2 7-5 10s-7 6-11 9c-4 2-9 5-13 7s-8 4-10 6c-11 9-17 20-19 33-2 14-3 27-3 40v382c0 10 1 23 2 38s5 27 10 36c6 11 14 19 24 24s20 8 29 10c10 2 18 4 25 6s10 6 10 12c0 7-2 11-7 13-4 2-9 3-14 3-22 0-43-1-65-3s-43-3-65-3c-17 0-34 1-52 3-17 2-34 3-52 3-4 0-8-1-12-4-4-2-5-6-5-12 0-4 1-7 3-9s5-5 8-7 7-4 10-5c3-2 6-3 8-4 14-8 23-19 27-32 3-14 5-28 5-44V738c0-12-1-24-2-37s-4-25-10-36-14-19-24-24-20-9-29-11-18-5-24-7c-7-2-10-6-10-12zm353 324c0-49 8-94 24-136s38-79 66-110 61-55 99-73 79-26 124-26c26 0 52 3 77 10 25 6 50 15 74 27 6 3 12 7 20 11s15 6 21 6c4 0 7-1 9-4l6-9 6-9c2-3 5-4 9-4 6 0 10 3 12 10 2 6 4 12 4 17 1 10 2 19 2 29 0 9 1 19 2 29 1 18 3 35 5 53s4 36 4 53c0 5-1 9-3 13s-5 6-10 6-10-5-16-14-13-21-22-36c-9-14-19-30-31-46s-26-32-42-46-35-26-57-36c-22-9-46-14-75-14-33 0-61 6-86 19s-46 30-62 52c-17 22-29 48-38 77-9 30-13 61-13 94 0 35 5 71 15 106 10 36 25 68 44 96s43 51 71 69 60 27 95 27c34 0 64-6 90-19 26-12 48-26 66-41s33-28 44-41c11-12 18-19 23-19 4 0 7 2 10 5s4 7 4 11-1 9-4 15c-3 5-6 11-10 16s-8 11-12 16-8 9-10 12c-33 37-70 66-109 86-40 20-83 30-131 30-43 0-83-7-119-21s-67-35-93-62-46-60-61-99c-14-39-22-82-22-131zm622-325c0-7 2-11 7-12 4-2 9-2 13-2 18 0 35 1 53 3 17 2 35 3 53 3 19 0 38-1 57-3s38-3 57-3c5 0 9 1 13 3s6 6 6 13c0 5-2 9-6 12-4 2-9 5-14 7-6 2-11 5-18 9-6 4-11 10-15 20-2 4-3 10-4 16s-2 13-2 21c-1 7-1 14-1 21v217c0 16 0 32 1 48s2 33 4 48c3 27 10 50 21 70s24 36 40 50 34 24 55 31 43 10 66 10c40 0 73-8 98-24 26-16 46-38 61-64 15-27 25-57 31-92s8-71 8-108V784v-29c0-12-1-24-2-37-1-12-3-24-5-35s-6-19-10-25c-5-7-12-12-21-15l-27-9c-9-2-17-5-23-8-7-3-10-7-10-13s2-10 5-12 7-3 12-3c14 0 29 1 43 3s28 3 43 3c14 0 28-1 42-3s28-3 42-3c5 0 9 1 13 3s5 6 5 13-2 11-7 13c-4 2-10 4-16 6s-12 6-19 11c-6 5-11 14-15 27-3 11-5 26-5 45-1 19-1 39-1 60s0 41 1 61 1 36 1 50c0 54-4 104-13 148-9 45-24 83-46 115s-50 57-87 74c-36 18-82 26-136 26-33 0-67-4-100-12-34-8-64-25-90-50-17-16-29-34-39-54-9-20-16-41-20-64s-6-45-7-68-1-46-1-68V813 692c0-19-5-32-14-40s-19-13-30-16-21-6-30-8-14-7-14-16zm744 417c0-5 1-9 4-13s7-5 12-5c6 0 11 5 16 14s11 21 17 36 13 30 21 47c8 16 18 32 30 47s27 27 44 36 37 14 61 14c15 0 29-3 43-8s26-13 37-23 19-22 25-36 10-30 10-47c0-27-7-48-22-64s-33-29-56-41c-22-11-46-22-72-32s-50-22-72-37-41-33-56-56-22-52-22-89c0-27 5-52 14-74s22-41 38-57 34-28 55-36c21-9 44-13 68-13 12 0 24 2 36 6 13 4 25 8 37 13s22 9 32 13 18 6 24 6c9 0 17-2 24-6 6-4 12-6 19-6 6 0 10 3 11 10 1 6 2 12 2 17s0 11-1 16-1 11-1 16c0 19 2 38 5 57 4 18 5 37 5 57 0 5-1 9-3 14-2 4-6 6-11 6-6 0-11-2-14-7-4-5-6-10-8-16-1-4-2-7-3-11s-2-8-3-11c-6-18-13-35-23-50s-21-28-35-40c-13-11-28-20-44-26s-33-9-50-9c-12 0-24 2-36 5-12 4-22 9-31 16s-16 17-21 28c-6 11-8 24-8 39 0 23 7 42 22 56s33 26 56 37c22 11 47 21 72 31 26 10 50 24 72 40s41 37 56 62 22 57 22 98c0 29-5 55-14 80s-22 46-39 64-36 32-58 42-47 16-73 16c-22 0-42-3-62-9s-40-12-60-19c-8-2-16-4-22-5s-12-2-17-5c-5-2-9-5-13-10s-7-12-10-23-6-23-9-36l-9-39c-3-13-5-26-7-39s-3-25-3-36z" class="fil2 str2"/>
  </g>
</svg>
