<svg xmlns="http://www.w3.org/2000/svg" width="40" height="40" fill-rule="evenodd" clip-rule="evenodd" image-rendering="optimizeQuality" shape-rendering="geometricPrecision" text-rendering="geometricPrecision" viewBox="0 0 2.204 2.204">
  <path fill="#ffd857" d="M1.102 0c.609 0 1.102.493 1.102 1.102 0 .609-.493 1.102-1.102 1.102C.493 2.204 0 1.711 0 1.102 0 .493.493 0 1.102 0zM.989.716c0-.06.049-.11.11-.11s.11.05.11.11v.441c0 .061-.049.11-.11.11s-.11-.049-.11-.11V.716zm.22.774c0 .06-.049.11-.11.11s-.11-.05-.11-.11v-.003c0-.061.049-.11.11-.11s.11.049.11.11v.003z"/>
</svg>
