<svg xmlns="http://www.w3.org/2000/svg" width="40" height="40" fill-rule="evenodd" clip-rule="evenodd" image-rendering="optimizeQuality" shape-rendering="geometricPrecision" text-rendering="geometricPrecision" viewBox="0 0 1.966 1.966">
  <path fill="#aa4641" d="M.983 0c.543 0 .983.44.983.983 0 .543-.44.983-.983.983C.44 1.966 0 1.526 0 .983 0 .44.44 0 .983 0zm0 .844l.274-.275a.099.099 0 0 1 .139 0c.039.039.039.101 0 .139l-.274.275.276.276c.038.038.038.1 0 .139a.099.099 0 0 1-.139 0l-.276-.276-.275.274c-.038.039-.1.039-.139 0a.099.099 0 0 1 0-.139L.844.983.569.708a.099.099 0 0 1 0-.139.099.099 0 0 1 .139 0l.275.275z"/>
</svg>
