<?xml version="1.0" encoding="UTF-8"?>
<!DOCTYPE svg PUBLIC "-//W3C//DTD SVG 1.0//EN" "http://www.w3.org/TR/2001/REC-SVG-20010904/DTD/svg10.dtd">
<!-- Creator: CorelDRAW 2017 -->
<svg xmlns="http://www.w3.org/2000/svg" xml:space="preserve" width="39px" height="39px" version="1.0" style="shape-rendering:geometricPrecision; text-rendering:geometricPrecision; image-rendering:optimizeQuality; fill-rule:evenodd; clip-rule:evenodd"
viewBox="0 0 0.898 0.898"
 xmlns:xlink="http://www.w3.org/1999/xlink">
 <defs>
  <style type="text/css">
   <![CDATA[
    .fil0 {fill:#4D4D4D;fill-rule:nonzero}
   ]]>
  </style>
 </defs>
 <g id="Layer_x0020_1">
  <metadata id="CorelCorpID_0Corel-Layer"/>
  <path class="fil0" d="M0.378 0c0.104,0 0.199,0.042 0.267,0.111 0.069,0.068 0.111,0.163 0.111,0.267 0,0.079 -0.025,0.153 -0.066,0.214l0.188 0.188c0.027,0.027 0.027,0.071 0,0.098 -0.027,0.027 -0.071,0.027 -0.098,0l-0.188 -0.188c-0.061,0.041 -0.135,0.066 -0.214,0.066 -0.104,0 -0.199,-0.042 -0.267,-0.111 -0.069,-0.068 -0.111,-0.163 -0.111,-0.267 0,-0.104 0.042,-0.199 0.111,-0.267 0.068,-0.069 0.163,-0.111 0.267,-0.111zm0.17 0.208c-0.044,-0.043 -0.104,-0.07 -0.17,-0.07 -0.066,0 -0.126,0.027 -0.17,0.07 -0.043,0.044 -0.07,0.104 -0.07,0.17 0,0.066 0.027,0.126 0.07,0.17 0.044,0.043 0.104,0.07 0.17,0.07 0.066,0 0.126,-0.027 0.17,-0.07 0.043,-0.044 0.07,-0.104 0.07,-0.17 0,-0.066 -0.027,-0.126 -0.07,-0.17z"/>
 </g>
</svg>
