<?xml version="1.0" encoding="UTF-8" ?>
<!DOCTYPE svg PUBLIC "-//W3C//DTD SVG 1.1//EN" "http://www.w3.org/Graphics/SVG/1.1/DTD/svg11.dtd">
<svg width="571pt" height="749pt" viewBox="0 0 571 749" version="1.1" xmlns="http://www.w3.org/2000/svg">
<g id="#ffffffff">
<path fill="#ffffff" opacity="1.00" d=" M 372.32 0.00 L 380.69 0.00 C 401.14 1.03 421.82 7.18 437.90 20.20 C 446.24 26.88 453.55 34.97 458.73 44.35 C 464.08 54.03 467.82 64.49 471.37 74.94 C 478.22 95.44 484.06 116.27 490.43 136.93 C 491.90 141.78 493.67 147.24 491.28 152.11 C 489.02 157.76 482.64 160.33 476.90 160.26 C 463.92 160.53 450.93 160.34 437.95 160.38 C 438.53 162.95 440.33 164.99 441.72 167.16 C 447.48 175.67 455.14 182.84 463.99 188.04 C 472.23 192.73 481.55 196.94 486.50 205.51 C 492.58 215.66 490.86 228.13 488.60 239.15 C 483.39 263.39 473.96 286.53 469.38 310.91 C 464.81 333.40 461.43 356.15 459.79 379.05 C 458.08 403.02 457.60 427.05 457.16 451.06 C 456.07 525.36 456.30 599.67 456.11 673.97 C 463.65 678.93 469.12 686.22 475.57 692.40 C 485.57 702.09 497.71 709.42 510.62 714.55 C 522.76 719.38 535.45 722.63 548.04 726.05 C 553.36 727.52 558.78 728.85 563.79 731.23 C 567.14 732.79 570.07 735.57 571.00 739.27 L 571.00 741.58 C 568.13 748.97 558.90 748.11 552.48 749.00 L 526.78 749.00 C 511.20 748.16 495.51 748.02 480.05 745.54 C 458.13 742.11 436.27 737.69 414.00 737.35 C 366.57 736.25 319.29 741.28 272.07 745.08 C 252.09 746.72 232.08 748.27 212.03 748.61 C 208.58 748.72 205.11 748.51 201.68 749.00 L 76.86 749.00 C 71.16 748.01 64.81 748.69 59.81 745.28 C 56.49 742.94 56.16 738.18 57.75 734.72 C 59.37 730.70 63.04 727.88 67.04 726.45 C 73.20 724.14 79.79 723.44 86.15 721.84 C 100.54 718.53 114.38 713.14 127.81 707.06 C 128.42 694.34 134.66 682.42 143.63 673.58 C 151.08 665.99 159.90 659.98 168.61 653.97 C 165.66 626.30 162.67 598.64 160.35 570.92 C 158.82 549.32 156.58 527.48 159.54 505.91 C 161.65 489.47 171.87 473.91 187.17 467.00 C 198.95 461.13 213.07 461.92 224.99 466.95 C 239.02 472.87 250.62 483.12 261.52 493.52 C 285.02 516.78 306.27 542.16 327.89 567.14 C 328.30 567.89 329.15 568.32 329.89 568.69 L 329.25 566.62 C 330.10 538.76 330.89 510.89 331.62 483.02 C 332.02 462.35 332.95 441.65 331.69 421.00 C 330.22 398.71 325.68 376.76 320.35 355.12 C 319.47 351.83 318.87 348.46 317.62 345.28 C 311.18 348.72 303.10 348.87 296.59 345.52 C 291.84 343.16 288.10 339.06 285.78 334.33 C 281.37 323.99 276.31 313.95 271.70 303.70 C 246.47 316.77 221.26 329.90 196.09 343.09 C 190.38 346.58 183.58 349.00 176.83 347.57 C 169.85 346.42 164.23 341.52 160.25 335.91 C 146.02 318.51 130.13 302.54 115.69 285.33 C 99.13 265.88 85.57 244.16 70.05 223.93 C 63.75 217.02 59.36 208.70 53.74 201.27 C 48.91 194.81 42.37 189.98 36.32 184.75 C 27.44 177.21 19.38 168.43 14.00 158.02 C 6.85 144.23 5.18 128.17 6.56 112.87 C 7.37 105.16 9.42 96.54 16.17 91.83 C 12.32 86.73 8.11 81.92 4.12 76.93 C 2.63 75.01 0.70 73.30 0.00 70.89 L 0.00 69.28 C 1.39 66.08 4.75 64.53 7.18 62.24 C 9.26 60.73 11.16 58.15 14.03 58.55 C 16.46 58.89 17.69 61.25 19.18 62.91 C 46.12 95.86 73.07 128.80 100.04 161.72 C 129.54 147.30 158.99 132.76 188.50 118.34 C 188.93 118.04 189.79 117.44 190.22 117.14 C 186.34 112.02 183.70 104.88 186.82 98.74 C 190.54 91.32 199.29 88.57 207.01 87.88 C 217.01 87.07 228.27 87.92 236.04 95.02 C 241.78 92.16 247.52 89.30 253.31 86.54 C 258.91 83.71 266.39 87.14 267.94 93.19 C 269.41 97.89 267.07 103.40 262.64 105.56 C 256.76 108.47 250.90 111.41 244.96 114.19 C 246.69 124.38 246.89 134.75 245.94 145.04 C 245.19 153.58 245.01 162.77 249.59 170.37 C 251.64 173.44 253.38 176.69 255.02 179.99 C 264.86 197.71 276.25 214.51 286.32 232.10 C 289.82 230.12 293.24 227.95 296.28 225.30 C 304.29 218.36 312.52 211.54 319.31 203.36 C 323.50 198.22 327.21 191.92 326.62 185.04 C 326.10 178.00 321.47 172.16 316.41 167.62 C 311.15 162.66 304.59 159.42 298.98 154.90 C 293.27 150.32 288.05 145.07 283.89 139.03 C 275.13 126.61 272.56 110.90 273.34 95.99 C 274.28 73.62 283.41 51.92 297.92 34.98 C 308.80 22.44 323.39 13.71 338.62 7.47 C 349.33 3.07 360.79 0.78 372.32 0.00 M 325.04 38.75 C 347.20 38.35 369.82 44.03 387.90 57.19 C 396.30 63.10 404.08 70.83 407.27 80.84 C 411.45 93.86 408.42 107.78 411.08 121.03 C 411.95 125.93 415.40 129.92 419.59 132.40 C 424.19 135.14 428.95 137.82 434.06 139.43 C 445.66 138.82 457.30 139.47 468.90 139.04 C 462.06 116.97 455.97 94.65 448.18 72.88 C 444.12 61.82 439.39 50.55 430.73 42.24 C 417.15 28.11 397.31 21.53 378.02 21.26 C 358.97 20.73 340.53 28.07 325.04 38.75 M 308.43 56.54 C 296.78 72.69 292.00 93.92 295.67 113.54 C 298.04 126.26 307.81 136.01 318.39 142.65 C 330.50 150.39 342.06 160.93 346.23 175.15 C 349.79 186.52 347.43 199.14 341.17 209.13 C 333.12 222.14 321.01 231.82 309.70 241.82 C 314.05 256.94 318.62 272.01 323.37 287.01 C 335.04 278.79 346.91 270.84 358.83 262.97 C 370.83 255.05 383.43 248.11 396.02 241.17 C 415.64 230.35 435.46 219.87 454.80 208.53 C 454.83 208.23 454.91 207.64 454.95 207.35 C 439.67 198.76 426.95 185.72 418.79 170.21 C 415.70 164.23 415.90 157.17 417.94 150.90 C 409.07 146.63 400.35 140.43 396.50 131.01 C 390.98 117.63 394.09 102.84 391.85 88.91 C 389.77 78.18 379.73 71.81 371.05 66.57 C 352.26 55.46 329.61 54.59 308.43 56.54 M 38.38 119.10 C 39.16 122.80 39.19 126.69 40.80 130.18 C 43.37 136.26 48.89 140.26 54.00 144.11 C 59.92 148.59 66.09 152.96 70.86 158.71 C 70.17 157.60 69.41 156.53 68.54 155.55 C 58.34 143.52 48.73 130.99 38.38 119.10 M 114.00 178.46 C 115.22 180.65 117.06 182.41 118.58 184.40 C 144.98 216.66 171.37 248.93 197.79 281.19 C 198.72 282.25 199.50 283.45 199.51 284.93 C 215.00 273.39 231.30 262.92 248.27 253.70 C 240.92 237.76 233.43 221.88 226.02 205.97 C 222.26 198.17 219.02 190.02 213.85 183.01 C 208.43 174.92 200.94 168.65 194.17 161.77 C 189.30 156.88 184.92 150.18 186.70 142.95 C 162.38 154.62 138.31 166.79 114.00 178.46 M 85.02 176.00 C 88.41 180.81 90.07 186.49 92.00 191.97 C 112.69 215.28 133.70 238.30 154.48 261.53 C 155.65 262.80 156.63 264.33 158.25 265.09 C 158.35 265.48 158.53 266.24 158.62 266.62 C 160.43 267.63 161.18 269.63 162.78 270.85 C 162.69 270.52 162.51 269.86 162.42 269.53 C 159.90 267.94 158.93 264.92 156.54 263.15 C 132.63 234.17 109.06 204.87 85.02 176.00 M 450.04 276.12 C 412.39 295.80 374.72 315.42 337.09 335.14 C 343.39 358.74 348.99 382.61 351.75 406.92 C 354.48 430.55 353.41 454.38 352.97 478.11 C 352.22 506.59 351.50 535.08 350.53 563.56 C 378.45 552.02 406.65 541.17 434.98 530.68 C 435.63 510.48 435.28 490.21 435.68 469.98 C 436.47 422.41 436.42 374.52 444.70 327.52 C 447.98 308.99 451.48 290.45 456.78 272.38 C 454.66 273.84 452.30 274.90 450.04 276.12 M 184.79 496.57 C 179.41 505.70 179.64 516.74 179.34 527.00 C 179.56 555.05 182.75 582.97 185.42 610.87 C 186.81 622.58 187.51 634.42 189.38 646.04 C 228.36 621.52 268.81 599.18 310.97 580.60 C 310.69 579.76 310.24 579.03 309.62 578.41 C 298.18 565.17 286.81 551.87 275.13 538.85 C 263.30 525.73 251.45 512.55 238.17 500.87 C 229.92 493.88 221.01 486.71 210.15 484.53 C 200.21 482.24 189.74 487.96 184.79 496.57 M 321.56 594.34 C 286.88 609.71 253.19 627.30 220.65 646.79 C 203.89 656.86 187.07 666.88 171.07 678.14 C 163.40 683.89 155.35 690.06 151.24 698.99 C 148.50 705.14 147.65 713.14 152.29 718.61 C 158.24 725.75 168.16 727.70 177.03 727.36 C 196.18 728.13 215.01 722.03 231.52 712.65 C 248.54 702.99 264.84 691.27 283.99 686.13 C 305.97 680.35 329.12 683.22 350.91 688.41 C 363.79 691.34 376.53 696.03 389.92 695.67 C 398.78 695.53 407.33 692.37 414.85 687.81 C 422.03 683.60 428.06 677.76 435.00 673.20 C 434.88 631.69 435.01 590.17 435.15 548.66 C 396.99 563.13 358.86 577.74 321.56 594.34 Z" />
<path fill="#ffffff" opacity="1.00" d=" M 327.42 76.56 C 336.43 73.12 348.64 77.85 350.76 87.81 C 352.52 95.50 346.46 102.95 339.19 104.77 C 330.63 107.45 319.71 103.11 317.12 94.10 C 314.81 86.60 320.30 78.79 327.42 76.56 Z" />
</g>
</svg>
