<svg xmlns="http://www.w3.org/2000/svg" width="26.0001" height="26.0001" fill-rule="evenodd" clip-rule="evenodd" image-rendering="optimizeQuality" shape-rendering="geometricPrecision" text-rendering="geometricPrecision" viewBox="0 0 688 688">
  <path fill="#a38f75" d="M344 0c190 0 344 154 344 344S534 688 344 688 0 534 0 344 154 0 344 0zm32 156c13 0 23 4 30 12s11 18 11 30c0 9-2 17-7 25-4 8-11 14-19 19s-16 7-24 7c-7 0-15-2-22-6s-13-9-17-16-6-14-6-21c0-8 2-17 7-25s11-15 19-19 17-7 26-7zm8 113h25l-43 176c-3 12-5 20-5 22 0 3 1 5 3 7s4 3 7 3c8 0 19-6 31-18l27 34c-27 27-55 41-85 41-13 0-24-2-34-7-9-5-16-11-22-20s-8-18-8-26c0-3 1-8 2-16 2-11 3-20 5-27l24-98h-52l12-49c41-4 79-12 112-22z"/>
</svg>
