<svg xmlns="http://www.w3.org/2000/svg" height="36px" viewBox="0 0 550 740" preserveAspectRatio="xMidyMid meet">
  <g fill-opacity="0">
    <path d="M0 0h332.43c-12.47.53-24.83 3.24-36.3 8.14-14.16 6.05-27.72 14.31-37.94 25.99-14.41 16.59-23.53 37.93-24.63 59.95-.84 14.2 1.3 29.11 9.07 41.3 6.39 10.09 15.67 18.02 25.73 24.29 7.33 5.05 15.02 11.29 17.33 20.29 1.86 7.13-1.49 14.31-5.85 19.81-5.72 7.25-12.64 13.43-19.37 19.73-2.41 2.28-5.03 4.33-7.9 5.99-18.85 11.41-38.53 21.37-57.37 32.78-14.5 8.73-28.1 18.83-41.85 28.67-8.65-15.05-17.05-30.26-26.36-44.93-14.25-22.4-31.55-42.66-46.19-64.79-2.9-4.22-6.2-8.29-7.76-13.25-2.47-7.76-1.99-16-2.14-24.03-.46-10.63-2.24-21.38-6.76-31.1-4.51-10.08-11.98-18.55-20.41-25.56-5.8-4.73-12.03-9.1-18.99-11.94-4.39-1.65-9.33-2.96-13.95-1.45C5.46 71.35 1.43 75.95 0 81.19V0zM339.52 0H550v388.34c-.19-3.1-.88-6.18-2.23-8.99-26.22-54.78-52.37-109.6-78.62-164.38-3.15-6.88-9.11-12.01-15.78-15.33-11.52-4.53-23.22-8.89-33.81-15.39-9.17-5.61-16.63-13.72-22.17-22.88 8.76-13.93 18.91-27.06 25.79-42.09 5.36-11.26 8.96-23.68 7.99-36.25-1.66-21.95-11.87-43.22-28.54-57.7C385.69 9.32 362.62.91 339.52 0z"/>
    <path d="M284.12 38.46c13.15-8.75 27.97-15.72 43.89-17.11 19.2-1.73 39.47 2.86 54.87 14.79 9.06 6.96 17.14 15.64 21.68 26.26 4.92 11.35 7.78 24.38 4.06 36.51-4.15 13.64-11.96 25.77-19.9 37.48-7.37-3.53-16.7-7.11-18.93-15.9-3.04-13.45.31-27.7-4.09-40.93-3.22-9.81-10.88-17.35-19.15-23.15-17.95-12.95-40.45-18.81-62.43-17.95z"/>
    <path d="M267.92 55.85c13.02-.92 26.27-1.5 39.12 1.26a78.646 78.646 0 0 1 30.4 13.41c5.95 4.27 11.91 9.81 13.15 17.38 2.24 14.12-1.04 29.25 5.09 42.65 4.5 9.88 14.33 15.65 23.76 20.09-3.4 5.77-4.66 13.21-1.3 19.29 7.84 13.87 19.17 25.95 33.15 33.75 7.77 3.93 15.3 8.35 23.43 11.53-10.84 26.79-21.79 53.7-28.47 81.89-5.52-3.25-11.83-5.32-16.54-9.83-6.06-5.67-9.25-13.51-13.52-20.46-6.75-11.78-16.01-22.44-28.02-29.04-10.78-5.86-22.97-8.78-35.15-9.69-7.09-.36-14.88-.18-20.91 4.06-6.68 4.65-8.49 15.45-2.57 21.42 4.9 5.04 12.3 5.43 18.69 7.26 10.3 2.59 19.08 9.09 26.64 16.33 3.43 3.49 7.04 7.18 8.59 11.94 1.06 2.52-.52 5.82-3.4 5.98-4.63.38-8.49-2.73-12.07-5.21-4.81-3.17-9.08-7.89-14.97-8.88-4.81-.21-4.6 5.89-2.9 8.92 5.54 11.42 16.46 19.99 28.66 23.28 11.26 3.22 23.21 3.66 34.1 8.21 9.74 3.37 17.92 9.77 26.75 14.87-5.46 51.37-5.41 103.1-6.01 154.7-.1 11.05-.15 22.09-.21 33.13-27.97 10.62-55.94 21.24-83.61 32.62.88-28.25 1.68-56.5 2.37-84.75.48-24.29 1.55-48.7-1.55-72.87-4.11-32.6-12.8-64.38-21.83-95.9-6.25-21.14-12.44-42.29-18.94-63.36 9.58-9.39 19.88-18.22 27.9-29.06 7.57-10.07 11.54-23.36 8.29-35.8-3.35-14.19-14.39-24.99-26.15-32.81-7.84-4.88-15.31-10.87-20.11-18.9-4.8-8.18-5.72-17.97-5.34-27.26.59-14.32 5.49-28.3 13.48-40.15m20.3 19.39c-7.22 1.72-13.32 8.97-11.71 16.61 1.64 8.61 11.26 13.58 19.5 12.2 8.11-.83 15.76-8.48 14.05-17-1.78-9.53-13.06-14.46-21.84-11.81zM0 86.36c2.53 9.39 12.22 13.62 17.82 20.87 4.88 5.93 8.12 13.02 10.69 20.2 1.81 5.3 3.44 10.91 2.61 16.57-.19 2.08-1.99 3.9-4.08 4.03-2.69-.55-4.84-2.52-6.32-4.75-3.98-5.97-5.87-13.1-10.15-18.89-1.35-1.98-3.84-3.13-6.18-2.19-2.62 2.03-3.08 5.66-3.21 8.75.3 8.09 2.76 16.09 6.96 23.02 4.7 7.7 11.94 13.33 18.94 18.82 9.82 7.48 18.62 16.61 24.48 27.55 25.18 43.55 50.37 87.09 75.55 130.64 5.8 9.64 19.2 13.58 29.22 8.33 35.06-18.23 70.1-36.49 105.12-54.78 10.8 36.67 21.96 73.43 27.59 111.33 3.84 25.18 2.69 50.72 2.17 76.09-.71 30.02-1.69 60.03-2.48 90.05-10.9-12.99-22.07-25.75-33.26-38.48-12.87-14.45-25.79-28.9-40.08-41.97-11.99-10.75-25.6-21.11-41.94-23.69-13.29-2.38-27.21 2.45-36.99 11.56-9.89 9.06-14.94 22.3-15.99 35.47-1.88 21.69.26 43.47 1.96 65.11 2.22 25.41 4.94 50.78 7.66 76.15-8.45 5.71-16.89 11.58-24.14 18.8-9.21 8.85-15.5 20.89-16.27 33.76-13.98 6.12-28.27 11.78-43.24 14.97-7.37 1.82-15.54 2.23-21.85 6.9-4.44 3.38-7.11 10.99-2.52 15.31 5.68 4.26 13.26 3.24 19.91 4.11H0V86.36zM425.67 306.73c2.27-11.24 5.46-22.29 9.22-33.13 8.6 16.94 16.86 34.09 26.75 50.33-11.85-6.02-23.94-11.54-35.97-17.2zM415.4 429.99c.58-27.16 1.47-54.35 4.1-81.4 30.77 19.22 61.64 38.27 92.44 57.44 2.94 1.86 5.88 3.87 9.3 4.77 7.61 2.2 16.3.02 21.92-5.59 4.03-3.85 6.32-9.23 6.84-14.73V740h-41.29c4.93-.65 10.23-.23 14.75-2.65 2.34-1.18 4.34-3.58 4.04-6.35-.3-3.4-2.85-6.11-5.67-7.77-3.8-2.2-8.07-3.38-12.25-4.61-14.23-3.95-28.66-7.39-42.39-12.93-13.02-5.27-25.21-12.83-35.14-22.81-5.86-5.76-10.95-12.43-17.95-16.91.13-78.66-.17-157.33 1.3-235.98z"/>
    <path d="M145.52 491.54c4.76-9.1 15.6-15.29 25.88-12.77 13.47 3.07 23.93 12.9 33.83 21.93 23.42 22.82 44.38 48 65.76 72.7-41.79 18.56-81.9 40.72-120.65 64.95-3.81-38.05-8.66-76.07-9.64-114.33.18-10.89-.37-22.53 4.82-32.48zM284.58 585.68c35.76-15.74 72.23-29.81 108.78-43.58-.19 41.03-.23 82.06-.19 123.09-7.44 4.8-13.77 11.15-21.6 15.36-8.28 4.82-17.92 7.42-27.52 6.71-12.41-.74-24.19-5.07-36.26-7.66-21.15-4.85-43.64-7.32-64.84-1.4-19.01 5.36-35.11 17.2-52.16 26.68-16.64 9.27-35.68 14.83-54.83 13.82-8.2-.13-17.2-2.45-22.41-9.25-4.26-5.58-3.18-13.33-.41-19.32 4.21-8.69 12.14-14.73 19.7-20.37 16.02-11.22 32.83-21.25 49.6-31.31 32.91-19.68 67.03-37.34 102.14-52.77zM205.78 738.16c54.83-3.75 109.57-10.71 164.61-9.73 21.71.24 43.1 4.2 64.44 7.74 16.59 2.81 33.45 3.07 50.21 3.83H162.3c14.49-.62 29.01-.7 43.48-1.84z"/>
  </g>
  <path d="M332.43 0h7.09c23.1.91 46.17 9.32 63.11 25.33 16.67 14.48 26.88 35.75 28.54 57.7.97 12.57-2.63 24.99-7.99 36.25-6.88 15.03-17.03 28.16-25.79 42.09 5.54 9.16 13 17.27 22.17 22.88 10.59 6.5 22.29 10.86 33.81 15.39 6.67 3.32 12.63 8.45 15.78 15.33 26.25 54.78 52.4 109.6 78.62 164.38 1.35 2.81 2.04 5.89 2.23 8.99v2.14c-.52 5.5-2.81 10.88-6.84 14.73-5.62 5.61-14.31 7.79-21.92 5.59-3.42-.9-6.36-2.91-9.3-4.77-30.8-19.17-61.67-38.22-92.44-57.44-2.63 27.05-3.52 54.24-4.1 81.4-1.47 78.65-1.17 157.32-1.3 235.98 7 4.48 12.09 11.15 17.95 16.91 9.93 9.98 22.12 17.54 35.14 22.81 13.73 5.54 28.16 8.98 42.39 12.93 4.18 1.23 8.45 2.41 12.25 4.61 2.82 1.66 5.37 4.37 5.67 7.77.3 2.77-1.7 5.17-4.04 6.35-4.52 2.42-9.82 2-14.75 2.65h-23.67c-16.76-.76-33.62-1.02-50.21-3.83-21.34-3.54-42.73-7.5-64.44-7.74-55.04-.98-109.78 5.98-164.61 9.73-14.47 1.14-28.99 1.22-43.48 1.84H41.98c-6.65-.87-14.23.15-19.91-4.11-4.59-4.32-1.92-11.93 2.52-15.31 6.31-4.67 14.48-5.08 21.85-6.9 14.97-3.19 29.26-8.85 43.24-14.97.77-12.87 7.06-24.91 16.27-33.76 7.25-7.22 15.69-13.09 24.14-18.8-2.72-25.37-5.44-50.74-7.66-76.15-1.7-21.64-3.84-43.42-1.96-65.11 1.05-13.17 6.1-26.41 15.99-35.47 9.78-9.11 23.7-13.94 36.99-11.56 16.34 2.58 29.95 12.94 41.94 23.69 14.29 13.07 27.21 27.52 40.08 41.97 11.19 12.73 22.36 25.49 33.26 38.48.79-30.02 1.77-60.03 2.48-90.05.52-25.37 1.67-50.91-2.17-76.09-5.63-37.9-16.79-74.66-27.59-111.33-35.02 18.29-70.06 36.55-105.12 54.78-10.02 5.25-23.42 1.31-29.22-8.33-25.18-43.55-50.37-87.09-75.55-130.64-5.86-10.94-14.66-20.07-24.48-27.55-7-5.49-14.24-11.12-18.94-18.82-4.2-6.93-6.66-14.93-6.96-23.02.13-3.09.59-6.72 3.21-8.75 2.34-.94 4.83.21 6.18 2.19 4.28 5.79 6.17 12.92 10.15 18.89 1.48 2.23 3.63 4.2 6.32 4.75 2.09-.13 3.89-1.95 4.08-4.03.83-5.66-.8-11.27-2.61-16.57-2.57-7.18-5.81-14.27-10.69-20.2C12.22 99.98 2.53 95.75 0 86.36v-5.17c1.43-5.24 5.46-9.84 10.79-11.3 4.62-1.51 9.56-.2 13.95 1.45 6.96 2.84 13.19 7.21 18.99 11.94 8.43 7.01 15.9 15.48 20.41 25.56 4.52 9.72 6.3 20.47 6.76 31.1.15 8.03-.33 16.27 2.14 24.03 1.56 4.96 4.86 9.03 7.76 13.25 14.64 22.13 31.94 42.39 46.19 64.79 9.31 14.67 17.71 29.88 26.36 44.93 13.75-9.84 27.35-19.94 41.85-28.67 18.84-11.41 38.52-21.37 57.37-32.78 2.87-1.66 5.49-3.71 7.9-5.99 6.73-6.3 13.65-12.48 19.37-19.73 4.36-5.5 7.71-12.68 5.85-19.81-2.31-9-10-15.24-17.33-20.29-10.06-6.27-19.34-14.2-25.73-24.29-7.77-12.19-9.91-27.1-9.07-41.3 1.1-22.02 10.22-43.36 24.63-59.95 10.22-11.68 23.78-19.94 37.94-25.99C307.6 3.24 319.96.53 332.43 0m-48.31 38.46c21.98-.86 44.48 5 62.43 17.95 8.27 5.8 15.93 13.34 19.15 23.15 4.4 13.23 1.05 27.48 4.09 40.93 2.23 8.79 11.56 12.37 18.93 15.9 7.94-11.71 15.75-23.84 19.9-37.48 3.72-12.13.86-25.16-4.06-36.51-4.54-10.62-12.62-19.3-21.68-26.26-15.4-11.93-35.67-16.52-54.87-14.79-15.92 1.39-30.74 8.36-43.89 17.11m-16.2 17.39C259.93 67.7 255.03 81.68 254.44 96c-.38 9.29.54 19.08 5.34 27.26 4.8 8.03 12.27 14.02 20.11 18.9 11.76 7.82 22.8 18.62 26.15 32.81 3.25 12.44-.72 25.73-8.29 35.8-8.02 10.84-18.32 19.67-27.9 29.06 6.5 21.07 12.69 42.22 18.94 63.36 9.03 31.52 17.72 63.3 21.83 95.9 3.1 24.17 2.03 48.58 1.55 72.87-.69 28.25-1.49 56.5-2.37 84.75 27.67-11.38 55.64-22 83.61-32.62.06-11.04.11-22.08.21-33.13.6-51.6.55-103.33 6.01-154.7-8.83-5.1-17.01-11.5-26.75-14.87-10.89-4.55-22.84-4.99-34.1-8.21-12.2-3.29-23.12-11.86-28.66-23.28-1.7-3.03-1.91-9.13 2.9-8.92 5.89.99 10.16 5.71 14.97 8.88 3.58 2.48 7.44 5.59 12.07 5.21 2.88-.16 4.46-3.46 3.4-5.98-1.55-4.76-5.16-8.45-8.59-11.94-7.56-7.24-16.34-13.74-26.64-16.33-6.39-1.83-13.79-2.22-18.69-7.26-5.92-5.97-4.11-16.77 2.57-21.42 6.03-4.24 13.82-4.42 20.91-4.06 12.18.91 24.37 3.83 35.15 9.69 12.01 6.6 21.27 17.26 28.02 29.04 4.27 6.95 7.46 14.79 13.52 20.46 4.71 4.51 11.02 6.58 16.54 9.83 6.68-28.19 17.63-55.1 28.47-81.89-8.13-3.18-15.66-7.6-23.43-11.53-13.98-7.8-25.31-19.88-33.15-33.75-3.36-6.08-2.1-13.52 1.3-19.29-9.43-4.44-19.26-10.21-23.76-20.09-6.13-13.4-2.85-28.53-5.09-42.65-1.24-7.57-7.2-13.11-13.15-17.38a78.646 78.646 0 0 0-30.4-13.41c-12.85-2.76-26.1-2.18-39.12-1.26m157.75 250.88c12.03 5.66 24.12 11.18 35.97 17.2-9.89-16.24-18.15-33.39-26.75-50.33-3.76 10.84-6.95 21.89-9.22 33.13M145.52 491.54c-5.19 9.95-4.64 21.59-4.82 32.48.98 38.26 5.83 76.28 9.64 114.33 38.75-24.23 78.86-46.39 120.65-64.95-21.38-24.7-42.34-49.88-65.76-72.7-9.9-9.03-20.36-18.86-33.83-21.93-10.28-2.52-21.12 3.67-25.88 12.77m139.06 94.14c-35.11 15.43-69.23 33.09-102.14 52.77-16.77 10.06-33.58 20.09-49.6 31.31-7.56 5.64-15.49 11.68-19.7 20.37-2.77 5.99-3.85 13.74.41 19.32 5.21 6.8 14.21 9.12 22.41 9.25 19.15 1.01 38.19-4.55 54.83-13.82 17.05-9.48 33.15-21.32 52.16-26.68 21.2-5.92 43.69-3.45 64.84 1.4 12.07 2.59 23.85 6.92 36.26 7.66 9.6.71 19.24-1.89 27.52-6.71 7.83-4.21 14.16-10.56 21.6-15.36-.04-41.03 0-82.06.19-123.09-36.55 13.77-73.02 27.84-108.78 43.58z"/>
  <path d="M288.22 75.24c8.78-2.65 20.06 2.28 21.84 11.81 1.71 8.52-5.94 16.17-14.05 17-8.24 1.38-17.86-3.59-19.5-12.2-1.61-7.64 4.49-14.89 11.71-16.61z"/>
</svg>
